<svg width="73" height="57" viewBox="0 0 73 57" fill="none" xmlns="http://www.w3.org/2000/svg">
<path d="M0.0187582 0C0.349742 0.174775 0.669524 0.359627 0.983734 0.562886C1.21645 0.710194 1.45237 0.851905 1.68861 0.993495C1.73272 1.01997 1.77683 1.04644 1.82229 1.07372C2.0653 1.21912 2.30946 1.36203 2.55589 1.50157C2.55589 1.53574 2.55589 1.56992 2.55589 1.60512C2.59207 1.61861 2.62824 1.63209 2.66551 1.64598C3.20415 1.87224 3.70187 2.22097 4.19219 2.53519C4.23223 2.56079 4.27227 2.5864 4.31352 2.61278C4.34904 2.63563 4.38455 2.65848 4.42114 2.68203C4.52196 2.74333 4.62432 2.79662 4.73058 2.8478C4.73058 2.88198 4.73058 2.91615 4.73058 2.95136C4.76007 2.95726 4.78957 2.96316 4.81996 2.96923C4.95059 3.00685 5.04825 3.06092 5.16442 3.13137C5.20759 3.1574 5.25076 3.18343 5.29524 3.21025C5.34064 3.23802 5.38604 3.26578 5.43282 3.29439C5.47932 3.32256 5.52582 3.35072 5.57373 3.37974C5.86101 3.55428 6.14586 3.73209 6.42833 3.91431C6.58434 4.01326 6.74379 4.10433 6.90526 4.19404C6.90526 4.22821 6.90526 4.26238 6.90526 4.29759C6.93189 4.30173 6.95852 4.30587 6.98596 4.31013C7.16633 4.36612 7.31832 4.46458 7.47806 4.56296C7.52985 4.59443 7.52985 4.59443 7.58269 4.62654C7.83003 4.77742 8.07448 4.93261 8.31783 5.08984C8.52902 5.22183 8.74636 5.34273 8.96405 5.46361C9.0023 5.48891 9.04054 5.51421 9.07994 5.54027C9.07994 5.57444 9.07994 5.60862 9.07994 5.64383C9.11044 5.65038 9.14094 5.65693 9.17236 5.66368C9.3577 5.71526 9.5148 5.82062 9.67863 5.9189C9.71699 5.94168 9.75535 5.96447 9.79488 5.98794C10.2153 6.23924 10.6281 6.50244 11.0414 6.7652C11.4824 7.04471 11.9301 7.31336 12.3776 7.58227C12.4235 7.60987 12.4694 7.63747 12.5167 7.66591C12.5596 7.69164 12.6026 7.71737 12.6468 7.74388C12.6853 7.767 12.7239 7.79012 12.7636 7.81395C12.8289 7.85222 12.8956 7.88822 12.9633 7.92207C12.9633 7.95624 12.9633 7.99041 12.9633 8.02562C12.9986 8.03851 13.0338 8.05139 13.0701 8.06466C13.2498 8.1409 13.4163 8.23502 13.5846 8.33306C13.6159 8.35104 13.6471 8.36903 13.6793 8.38757C13.7688 8.43919 13.8579 8.49129 13.9471 8.54341C13.9973 8.57124 14.0475 8.59907 14.0992 8.62775C14.1344 8.65118 14.1697 8.6746 14.206 8.69874C14.206 8.73291 14.206 8.76709 14.206 8.8023C14.2365 8.80887 14.267 8.81544 14.2984 8.82221C14.4773 8.8719 14.6296 8.97091 14.7885 9.06442C14.8221 9.08395 14.8558 9.10347 14.8904 9.12358C14.9731 9.1716 15.0556 9.21992 15.138 9.2683C15.138 9.30247 15.138 9.33665 15.138 9.37186C15.1675 9.37776 15.197 9.38365 15.2274 9.38973C15.358 9.42735 15.4557 9.48142 15.5718 9.55187C15.615 9.57786 15.6581 9.60385 15.7025 9.63063C15.7479 9.65844 15.7934 9.68624 15.8402 9.71489C15.8873 9.74339 15.9343 9.7719 15.9827 9.80126C16.2542 9.96627 16.5238 10.1338 16.7909 10.3059C17.0661 10.4812 17.3443 10.6518 17.6219 10.8234C17.897 10.9934 18.1715 11.1642 18.4453 11.3362C18.8867 11.613 19.3323 11.8829 19.7776 12.1533C20.0007 12.2889 20.2232 12.4254 20.4453 12.5627C20.6587 12.6944 20.8735 12.8223 21.0925 12.9446C21.0925 12.9787 21.0925 13.0129 21.0925 13.0481C21.1369 13.0611 21.1813 13.074 21.227 13.0873C21.4156 13.1562 21.5673 13.2446 21.7365 13.3523C21.9678 13.4981 22.2 13.6397 22.4387 13.773C22.4387 13.8072 22.4387 13.8414 22.4387 13.8766C22.4692 13.8831 22.4997 13.8897 22.5311 13.8965C22.71 13.9462 22.8623 14.0452 23.0212 14.1387C23.0549 14.1582 23.0885 14.1777 23.1232 14.1978C23.2058 14.2459 23.2883 14.2942 23.3707 14.3426C23.3707 14.3767 23.3707 14.4109 23.3707 14.4461C23.4236 14.4654 23.4236 14.4654 23.4775 14.4852C23.6572 14.5614 23.8237 14.6555 23.9921 14.7536C24.0233 14.7715 24.0545 14.7895 24.0867 14.8081C24.1762 14.8597 24.2654 14.9118 24.3545 14.9639C24.4047 14.9917 24.4549 15.0196 24.5066 15.0482C24.5419 15.0717 24.5771 15.0951 24.6134 15.1192C24.6134 15.1534 24.6134 15.1876 24.6134 15.2228C24.6435 15.2291 24.6737 15.2355 24.7047 15.242C24.8232 15.2753 24.9113 15.3194 25.0169 15.382C25.0536 15.4036 25.0902 15.4251 25.1279 15.4474C25.1664 15.4705 25.2048 15.4935 25.2445 15.5173C25.2843 15.541 25.3242 15.5647 25.3653 15.5891C25.5937 15.7256 25.8171 15.8669 26.0367 16.0171C26.339 16.2169 26.6516 16.4012 26.9614 16.5892C27.2112 16.7408 27.4608 16.8928 27.7104 17.0447C27.7613 17.0757 27.8123 17.1068 27.8648 17.1387C28.8283 17.7252 28.8283 17.7252 29.2476 17.9929C29.7145 18.2911 30.1833 18.5849 30.6715 18.8473C30.6715 18.8814 30.6715 18.9156 30.6715 18.9508C30.7127 18.9581 30.7127 18.9581 30.7548 18.9656C30.9192 19.0147 31.054 19.0945 31.2022 19.1806C31.258 19.2126 31.3138 19.2445 31.3713 19.2775C31.4137 19.3064 31.4562 19.3353 31.4999 19.3651C31.4999 19.3992 31.4999 19.4334 31.4999 19.4686C31.5304 19.4751 31.5609 19.4816 31.5924 19.4883C31.7743 19.5392 31.9263 19.6449 32.0857 19.7437C32.1523 19.7845 32.219 19.8253 32.2857 19.866C32.3182 19.886 32.3508 19.9059 32.3843 19.9264C32.5367 20.0183 32.6913 20.1059 32.8461 20.1935C32.8461 20.2277 32.8461 20.2619 32.8461 20.2971C32.8762 20.3032 32.9062 20.3094 32.9372 20.3158C33.059 20.3505 33.1464 20.3972 33.2537 20.4639C33.2917 20.4873 33.3296 20.5108 33.3687 20.5349C33.4088 20.56 33.4489 20.5851 33.4901 20.611C33.5315 20.6366 33.5729 20.6622 33.6155 20.6885C33.7389 20.7649 33.8621 20.8417 33.9853 20.9184C34.1092 20.9952 34.2333 21.0717 34.3574 21.1482C34.4102 21.1807 34.4629 21.2132 34.5172 21.2467C34.6833 21.3478 34.851 21.445 35.0208 21.5397C35.0208 21.5739 35.0208 21.6081 35.0208 21.6433C35.0493 21.6482 35.0777 21.6532 35.107 21.6583C35.2602 21.7049 35.373 21.7813 35.5063 21.8698C35.795 22.0651 35.795 22.0651 36.1082 22.2129C36.7638 22.0045 37.4254 21.5046 37.9835 21.1118C38.1275 21.022 38.1275 21.022 38.2829 21.022C38.2829 20.9878 38.2829 20.9536 38.2829 20.9184C38.3162 20.9008 38.3495 20.8832 38.3838 20.865C38.9182 20.5784 39.4291 20.256 39.94 19.9298C40.4313 19.6171 40.9258 19.3103 41.4261 19.0121C41.6602 18.8723 41.8902 18.727 42.1195 18.5795C42.3376 18.4421 42.5591 18.3106 42.7811 18.1797C42.9138 18.1009 43.0415 18.0227 43.1632 17.9274C43.2536 17.8635 43.2536 17.8635 43.4089 17.8635C43.4089 17.8293 43.4089 17.7951 43.4089 17.7599C43.4498 17.7372 43.4907 17.7145 43.5329 17.6912C44.1334 17.3535 44.7279 16.9977 45.2923 16.6022C45.4283 16.5173 45.4283 16.5173 45.5836 16.5173C45.5836 16.4831 45.5836 16.4489 45.5836 16.4137C45.6999 16.3454 45.8164 16.2775 45.9331 16.2098C45.9659 16.1905 45.9988 16.1712 46.0326 16.1513C46.1926 16.0587 46.3351 15.9866 46.5156 15.9477C46.5156 15.9135 46.5156 15.8793 46.5156 15.8441C46.6187 15.7748 46.6187 15.7748 46.768 15.692C47.0526 15.5307 47.3335 15.3644 47.6126 15.1937C47.6732 15.1567 47.6732 15.1567 47.7349 15.1189C47.9704 14.9744 48.2034 14.8274 48.4304 14.6696C48.5482 14.5928 48.6698 14.5238 48.7922 14.4545C48.9973 14.3372 49.1996 14.215 49.4022 14.0934C49.4713 14.052 49.4713 14.052 49.5417 14.0097C49.8199 13.8423 50.0958 13.6721 50.3686 13.4961C50.5831 13.359 50.8007 13.227 51.0181 13.0944C51.1278 13.0261 51.2354 12.9545 51.3413 12.8804C51.4863 12.7892 51.4863 12.7892 51.6416 12.7892C51.6416 12.755 51.6416 12.7209 51.6416 12.6857C51.6886 12.6594 51.7355 12.6331 51.7838 12.606C52.0962 12.4299 52.4034 12.2519 52.6999 12.0498C52.8868 11.9244 53.0761 11.8031 53.2662 11.6825C53.3208 11.6472 53.3208 11.6472 53.3765 11.6113C53.6431 11.443 53.6431 11.443 53.8163 11.443C53.8163 11.4088 53.8163 11.3746 53.8163 11.3394C53.8572 11.3167 53.8982 11.294 53.9403 11.2707C54.5408 10.933 55.1353 10.5772 55.6998 10.1817C55.8357 10.0968 55.8357 10.0968 55.991 10.0968C55.991 10.0626 55.991 10.0284 55.991 9.9932C56.0614 9.95375 56.0614 9.95375 56.1332 9.91351C56.4617 9.72818 56.7835 9.54222 57.0903 9.3217C57.1819 9.2683 57.1819 9.2683 57.3372 9.2683C57.3372 9.23413 57.3372 9.19995 57.3372 9.16474C57.3891 9.1373 57.3891 9.1373 57.442 9.1093C57.795 8.92006 58.1337 8.71548 58.4699 8.4981C58.5693 8.43443 58.6688 8.37078 58.7682 8.30717C58.8157 8.27673 58.8632 8.2463 58.9121 8.21494C59.089 8.10157 59.266 7.98842 59.444 7.87676C59.4944 7.84486 59.5448 7.81295 59.5967 7.78008C59.719 7.71495 59.719 7.71495 59.8744 7.71495C59.8744 7.68078 59.8744 7.64661 59.8744 7.6114C59.9903 7.53474 59.9903 7.53474 60.1494 7.44635C60.3587 7.32769 60.5651 7.20744 60.7675 7.07744C60.8132 7.0482 60.8589 7.01897 60.9059 6.98885C60.9934 6.93265 61.0809 6.87644 61.1683 6.82011C61.2805 6.74805 61.3929 6.67648 61.5054 6.60496C61.5414 6.58168 61.5774 6.5584 61.6145 6.53441C61.8761 6.36872 61.8761 6.36872 62.0491 6.36872C62.0491 6.33455 62.0491 6.30037 62.0491 6.26516C62.1558 6.19397 62.1558 6.19397 62.3079 6.10983C62.5719 5.96025 62.831 5.80519 63.0879 5.64383C63.1229 5.62187 63.158 5.59992 63.1942 5.57731C63.3546 5.47666 63.5144 5.37521 63.6728 5.27127C63.7233 5.23829 63.7737 5.20532 63.8257 5.17135C63.8693 5.14238 63.9129 5.11341 63.9578 5.08357C64.0684 5.02249 64.0684 5.02249 64.2237 5.02249C64.2237 4.98831 64.2237 4.95414 64.2237 4.91893C64.2707 4.89263 64.3176 4.86634 64.3659 4.83924C64.6945 4.65391 65.0163 4.46795 65.323 4.24743C65.4146 4.19404 65.4146 4.19404 65.57 4.19404C65.57 4.15986 65.57 4.12569 65.57 4.09048C65.6822 4.01564 65.6822 4.01564 65.8386 3.92867C65.8955 3.89637 65.9524 3.86406 66.0111 3.83078C66.0559 3.8054 66.0559 3.8054 66.1016 3.77951C66.4284 3.59196 66.748 3.39105 67.0626 3.18396C67.0955 3.16246 67.1283 3.14095 67.1621 3.1188C67.2256 3.077 67.289 3.03489 67.3521 2.99244C67.5721 2.8478 67.5721 2.8478 67.7447 2.8478C67.7447 2.81363 67.7447 2.77945 67.7447 2.74425C67.7828 2.72422 67.8209 2.7042 67.8602 2.68357C68.1634 2.52468 68.1634 2.52468 68.4437 2.33002C68.5695 2.22934 68.6901 2.1599 68.832 2.08407C69.3878 1.78694 69.9147 1.43945 70.4469 1.10244C70.6938 0.946296 70.9417 0.792478 71.1932 0.643789C71.4076 0.515595 71.6192 0.382524 71.8311 0.250194C71.9847 0.158792 72.1403 0.077769 72.3011 0C72.2672 0.258211 72.195 0.487879 72.107 0.731367C72.0884 0.78443 72.0884 0.78443 72.0694 0.838564C71.877 1.37793 71.6439 1.90071 71.4047 2.42063C71.3799 2.4747 71.355 2.52877 71.3294 2.58447C70.9877 3.32422 70.6142 4.04512 70.23 4.7636C70.1958 4.7636 70.1617 4.7636 70.1265 4.7636C70.1215 4.80057 70.1164 4.83755 70.1113 4.87565C70.069 5.04523 70.0002 5.1558 69.9032 5.3008C69.7499 5.53335 69.7499 5.53335 69.6087 5.77327C69.4904 5.98559 69.3569 6.18809 69.2248 6.39198C69.1557 6.50304 69.095 6.61309 69.0391 6.73117C69.0049 6.73117 68.9708 6.73117 68.9356 6.73117C68.9237 6.77509 68.9119 6.81901 68.8998 6.86425C68.8216 7.06902 68.7088 7.2261 68.5763 7.39781C68.5243 7.46683 68.4724 7.53594 68.4206 7.60513C68.3809 7.6581 68.3809 7.6581 68.3405 7.71215C68.2179 7.87919 68.103 8.05116 67.9874 8.22303C67.7449 8.58148 67.4838 8.92329 67.215 9.2624C67.0861 9.42521 66.9609 9.58595 66.8497 9.76141C66.8204 9.80372 66.7911 9.84604 66.7609 9.88964C66.7267 9.88964 66.6925 9.88964 66.6573 9.88964C66.6376 9.93339 66.6376 9.93339 66.6175 9.97803C66.5453 10.1126 66.4596 10.2213 66.3628 10.3395C66.1871 10.5548 66.0178 10.7738 65.8519 10.9968C65.8272 11.0244 65.8025 11.0521 65.7771 11.0805C65.7429 11.0805 65.7087 11.0805 65.6735 11.0805C65.6543 11.1234 65.6543 11.1234 65.6347 11.1671C65.5574 11.311 65.4645 11.4317 65.3629 11.5595C65.3266 11.6057 65.2902 11.6519 65.2528 11.6994C65.2208 11.7344 65.1888 11.7694 65.1558 11.8054C65.1216 11.8054 65.0874 11.8054 65.0522 11.8054C65.0522 11.8396 65.0522 11.8738 65.0522 11.909C65.018 11.909 64.9838 11.909 64.9486 11.909C64.9345 11.9398 64.9204 11.9706 64.9059 12.0023C64.8467 12.113 64.7869 12.1894 64.7009 12.2799C64.6734 12.3092 64.6459 12.3384 64.6176 12.3685C64.5891 12.3984 64.5606 12.4283 64.5312 12.4591C64.3291 12.6594 64.3291 12.6594 64.172 12.8928C64.1378 12.8928 64.1036 12.8928 64.0684 12.8928C64.0476 12.9392 64.0476 12.9392 64.0263 12.9866C63.9649 13.0998 63.9081 13.1731 63.8095 13.2552C63.7753 13.2552 63.7412 13.2552 63.706 13.2552C63.6926 13.2849 63.6793 13.3145 63.6655 13.345C63.5965 13.4733 63.5169 13.5728 63.4212 13.6824C63.3739 13.7373 63.3739 13.7373 63.3257 13.7932C63.24 13.8766 63.24 13.8766 63.1364 13.8766C63.1364 13.9107 63.1364 13.9449 63.1364 13.9801C63.0652 14.0643 63.0652 14.0643 62.9811 14.1355C62.9469 14.1355 62.9127 14.1355 62.8775 14.1355C62.8775 14.1696 62.8775 14.2038 62.8775 14.239C62.8433 14.239 62.8092 14.239 62.774 14.239C62.774 14.2732 62.774 14.3074 62.774 14.3426C62.7028 14.4267 62.7028 14.4267 62.6186 14.4979C62.5844 14.4979 62.5503 14.4979 62.5151 14.4979C62.5151 14.5321 62.5151 14.5662 62.5151 14.6015C62.4809 14.6015 62.4467 14.6015 62.4115 14.6015C62.4115 14.6356 62.4115 14.6698 62.4115 14.705C62.3403 14.7892 62.3403 14.7892 62.2562 14.8603C62.222 14.8603 62.1878 14.8603 62.1526 14.8603C62.1526 14.8945 62.1526 14.9287 62.1526 14.9639C62.0693 15.0497 62.0693 15.0497 61.9584 15.1451C61.9224 15.1766 61.8864 15.2081 61.8492 15.2406C61.7384 15.3264 61.7384 15.3264 61.6276 15.3765C61.5246 15.4217 61.5246 15.4217 61.486 15.5213C61.3991 15.6938 61.2586 15.8075 61.1171 15.9347C61.0887 15.961 61.0605 15.9872 61.0313 16.0142C60.8198 16.2066 60.8198 16.2066 60.7028 16.2066C60.7028 16.2408 60.7028 16.2749 60.7028 16.3101C60.6687 16.3101 60.6345 16.3101 60.5993 16.3101C60.5993 16.3443 60.5993 16.3785 60.5993 16.4137C60.5384 16.4329 60.5384 16.4329 60.4763 16.4525C60.3152 16.5292 60.3122 16.5705 60.2368 16.7244C60.161 16.8041 60.161 16.8041 60.0736 16.8787C60.0419 16.9058 60.0103 16.933 59.9776 16.9609C59.9446 16.9886 59.9116 17.0162 59.8776 17.0447C59.8284 17.0871 59.8284 17.0871 59.7782 17.1304C59.5326 17.3388 59.5326 17.3388 59.3566 17.3975C59.3566 17.4317 59.3566 17.4658 59.3566 17.501C59.2504 17.5891 59.144 17.6719 59.033 17.7535C58.8335 17.9012 58.6502 18.0477 58.4764 18.2259C58.3977 18.292 58.3178 18.3568 58.2369 18.4201C58.1967 18.4519 58.1565 18.4836 58.1151 18.5164C58.0104 18.5884 58.0104 18.5884 57.9068 18.5884C57.9068 18.6226 57.9068 18.6567 57.9068 18.6919C57.8063 18.7794 57.7053 18.8606 57.5994 18.9411C57.5675 18.9657 57.5357 18.9902 57.5028 19.0155C57.4334 19.0689 57.3639 19.1222 57.2943 19.1754C57.1762 19.2659 57.0588 19.3573 56.9414 19.4488C56.8619 19.5104 56.7825 19.5721 56.703 19.6337C56.6647 19.6635 56.6265 19.6934 56.5871 19.7241C56.5514 19.7516 56.5157 19.7791 56.4789 19.8074C56.4471 19.832 56.4154 19.8565 56.3827 19.8819C56.3017 19.9346 56.3017 19.9346 56.1981 19.9346C56.1981 19.9688 56.1981 20.003 56.1981 20.0382C56.1206 20.1045 56.1206 20.1045 56.0129 20.1787C55.9741 20.2057 55.9353 20.2327 55.8953 20.2606C55.8338 20.3027 55.8338 20.3027 55.771 20.3456C55.6908 20.4011 55.6107 20.4566 55.5307 20.5121C55.4949 20.5366 55.4591 20.5612 55.4222 20.5865C55.3491 20.6377 55.2776 20.6912 55.2075 20.7464C55.1108 20.8148 55.1108 20.8148 55.0072 20.8148C55.0072 20.849 55.0072 20.8832 55.0072 20.9184C54.9202 20.9895 54.9202 20.9895 54.7993 21.0703C54.7558 21.0996 54.7124 21.129 54.6676 21.1592C54.6216 21.1897 54.5757 21.2203 54.5283 21.2517C54.4384 21.312 54.3486 21.3724 54.2589 21.4327C54.2187 21.4595 54.1786 21.4862 54.1373 21.5137C54.0221 21.5902 54.0221 21.5902 53.9149 21.6791C53.8163 21.7469 53.8163 21.7469 53.661 21.7469C53.661 21.781 53.661 21.8152 53.661 21.8504C53.5678 21.9181 53.4709 21.9807 53.373 22.0413C53.3062 22.0832 53.2394 22.1252 53.1727 22.1671C53.1353 22.1906 53.0979 22.2141 53.0593 22.2383C52.8234 22.3878 52.5904 22.5419 52.3568 22.695C50.2416 24.0769 50.2416 24.0769 50.0365 24.0769C50.0365 24.111 50.0365 24.1452 50.0365 24.1804C49.9719 24.2141 49.9072 24.2475 49.8423 24.2807C49.7883 24.3087 49.7883 24.3087 49.7331 24.3372C49.6273 24.3852 49.5285 24.4151 49.4152 24.4393C49.4152 24.4735 49.4152 24.5077 49.4152 24.5429C49.3268 24.5857 49.3268 24.5857 49.2366 24.6294C48.9575 24.7689 48.693 24.931 48.427 25.0938C48.3897 25.1163 48.3524 25.1387 48.3139 25.1618C48.2637 25.1923 48.2637 25.1923 48.2126 25.2235C48.1207 25.2678 48.1207 25.2678 47.9654 25.2678C47.9654 25.3019 47.9654 25.3361 47.9654 25.3713C47.9289 25.3889 47.8925 25.4066 47.8549 25.4247C47.3763 25.6597 46.9156 25.9207 46.4569 26.1923C46.1519 26.3727 45.844 26.5373 45.5257 26.6931C45.3378 26.7891 45.1593 26.8975 44.9796 27.008C44.8059 27.1115 44.6266 27.1994 44.4445 27.2871C44.4445 27.3213 44.4445 27.3555 44.4445 27.3907C44.4915 27.4174 44.5384 27.4441 44.5869 27.4716C44.6192 27.4902 44.6516 27.5088 44.685 27.528C44.7794 27.5821 44.8743 27.6355 44.9693 27.6886C45.0539 27.7366 45.0539 27.7366 45.1402 27.7855C45.1946 27.8161 45.249 27.8466 45.3051 27.8781C45.3457 27.9052 45.3864 27.9323 45.4283 27.9602C45.4283 27.9944 45.4283 28.0286 45.4283 28.0638C45.4714 28.0715 45.4714 28.0715 45.5154 28.0794C45.663 28.1239 45.7692 28.195 45.8975 28.2806C46.0933 28.4084 46.2898 28.5268 46.4962 28.6366C46.7179 28.755 46.9254 28.8854 47.1327 29.0274C47.285 29.1291 47.4427 29.2178 47.6029 29.3065C47.6029 29.3406 47.6029 29.3748 47.6029 29.41C47.6327 29.416 47.6625 29.422 47.6931 29.4282C47.8203 29.4648 47.9112 29.5151 48.0236 29.5848C48.0688 29.6125 48.114 29.6403 48.1606 29.6689C48.2158 29.7031 48.271 29.7373 48.3278 29.7725C48.4003 29.8168 48.4728 29.861 48.5453 29.9052C48.7837 30.0504 49.0218 30.1962 49.2598 30.342C49.2924 30.362 49.325 30.3819 49.3586 30.4025C49.641 30.5753 49.9227 30.7491 50.2016 30.9278C50.6085 31.1878 51.022 31.4373 51.4345 31.6883C51.5866 31.7808 51.7387 31.8733 51.8908 31.9659C51.9939 32.0286 52.097 32.0913 52.2001 32.1541C52.4719 32.3194 52.7432 32.4854 53.0138 32.6526C53.2272 32.7844 53.442 32.9123 53.661 33.0345C53.661 33.0687 53.661 33.1028 53.661 33.1381C53.6884 33.1429 53.7159 33.1477 53.7441 33.1526C53.9102 33.2025 54.0451 33.2839 54.195 33.3711C54.2267 33.3894 54.2584 33.4078 54.291 33.4267C54.553 33.579 54.8124 33.7356 55.0717 33.8924C55.3444 34.0565 55.6209 34.2133 55.8989 34.3682C56.1083 34.485 56.3155 34.6047 56.5217 34.727C56.7691 34.8723 57.0218 35.0008 57.2794 35.1269C57.4534 35.2156 57.6215 35.3117 57.7903 35.4098C58.0795 35.578 58.374 35.7309 58.6743 35.8784C58.9329 36.0058 59.187 36.1403 59.4407 36.2771C59.7671 36.4524 60.0961 36.6042 60.4385 36.7462C60.5753 36.8041 60.7067 36.8661 60.8387 36.934C61.2297 37.1344 61.6339 37.3074 62.0348 37.4865C62.179 37.551 62.3228 37.6162 62.4665 37.6816C62.5093 37.701 62.5521 37.7204 62.5962 37.7405C62.6852 37.7812 62.774 37.8224 62.8627 37.8638C63.1446 37.9947 63.4271 38.1079 63.7201 38.2111C63.8595 38.2634 63.9921 38.3233 64.1267 38.3871C64.3661 38.4986 64.6087 38.589 64.858 38.6751C65.2369 38.806 65.6089 38.9495 65.9801 39.101C66.0993 39.149 66.2192 39.1953 66.3392 39.2414C67.4937 39.6882 68.4807 40.2757 69.3949 41.118C69.508 41.2225 69.508 41.2225 69.6605 41.319C69.6605 41.3532 69.6605 41.3874 69.6605 41.4226C69.6946 41.4226 69.7288 41.4226 69.764 41.4226C69.834 41.5019 69.9003 41.5845 69.9647 41.6685C70.0656 41.7998 70.1627 41.9251 70.281 42.0411C71.7077 43.4955 72.3343 45.896 72.36 47.8677C72.3439 49.3377 72.0147 50.9237 71.2324 52.1826C71.1519 52.3123 71.0804 52.4454 71.0099 52.5808C70.8583 52.8612 70.6947 53.1389 70.4889 53.3833C70.4547 53.3833 70.4206 53.3833 70.3854 53.3833C70.3661 53.4397 70.3661 53.4397 70.3465 53.4972C70.2754 53.6567 70.1914 53.7621 70.0747 53.8914C70.0384 53.9323 70.0021 53.9732 69.9647 54.0154C69.8676 54.1082 69.8676 54.1082 69.764 54.1082C69.764 54.1424 69.764 54.1766 69.764 54.2118C69.7298 54.2118 69.6957 54.2118 69.6605 54.2118C69.6396 54.2615 69.6396 54.2615 69.6184 54.3121C69.5569 54.4189 69.5569 54.4189 69.4016 54.4707C69.4016 54.5049 69.4016 54.539 69.4016 54.5742C69.3674 54.5742 69.3332 54.5742 69.298 54.5742C69.298 54.6084 69.298 54.6426 69.298 54.6778C69.1781 54.7774 69.0579 54.8706 68.9323 54.9626C68.8947 54.9903 68.8571 55.018 68.8183 55.0466C68.7025 55.1313 68.5861 55.2153 68.4696 55.2991C68.4367 55.323 68.4038 55.3468 68.3699 55.3714C67.8485 55.7467 67.2976 56.0271 66.7091 56.2829C66.6505 56.3085 66.5919 56.334 66.5315 56.3604C64.8629 57.0418 62.92 57.1398 61.1688 56.7489C61.1339 56.7412 61.099 56.7336 61.063 56.7256C59.8459 56.4533 58.4958 55.8674 57.5444 55.0402C57.5444 55.0061 57.5444 54.9719 57.5444 54.9367C57.5145 54.9233 57.4846 54.9099 57.4537 54.896C57.3283 54.8283 57.2355 54.7509 57.1301 54.6551C57.0247 54.5598 56.9225 54.4703 56.8065 54.388C56.7766 54.364 56.7467 54.34 56.7159 54.3153C56.7159 54.2812 56.7159 54.247 56.7159 54.2118C56.6817 54.2118 56.6476 54.2118 56.6123 54.2118C56.5284 54.1285 56.5284 54.1285 56.4344 54.0176C56.4035 53.9816 56.3726 53.9455 56.3407 53.9084C56.0946 53.608 56.0946 53.608 56.0946 53.4869C56.0604 53.4869 56.0262 53.4869 55.991 53.4869C55.8976 53.3658 55.8109 53.2448 55.7256 53.118C55.6873 53.0612 55.6873 53.0612 55.6482 53.0032C54.7792 51.7022 54.31 50.3218 54.127 48.7751C54.122 48.7356 54.117 48.6961 54.1119 48.6554C53.8884 46.8137 54.3335 44.8794 55.2661 43.2866C55.2841 43.2559 55.302 43.2252 55.3205 43.1936C55.5207 42.8553 55.5207 42.8553 55.6286 42.717C55.6627 42.717 55.6969 42.717 55.7321 42.717C55.7561 42.6562 55.7561 42.6562 55.7807 42.5941C55.8357 42.4581 55.8357 42.4581 55.8875 42.3546C55.9216 42.3546 55.9558 42.3546 55.991 42.3546C56.0049 42.3161 56.0188 42.2777 56.0331 42.2381C56.0921 42.1014 56.1512 41.9996 56.2499 41.8886C56.2841 41.8886 56.3182 41.8886 56.3535 41.8886C56.3535 41.8373 56.3535 41.7861 56.3535 41.7332C56.3245 41.7271 56.2956 41.7209 56.2657 41.7145C56.1328 41.6777 56.0174 41.6258 55.8929 41.5664C55.8438 41.543 55.7947 41.5196 55.7441 41.4954C55.6921 41.4703 55.6401 41.4452 55.5865 41.4193C55.5063 41.3808 55.5063 41.3808 55.4244 41.3415C55.0925 41.1812 54.7654 41.0143 54.4417 40.8379C54.1926 40.7028 53.938 40.5841 53.6798 40.4675C53.4858 40.3778 53.2951 40.2828 53.1044 40.1864C52.8165 40.0409 52.5265 39.9013 52.2338 39.7657C51.9235 39.6215 51.6212 39.467 51.3208 39.3033C51.061 39.163 50.796 39.0361 50.5284 38.9113C50.1957 38.7561 49.8702 38.5926 49.5479 38.4168C49.2729 38.2681 48.9913 38.1363 48.7076 38.0052C48.4315 37.8767 48.1636 37.7366 47.8962 37.591C47.6557 37.4611 47.4109 37.3432 47.1628 37.2285C46.8839 37.0996 46.6106 36.9646 46.3408 36.8175C46.0499 36.659 45.7544 36.5142 45.4541 36.3742C45.1212 36.2189 44.7956 36.0552 44.4731 35.8794C44.2388 35.7527 44.0003 35.6379 43.7584 35.5263C43.3942 35.3581 43.0392 35.1757 42.6851 34.9872C42.3921 34.8314 42.0968 34.6815 41.7994 34.5345C41.5491 34.4102 41.3025 34.2799 41.0562 34.1477C40.7276 33.9717 40.3944 33.8098 40.056 33.6534C39.7757 33.523 39.5028 33.3816 39.231 33.2343C39.0375 33.1295 38.8427 33.0284 38.6453 32.9309C38.4142 32.8166 38.1863 32.6972 37.9592 32.575C37.6496 32.4085 37.3377 32.2473 37.0218 32.0928C36.8706 32.0188 36.7238 31.9438 36.5786 31.8582C36.3555 31.7256 36.3555 31.7256 36.1041 31.6927C35.9745 31.7297 35.8655 31.7815 35.7457 31.8436C35.6881 31.873 35.6305 31.9023 35.5712 31.9326C35.3687 32.0379 35.1689 32.1478 34.9691 32.2578C34.842 32.3273 34.7147 32.3963 34.5872 32.4649C34.5555 32.482 34.5238 32.4991 34.4911 32.5167C34.2111 32.6656 33.9246 32.7983 33.6366 32.9309C33.4001 33.0412 33.1748 33.1614 32.9497 33.2934C32.6928 33.444 32.4338 33.5768 32.1633 33.7011C31.854 33.8434 31.5511 33.9938 31.2507 34.1542C30.8326 34.3774 30.4098 34.5905 29.9854 34.8014C29.6085 34.9887 29.232 35.1759 28.8625 35.3775C28.5229 35.5615 28.1753 35.7257 27.8258 35.8899C27.475 36.0557 27.1319 36.2334 26.7898 36.4164C26.4635 36.59 26.1314 36.7486 25.7964 36.9046C25.5097 37.0389 25.2306 37.1835 24.9527 37.335C24.7183 37.4617 24.4799 37.5765 24.238 37.6881C23.9197 37.835 23.6087 37.9921 23.2995 38.1573C22.9297 38.3548 22.5555 38.5392 22.1757 38.7168C21.8104 38.8878 21.4498 39.0671 21.0898 39.249C20.9881 39.3001 20.8862 39.3507 20.7842 39.4012C20.4705 39.5567 20.1582 39.7141 19.8497 39.8799C19.1859 40.2365 18.5043 40.5554 17.822 40.8747C17.3694 41.0868 16.9234 41.3063 16.4844 41.5453C16.4331 41.5732 16.3818 41.601 16.3289 41.6297C16.2909 41.6506 16.2529 41.6715 16.2138 41.693C16.1218 41.7332 16.1218 41.7332 15.9664 41.7332C15.9921 41.7738 16.0177 41.8144 16.0441 41.8562C16.1218 41.9921 16.1218 41.9921 16.1218 42.0957C16.156 42.0957 16.1901 42.0957 16.2253 42.0957C16.2253 42.1469 16.2253 42.1982 16.2253 42.251C16.2595 42.251 16.2937 42.251 16.3289 42.251C16.3967 42.3315 16.3967 42.3315 16.4735 42.4444C16.5017 42.4856 16.5299 42.5268 16.5589 42.5692C16.5887 42.6137 16.6186 42.6582 16.6493 42.7041C16.6798 42.7493 16.7102 42.7946 16.7416 42.8412C17.2838 43.6515 17.6751 44.468 17.934 45.4095C17.9483 45.4604 17.9626 45.5112 17.9773 45.5636C18.1641 46.2647 18.211 46.9476 18.2093 47.6691C18.2091 47.8067 18.2103 47.9444 18.2116 48.082C18.2137 48.6576 18.1596 49.1966 18.0376 49.7589C18.0298 49.7946 18.0221 49.8302 18.0141 49.867C17.7663 50.9979 17.3131 52.2075 16.5878 53.1245C16.5536 53.1245 16.5194 53.1245 16.4842 53.1245C16.4842 53.1757 16.4842 53.227 16.4842 53.2798C16.4501 53.2798 16.4159 53.2798 16.3807 53.2798C16.3631 53.3198 16.3631 53.3198 16.3451 53.3607C16.1901 53.6484 15.9955 53.8828 15.7593 54.1082C15.6794 54.1879 15.5996 54.2678 15.5199 54.3477C15.4444 54.4232 15.3688 54.4987 15.2933 54.5742C15.2652 54.6045 15.237 54.6348 15.208 54.6661C15.138 54.7296 15.138 54.7296 15.0344 54.7296C15.0344 54.7637 15.0344 54.7979 15.0344 54.8331C14.9588 54.8999 14.9588 54.8999 14.8597 54.969C14.8272 54.9921 14.7948 55.0152 14.7614 55.039C14.672 55.092 14.672 55.092 14.5684 55.092C14.5684 55.1262 14.5684 55.1604 14.5684 55.1956C14.5172 55.1956 14.4659 55.1956 14.4131 55.1956C14.4131 55.2298 14.4131 55.2639 14.4131 55.2991C14.2972 55.3837 14.1822 55.4602 14.0604 55.5354C14.0235 55.5582 13.9866 55.5811 13.9487 55.6046C11.8542 56.8729 9.31946 57.299 6.93353 56.718C5.83939 56.4419 4.7042 55.987 3.79857 55.2991C3.79857 55.265 3.79857 55.2308 3.79857 55.1956C3.74731 55.1956 3.69605 55.1956 3.64323 55.1956C3.64323 55.1614 3.64323 55.1272 3.64323 55.092C3.59998 55.0712 3.59998 55.0712 3.55586 55.05C3.42513 54.9828 3.29957 54.9147 3.17723 54.8331C3.17723 54.799 3.17723 54.7648 3.17723 54.7296C3.14306 54.7296 3.10888 54.7296 3.07367 54.7296C3.07367 54.6954 3.07367 54.6612 3.07367 54.626C3.04491 54.6142 3.01614 54.6024 2.9865 54.5902C2.83278 54.5034 2.72748 54.3932 2.60443 54.2668C2.53785 54.1988 2.53785 54.1988 2.46993 54.1295C2.42995 54.0883 2.38997 54.0471 2.34878 54.0047C2.30242 53.9613 2.30242 53.9613 2.25513 53.9171C2.19344 53.8493 2.19344 53.8493 2.19344 53.7458C2.15927 53.7458 2.1251 53.7458 2.08989 53.7458C2.02314 53.6701 2.02314 53.6701 1.95397 53.571C1.91933 53.5224 1.91933 53.5224 1.88399 53.4727C1.831 53.3833 1.831 53.3833 1.831 53.2798C1.79682 53.2798 1.76265 53.2798 1.72744 53.2798C1.72744 53.2285 1.72744 53.1773 1.72744 53.1245C1.69327 53.1245 1.65909 53.1245 1.62388 53.1245C1.56084 53.0417 1.56084 53.0417 1.49059 52.9252C1.46473 52.8825 1.43888 52.8397 1.41223 52.7957C1.37123 52.7262 1.37123 52.7262 1.32939 52.6552C1.30142 52.6081 1.27345 52.561 1.24464 52.5124C1.01608 52.1221 0.816319 51.7288 0.640097 51.3122C0.616936 51.2585 0.593775 51.2048 0.569913 51.1494C0.435956 50.8217 0.333816 50.4886 0.242052 50.1472C0.231564 50.1085 0.221077 50.0699 0.210272 50.03C0.0381668 49.3632 0.00081165 48.7138 0.00241317 48.0285C0.00257641 47.8829 0.00135932 47.7373 4.92673e-05 47.5917C-0.00637847 45.7508 0.61621 43.6759 1.831 42.251C1.86517 42.251 1.89934 42.251 1.93455 42.251C1.94523 42.2158 1.95591 42.1805 1.96691 42.1442C2.06032 41.9447 2.18832 41.781 2.34878 41.6297C2.38295 41.6297 2.41712 41.6297 2.45233 41.6297C2.45233 41.5955 2.45233 41.5613 2.45233 41.5261C2.48651 41.5261 2.52068 41.5261 2.55589 41.5261C2.57298 41.4749 2.59006 41.4236 2.60767 41.3708C2.64184 41.3708 2.67602 41.3708 2.71123 41.3708C2.71123 41.3366 2.71123 41.3024 2.71123 41.2672C2.7454 41.2672 2.77957 41.2672 2.81478 41.2672C2.81478 41.2331 2.81478 41.1989 2.81478 41.1637C2.84896 41.1637 2.88313 41.1637 2.91834 41.1637C2.93542 41.1124 2.95251 41.0612 2.97012 41.0083C3.07347 40.9139 3.07347 40.9139 3.19988 40.8174C3.24146 40.7852 3.28305 40.7529 3.32589 40.7197C3.43612 40.6459 3.43612 40.6459 3.53968 40.6459C3.53968 40.6117 3.53968 40.5776 3.53968 40.5423C3.64825 40.4641 3.75618 40.3926 3.86976 40.3223C3.90293 40.3014 3.93609 40.2806 3.97026 40.2591C4.06813 40.1978 4.16632 40.137 4.26457 40.0763C4.33465 40.0324 4.33465 40.0324 4.40615 39.9875C5.01867 39.6102 5.66449 39.3439 6.3357 39.0926C6.37207 39.0789 6.40844 39.0653 6.44591 39.0513C6.58449 38.9994 6.72308 38.9476 6.86176 38.896C7.13175 38.7952 7.39922 38.6887 7.66635 38.5805C7.85573 38.5042 8.04603 38.4324 8.23855 38.3644C8.47385 38.2803 8.69822 38.1803 8.92461 38.0748C9.09947 37.9965 9.27695 37.9261 9.45534 37.8563C9.7501 37.7404 10.0378 37.6139 10.324 37.4777C10.5088 37.3899 10.6943 37.3045 10.8815 37.2219C11.3391 37.0198 11.7872 36.8095 12.2271 36.5711C12.4753 36.4372 12.7266 36.3142 12.9827 36.1962C13.6329 35.8956 14.2638 35.5602 14.8791 35.1936C15.0603 35.091 15.2455 34.9995 15.4325 34.9082C15.7954 34.7301 16.1423 34.532 16.4891 34.3245C16.8581 34.104 17.232 33.8919 17.6053 33.6787C17.9246 33.4954 18.2362 33.3052 18.5421 33.1005C18.6589 33.0345 18.6589 33.0345 18.8142 33.0345C18.8142 33.0003 18.8142 32.9662 18.8142 32.9309C18.9328 32.8616 19.0514 32.7926 19.1702 32.7238C19.2208 32.6942 19.2208 32.6942 19.2724 32.664C19.5274 32.5167 19.5274 32.5167 19.6427 32.5167C19.6427 32.4825 19.6427 32.4484 19.6427 32.4132C19.6945 32.3858 19.6945 32.3858 19.7473 32.3579C20.0509 32.1953 20.344 32.0226 20.6332 31.8355C20.7904 31.7346 20.9492 31.6368 21.1087 31.5394C21.4121 31.3535 21.7113 31.1616 22.0095 30.9674C22.1532 30.8766 22.2988 30.7916 22.4468 30.7082C22.5508 30.6477 22.6521 30.584 22.7534 30.5192C22.7889 30.4965 22.8245 30.4738 22.861 30.4504C22.9343 30.4035 23.0073 30.3563 23.0803 30.3089C23.1332 30.2752 23.1332 30.2752 23.1871 30.2409C23.2187 30.2205 23.2503 30.2002 23.2828 30.1792C23.3707 30.1349 23.3707 30.1349 23.5261 30.1349C23.5261 30.1007 23.5261 30.0666 23.5261 30.0314C23.642 29.9547 23.642 29.9547 23.8011 29.8663C24.0104 29.7477 24.2168 29.6274 24.4192 29.4974C24.4649 29.4682 24.5105 29.4389 24.5576 29.4088C24.6451 29.3526 24.7326 29.2964 24.82 29.2401C24.9322 29.168 25.0446 29.0964 25.1571 29.0249C25.2111 28.99 25.2111 28.99 25.2661 28.9544C25.5278 28.7887 25.5278 28.7887 25.7008 28.7887C25.7008 28.7545 25.7008 28.7203 25.7008 28.6851C25.7317 28.6693 25.7626 28.6535 25.7944 28.6372C26.2978 28.3717 26.7687 28.0572 27.2431 27.7437C27.3221 27.6916 27.4014 27.6398 27.4806 27.5881C27.5237 27.5596 27.5669 27.5311 27.6113 27.5017C27.7201 27.4425 27.7201 27.4425 27.8754 27.4425C27.8754 27.4083 27.8754 27.3741 27.8754 27.3389C27.9087 27.3213 27.942 27.3037 27.9764 27.2855C28.3203 27.101 28.6515 26.9028 28.9808 26.6937C29.1181 26.614 29.1181 26.614 29.2217 26.614C29.2217 26.5798 29.2217 26.5457 29.2217 26.5104C29.3021 26.453 29.3021 26.453 29.415 26.3903C29.4562 26.3671 29.4975 26.3438 29.5399 26.3199C29.6067 26.2828 29.6067 26.2828 29.6747 26.2451C30.0227 26.0484 30.3572 25.8441 30.687 25.6183C30.8721 25.497 31.0651 25.3946 31.2604 25.291C31.4691 25.1758 31.6723 25.0494 31.8624 24.9053C31.8624 24.8882 31.8624 24.8711 31.8624 24.8535C31.6196 24.8912 31.3769 24.929 31.1342 24.9668C31.0971 24.9726 31.06 24.9784 31.0217 24.9843C30.5437 25.0588 30.066 25.1348 29.5885 25.2127C28.9598 25.3153 28.3307 25.4116 27.6997 25.4993C27.3705 25.5455 27.0421 25.5951 26.7141 25.6488C26.6775 25.6548 26.6409 25.6608 26.6033 25.667C26.4253 25.6962 26.2475 25.7258 26.0697 25.7558C26.0057 25.7664 25.9418 25.777 25.8759 25.788C25.7913 25.8023 25.7913 25.8023 25.705 25.8169C25.3824 25.8582 25.1985 25.8386 24.9144 25.6755C24.8562 25.6427 24.798 25.6098 24.738 25.576C24.6798 25.5426 24.6216 25.5093 24.5616 25.4749C24.455 25.4164 24.3482 25.3581 24.2413 25.3001C24.1957 25.2752 24.1501 25.2502 24.1031 25.2245C24.0322 25.186 23.9607 25.1485 23.8885 25.1124C23.8885 25.0783 23.8885 25.0441 23.8885 25.0089C23.8326 25.0012 23.8326 25.0012 23.7757 24.9933C23.6099 24.9522 23.5054 24.8875 23.3643 24.7921C23.1809 24.6716 22.9983 24.5581 22.8044 24.4555C22.1469 24.1035 21.5114 23.7051 20.8854 23.3002C20.7905 23.2397 20.6956 23.1793 20.6006 23.119C20.031 22.7565 20.031 22.7565 19.8909 22.6669C19.789 22.6024 19.6866 22.5387 19.5838 22.4756C19.5317 22.4433 19.4796 22.4111 19.4259 22.3779C19.3782 22.3487 19.3304 22.3196 19.2813 22.2895C19.2468 22.2642 19.2122 22.2389 19.1767 22.2129C19.1767 22.1787 19.1767 22.1445 19.1767 22.1093C19.1478 22.1042 19.1189 22.0991 19.0891 22.0939C18.9416 22.049 18.8404 21.9783 18.7143 21.8894C18.6649 21.8549 18.6155 21.8203 18.5646 21.7846C18.5125 21.7476 18.4603 21.7106 18.4065 21.6724C18.3265 21.6162 18.3265 21.6162 18.2448 21.5588C17.8955 21.313 17.5473 21.0655 17.2008 20.8157C17.0956 20.741 16.9881 20.6696 16.8792 20.6004C16.8119 20.5528 16.8119 20.5528 16.7431 20.5042C16.7431 20.47 16.7431 20.4358 16.7431 20.4006C16.7068 20.3883 16.6705 20.3761 16.6331 20.3634C16.4568 20.2849 16.325 20.1837 16.1736 20.0641C16.1144 20.0177 16.0553 19.9714 15.9962 19.9251C15.9659 19.9012 15.9356 19.8773 15.9044 19.8527C15.7501 19.7312 15.5945 19.6112 15.439 19.4913C15.3961 19.4579 15.3961 19.4579 15.3523 19.4239C15.2003 19.3062 15.2003 19.3062 15.0344 19.2097C15.0344 19.1755 15.0344 19.1414 15.0344 19.1062C14.9912 19.0853 14.9912 19.0853 14.9471 19.0641C14.8163 18.997 14.6908 18.9288 14.5684 18.8473C14.5684 18.8131 14.5684 18.7789 14.5684 18.7437C14.5388 18.7298 14.5092 18.7159 14.4786 18.7016C14.3572 18.638 14.2513 18.5664 14.1413 18.4848C14.0864 18.4448 14.0864 18.4448 14.0304 18.4039C14.0029 18.3794 13.9754 18.3548 13.9471 18.3295C13.9471 18.2953 13.9471 18.2611 13.9471 18.2259C13.9104 18.2143 13.8737 18.2026 13.8359 18.1905C13.6587 18.1087 13.5352 17.9943 13.397 17.8602C13.0641 17.5461 12.7167 17.2527 12.3515 16.9766C12.3142 16.9446 12.2769 16.9126 12.2384 16.8797C12.2384 16.8455 12.2384 16.8114 12.2384 16.7761C12.2108 16.765 12.1832 16.7538 12.1547 16.7424C11.9859 16.6469 11.8538 16.5172 11.7142 16.3846C11.5257 16.1969 11.5257 16.1969 11.3064 16.0512C11.3064 16.0171 11.3064 15.9829 11.3064 15.9477C11.2551 15.9306 11.2039 15.9135 11.1511 15.8959C11.1511 15.8617 11.1511 15.8276 11.1511 15.7924C11.1169 15.7924 11.0827 15.7924 11.0475 15.7924C11.0475 15.7582 11.0475 15.724 11.0475 15.6888C11.0133 15.6888 10.9792 15.6888 10.944 15.6888C10.944 15.6546 10.944 15.6205 10.944 15.5852C10.9023 15.5676 10.9023 15.5676 10.8598 15.5496C10.6012 15.4067 10.4214 15.2213 10.2385 14.9932C10.1621 14.9062 10.0811 14.8346 9.99254 14.76C9.52676 14.3626 9.08535 13.916 8.69141 13.4474C8.57476 13.314 8.44676 13.1928 8.31804 13.0712C8.25149 12.9963 8.25149 12.9963 8.25149 12.8928C8.21732 12.8928 8.18315 12.8928 8.14794 12.8928C8.14794 12.8586 8.14794 12.8244 8.14794 12.7892C8.09668 12.7721 8.04542 12.755 7.9926 12.7374C7.9926 12.7033 7.9926 12.6691 7.9926 12.6339C7.95843 12.6339 7.92426 12.6339 7.88905 12.6339C7.81239 12.5578 7.81239 12.5578 7.724 12.4527C7.56288 12.2624 7.39811 12.0763 7.23069 11.8916C7.16415 11.8054 7.16415 11.8054 7.16415 11.7019C7.12998 11.7019 7.0958 11.7019 7.06059 11.7019C6.98299 11.6162 6.90915 11.5271 6.8373 11.4365C6.79592 11.3847 6.75454 11.3328 6.7119 11.2794C6.67319 11.2308 6.63448 11.1823 6.59459 11.1323C6.54196 11.0706 6.48916 11.0091 6.43602 10.9479C6.3357 10.8216 6.3357 10.8216 6.3357 10.7181C6.28444 10.701 6.23318 10.6839 6.18037 10.6663C6.08591 10.563 6.08591 10.563 5.98943 10.4365C5.9572 10.395 5.92496 10.3534 5.89174 10.3105C5.81792 10.2003 5.81792 10.2003 5.81792 10.0968C5.78374 10.0968 5.74957 10.0968 5.71436 10.0968C5.62989 9.99703 5.55192 9.89775 5.47489 9.79255C5.45313 9.76379 5.43137 9.73502 5.40895 9.70538C5.24836 9.489 5.24836 9.489 5.24836 9.37186C5.21418 9.37186 5.18001 9.37186 5.1448 9.37186C5.05169 9.25493 4.96489 9.13819 4.87944 9.01588C4.8431 8.96532 4.8431 8.96532 4.80602 8.91374C4.62702 8.66064 4.62702 8.66064 4.62702 8.54341C4.59285 8.54341 4.55867 8.54341 4.52346 8.54341C4.45485 8.46049 4.45485 8.46049 4.37703 8.34459C4.33408 8.28116 4.33408 8.28116 4.29026 8.21645C4.26042 8.17163 4.23059 8.12682 4.19985 8.08064C4.17081 8.03762 4.14178 7.9946 4.11187 7.95028C3.99644 7.77902 3.88193 7.60716 3.76765 7.43513C3.6146 7.20486 3.4591 6.97686 3.3002 6.75059C2.85675 6.11327 2.85675 6.11327 2.81478 5.85094C2.78061 5.85094 2.74643 5.85094 2.71123 5.85094C2.6866 5.80458 2.6866 5.80458 2.66147 5.75729C2.49718 5.45186 2.32527 5.15232 2.14814 4.85421C1.76294 4.20316 1.42102 3.53845 1.1041 2.85172C1.05608 2.74805 1.00749 2.64467 0.958654 2.54138C0.685571 1.96324 0.426303 1.38182 0.20969 0.779909C0.196504 0.743775 0.183318 0.707641 0.169732 0.670412C0.0909974 0.446522 0.0449101 0.235982 0.0187582 0ZM5.47974 44.5938C4.55782 45.6222 4.19823 46.9252 4.25562 48.2809C4.27566 48.5759 4.33706 48.8537 4.41991 49.1375C4.43312 49.188 4.44634 49.2384 4.45995 49.2904C4.64838 49.9369 5.02893 50.6279 5.50725 51.1051C5.54142 51.1051 5.5756 51.1051 5.61081 51.1051C5.61081 51.1393 5.61081 51.1734 5.61081 51.2087C5.64498 51.2087 5.67915 51.2087 5.71436 51.2087C5.71436 51.2428 5.71436 51.277 5.71436 51.3122C5.74854 51.3122 5.78271 51.3122 5.81792 51.3122C5.835 51.3635 5.85209 51.4147 5.8697 51.4675C5.90387 51.4675 5.93804 51.4675 5.97325 51.4675C5.97325 51.5017 5.97325 51.5359 5.97325 51.5711C6.08834 51.6522 6.20299 51.7273 6.32276 51.8009C6.38833 51.8417 6.45387 51.8826 6.51935 51.9236C6.56655 51.953 6.56655 51.953 6.6147 51.9829C6.69815 52.0371 6.69815 52.0371 6.79948 52.1198C7.08343 52.3147 7.45952 52.3974 7.78549 52.5031C7.83835 52.5211 7.89121 52.5392 7.94568 52.5577C8.33832 52.671 8.72845 52.6743 9.13496 52.6779C9.19132 52.6786 9.24768 52.6793 9.30575 52.6801C9.69972 52.6777 10.0494 52.6162 10.4262 52.5031C10.467 52.4909 10.5078 52.4788 10.5498 52.4662C10.9978 52.3264 11.3993 52.1722 11.7724 51.8818C11.8271 51.8423 11.8819 51.8029 11.9383 51.7622C12.1704 51.5947 12.1704 51.5947 12.3938 51.4158C12.3938 51.3816 12.3938 51.3474 12.3938 51.3122C12.4279 51.3122 12.4621 51.3122 12.4973 51.3122C12.4973 51.278 12.4973 51.2439 12.4973 51.2087C12.5315 51.2087 12.5657 51.2087 12.6009 51.2087C12.6009 51.1745 12.6009 51.1403 12.6009 51.1051C12.6521 51.088 12.7034 51.0709 12.7562 51.0533C13.089 50.68 13.328 50.2654 13.5329 49.8106C13.5487 49.7766 13.5645 49.7426 13.5808 49.7075C14.0228 48.7238 14.0918 47.5834 13.7918 46.5486C13.7773 46.4963 13.7629 46.444 13.7481 46.39C13.625 45.9828 13.4347 45.6215 13.2222 45.2542C13.195 45.205 13.1679 45.1558 13.1399 45.1051C13.1158 45.0689 13.0917 45.0326 13.0669 44.9953C13.0327 44.9953 12.9985 44.9953 12.9633 44.9953C12.9518 44.9586 12.9404 44.922 12.9285 44.8842C12.8446 44.7037 12.7283 44.5793 12.5879 44.4419C12.5604 44.4149 12.5329 44.3879 12.5045 44.3601C11.7599 43.6482 10.8779 43.1878 9.85662 43.0277C9.80729 43.0182 9.75797 43.0087 9.70715 42.999C8.09332 42.7681 6.59051 43.4463 5.47974 44.5938ZM60.4439 43.8044C60.4439 43.8385 60.4439 43.8727 60.4439 43.9079C60.4151 43.9218 60.3863 43.9357 60.3566 43.95C60.2258 44.0171 60.1003 44.0853 59.9779 44.1668C59.9779 44.201 59.9779 44.2352 59.9779 44.2704C59.9438 44.2704 59.9096 44.2704 59.8744 44.2704C59.7881 44.3394 59.7881 44.3394 59.719 44.4257C59.719 44.4599 59.719 44.4941 59.719 44.5293C59.6849 44.5293 59.6507 44.5293 59.6155 44.5293C59.6155 44.5634 59.6155 44.5976 59.6155 44.6328C59.5813 44.6328 59.5471 44.6328 59.5119 44.6328C59.4257 44.7454 59.3467 44.8574 59.2692 44.9759C59.2461 45.011 59.2231 45.0462 59.1993 45.0824C58.4832 46.1936 58.1765 47.4716 58.441 48.7848C58.6661 49.7109 59.0713 50.4824 59.7093 51.1892C59.7342 51.2169 59.7591 51.2445 59.7847 51.273C59.8469 51.34 59.9122 51.4041 59.9779 51.4675C60.0121 51.4675 60.0463 51.4675 60.0815 51.4675C60.0815 51.5017 60.0815 51.5359 60.0815 51.5711C61.1762 52.4775 62.4697 52.7483 63.8613 52.6584C64.1488 52.6223 64.4157 52.5457 64.6897 52.4513C64.7478 52.4326 64.8059 52.4138 64.8657 52.3945C65.6848 52.1075 66.4972 51.5479 67.0198 50.8462C67.0198 50.812 67.0198 50.7779 67.0198 50.7427C67.0539 50.7427 67.0881 50.7427 67.1233 50.7427C67.1727 50.6563 67.2221 50.57 67.2714 50.4836C67.3084 50.4187 67.3456 50.3539 67.383 50.2892C68.0545 49.1197 68.1805 47.9075 67.9 46.6004C67.89 46.5536 67.88 46.5068 67.8697 46.4586C67.6915 45.7703 67.2815 45.0118 66.7609 44.5293C66.6667 44.432 66.5726 44.3346 66.4787 44.237C66.4032 44.1555 66.4032 44.1555 66.2949 44.1668C66.2949 44.1326 66.2949 44.0985 66.2949 44.0633C65.5998 43.517 64.8358 43.171 63.9649 43.0277C63.9152 43.0182 63.8655 43.0087 63.8144 42.999C62.6109 42.8258 61.4719 43.201 60.4439 43.8044Z" fill="#C8AD72"/>
<path d="M31.45 0.297563C31.4916 0.297364 31.5333 0.297166 31.5761 0.296962C31.7155 0.296428 31.8548 0.296634 31.9941 0.29684C32.094 0.296615 32.194 0.296346 32.2939 0.296038C32.5653 0.295344 32.8367 0.295314 33.1081 0.295446C33.3347 0.295501 33.5613 0.295248 33.7879 0.295C34.3225 0.294425 34.8571 0.294403 35.3917 0.294716C35.9432 0.295029 36.4946 0.294391 37.0461 0.293288C37.5196 0.292376 37.9931 0.292066 38.4666 0.292234C38.7494 0.292328 39.0321 0.292191 39.3149 0.291472C39.5809 0.290821 39.8468 0.290921 40.1128 0.291597C40.2103 0.29172 40.3079 0.291578 40.4054 0.291151C40.5387 0.290609 40.672 0.291028 40.8053 0.291684C40.8438 0.291303 40.8822 0.290921 40.9218 0.290527C41.3109 0.294549 41.5948 0.431365 41.8784 0.692116C42.1613 0.989194 42.2368 1.35406 42.3394 1.74052C42.3797 1.8869 42.4234 2.03212 42.4672 2.1775C42.5007 2.29104 42.5342 2.40457 42.5677 2.51811C42.5841 2.57176 42.6006 2.62542 42.6176 2.6807C42.7613 3.17614 42.8363 3.67098 42.5905 4.14447C42.3971 4.46346 42.1921 4.61376 41.8557 4.76399C41.7715 4.80688 41.6873 4.85004 41.6033 4.89343C41.4363 4.97707 41.2694 5.05239 41.0952 5.11996C40.8785 5.20423 40.6679 5.299 40.4577 5.39827C40.1712 5.5335 39.8834 5.66494 39.5937 5.79308C39.2448 5.94744 38.8964 6.10268 38.5484 6.25908C38.5044 6.27883 38.4603 6.29858 38.415 6.31893C38.3737 6.33749 38.3324 6.35605 38.2899 6.37518C38.2535 6.39152 38.2172 6.40787 38.1797 6.42471C38.0749 6.47312 37.9718 6.52407 37.8688 6.57622C37.9316 6.57752 37.9945 6.57882 38.0592 6.58016C38.2967 6.5851 38.5342 6.59027 38.7717 6.5955C38.8737 6.59772 38.9756 6.59988 39.0776 6.60197C39.7113 6.61505 40.3431 6.63677 40.9755 6.67978C41.1097 6.94208 41.2345 7.20428 41.3412 7.47911C41.3561 7.51751 41.371 7.55591 41.3864 7.59548C41.628 8.231 41.8335 8.88014 42.0458 9.52589C42.1444 9.82557 42.2444 10.1248 42.3444 10.424C42.3904 10.5621 42.4365 10.7003 42.4825 10.8385C42.5158 10.9383 42.5492 11.038 42.5827 11.1377C42.6721 11.4047 42.7597 11.6717 42.8395 11.9417C42.9123 12.1805 42.9955 12.4099 43.0909 12.6403C43.1708 12.8415 43.2431 13.0451 43.3152 13.2491C43.3288 13.2874 43.3424 13.3256 43.3564 13.365C43.4159 13.5344 43.471 13.7023 43.5126 13.877C43.4272 13.9111 43.3418 13.9453 43.2537 13.9805C43.2537 14.0147 43.2537 14.0489 43.2537 14.0841C43.1733 14.1415 43.1733 14.1415 43.0604 14.2042C43.0192 14.2275 42.9779 14.2507 42.9355 14.2747C42.891 14.2993 42.8465 14.324 42.8007 14.3494C42.4527 14.5461 42.1182 14.7504 41.7884 14.9762C41.6024 15.0981 41.4083 15.2008 41.2121 15.3051C41.0493 15.395 40.897 15.496 40.7435 15.6008C40.5786 15.7125 40.4116 15.8208 40.2441 15.9287C40.2144 15.9479 40.1847 15.9672 40.1541 15.9871C39.9793 16.0996 39.8019 16.2049 39.6207 16.3071C39.5169 16.3674 39.4157 16.4311 39.3145 16.4958C39.2613 16.5298 39.2613 16.5298 39.2069 16.5646C39.1337 16.6116 39.0607 16.6588 38.9877 16.7061C38.9525 16.7286 38.9172 16.751 38.8809 16.7741C38.8335 16.8047 38.8335 16.8047 38.7852 16.8358C38.6973 16.8801 38.6973 16.8801 38.5419 16.8801C38.5419 16.9143 38.5419 16.9484 38.5419 16.9836C38.426 17.0603 38.426 17.0603 38.2668 17.1487C38.0576 17.2673 37.8511 17.3876 37.6487 17.5176C37.6031 17.5468 37.5574 17.5761 37.5104 17.6062C37.4229 17.6624 37.3354 17.7186 37.248 17.7749C37.1358 17.847 37.0234 17.9186 36.9109 17.9901C36.8569 18.025 36.8569 18.025 36.8018 18.0606C36.5402 18.2263 36.5402 18.2263 36.3672 18.2263C36.3672 18.2605 36.3672 18.2947 36.3672 18.3299C36.1529 18.4906 36.1529 18.4906 36.0139 18.4737C35.61 18.3294 35.2417 18.0482 34.8827 17.8167C34.6068 17.6436 34.3264 17.478 34.0459 17.3125C33.8516 17.197 33.6612 17.0806 33.4784 16.9476C33.338 16.8468 33.2034 16.7646 33.0502 16.6859C32.7946 16.5496 32.5521 16.3977 32.3102 16.2388C32.0183 16.0484 31.7176 15.8741 31.4138 15.7034C31.3201 15.6497 31.2286 15.5921 31.1376 15.5339C31.1376 15.4997 31.1376 15.4655 31.1376 15.4303C31.1094 15.4255 31.0812 15.4207 31.0521 15.4157C30.8954 15.3678 30.7788 15.2878 30.6425 15.1973C30.4942 15.0991 30.3746 15.0206 30.2056 14.9643C30.2056 14.9301 30.2056 14.8959 30.2056 14.8607C30.1618 14.8522 30.1618 14.8522 30.1172 14.8434C29.9811 14.8039 29.8783 14.7452 29.7572 14.6716C29.6892 14.6305 29.6892 14.6305 29.6198 14.5886C29.5494 14.5455 29.5494 14.5455 29.4775 14.5015C29.4303 14.473 29.3832 14.4445 29.3346 14.4151C29.1569 14.3073 28.9805 14.1993 28.8076 14.0841C28.8882 13.7168 29.0171 13.3756 29.1539 13.0258C29.177 12.9662 29.2002 12.9065 29.224 12.845C29.3673 12.4768 29.5148 12.1107 29.667 11.7462C29.7791 11.4765 29.883 11.2044 29.9845 10.9306C30.1977 10.3559 30.4197 9.78501 30.6587 9.22055C30.7376 9.02674 30.8097 8.83078 30.882 8.63441C31.0358 8.21693 31.0358 8.21693 31.1376 8.02601C31.2489 7.81554 31.3261 7.59471 31.4076 7.3713C31.555 6.97251 31.7188 6.58043 31.8819 6.18789C31.8963 6.1534 31.9106 6.11892 31.9254 6.08339C32.0078 5.88514 32.0904 5.68698 32.1732 5.48888C32.1285 5.47893 32.1285 5.47893 32.0829 5.46878C31.9659 5.43706 31.8641 5.39519 31.7541 5.34447C31.5816 5.26617 31.4083 5.19103 31.2331 5.11875C31.1876 5.09979 31.1422 5.08084 31.0954 5.06131C31.0029 5.0228 30.9102 4.98464 30.8175 4.94683C30.3449 4.74837 29.8603 4.50724 29.6314 4.02332C29.3884 3.30375 29.7336 2.50816 29.9473 1.82257C30.0063 1.63225 30.0617 1.44101 30.1161 1.24935C30.2485 0.863908 30.5195 0.542902 30.8846 0.359713C31.0745 0.297898 31.2526 0.296564 31.45 0.297563Z" fill="#C8B67B"/>
<path d="M37.9204 42.3544C37.9204 42.3885 37.9204 42.4227 37.9204 42.4579C37.9556 42.4686 37.9908 42.4793 38.0272 42.4903C38.6604 42.7867 39.0295 43.489 39.2666 44.1148C39.5405 45.0022 39.4029 45.9363 38.9883 46.749C38.6355 47.368 38.076 47.8914 37.4026 48.1535C37.3655 48.1682 37.3285 48.1829 37.2903 48.198C36.4732 48.4962 35.5417 48.4176 34.755 48.0722C34.5359 47.963 34.3373 47.8327 34.1406 47.6875C34.0829 47.6477 34.0829 47.6477 34.0241 47.607C33.9942 47.5823 33.9642 47.5576 33.9334 47.5322C33.9334 47.498 33.9334 47.4638 33.9334 47.4286C33.8993 47.4286 33.8651 47.4286 33.8299 47.4286C33.8299 47.3945 33.8299 47.3603 33.8299 47.3251C33.753 47.2995 33.753 47.2995 33.6746 47.2733C32.9901 46.5276 32.8992 45.5596 32.9355 44.5974C32.9806 44.0507 33.2345 43.5582 33.571 43.131C33.5952 43.0991 33.6195 43.0671 33.6444 43.0342C33.7028 42.96 33.7659 42.8897 33.8299 42.8204C33.8641 42.8204 33.8982 42.8204 33.9334 42.8204C33.9334 42.7862 33.9334 42.752 33.9334 42.7168C33.9676 42.7168 34.0018 42.7168 34.037 42.7168C34.037 42.6826 34.037 42.6485 34.037 42.6133C35.128 41.6999 36.7172 41.6487 37.9204 42.3544Z" fill="#C7A76C"/>
</svg>
