<svg width="112" height="38" viewBox="0 0 112 38" fill="none" xmlns="http://www.w3.org/2000/svg">
<path d="M0.0124972 0C0.233007 0.11644 0.446055 0.239593 0.65539 0.375009C0.810434 0.47315 0.96761 0.567562 1.12499 0.661892C1.15438 0.679529 1.18377 0.697166 1.21406 0.715338C1.37596 0.812211 1.53862 0.907422 1.7028 1.00038C1.7028 1.02315 1.7028 1.04592 1.7028 1.06938C1.7269 1.07836 1.751 1.08734 1.77584 1.0966C2.13469 1.24733 2.46628 1.47967 2.79295 1.68901C2.81962 1.70607 2.8463 1.72313 2.87378 1.7407C2.89744 1.75593 2.9211 1.77115 2.94548 1.78684C3.01265 1.82768 3.08084 1.86318 3.15163 1.89728C3.15163 1.92005 3.15163 1.94282 3.15163 1.96627C3.17129 1.9702 3.19094 1.97413 3.21119 1.97818C3.29821 2.00324 3.36328 2.03927 3.44067 2.0862C3.46944 2.10354 3.4982 2.12089 3.52783 2.13875C3.55808 2.15725 3.58832 2.17575 3.61949 2.19481C3.65047 2.21357 3.68145 2.23234 3.71337 2.25167C3.90476 2.36796 4.09454 2.48642 4.28273 2.60782C4.38666 2.67374 4.49289 2.73441 4.60047 2.79418C4.60047 2.81695 4.60047 2.83971 4.60047 2.86317C4.61821 2.86593 4.63595 2.86868 4.65423 2.87152C4.7744 2.90882 4.87566 2.97442 4.98208 3.03996C5.01658 3.06093 5.01658 3.06093 5.05179 3.08232C5.21657 3.18285 5.37943 3.28624 5.54156 3.39099C5.68226 3.47892 5.82706 3.55947 5.97209 3.64C5.99757 3.65686 6.02305 3.67371 6.0493 3.69107C6.0493 3.71384 6.0493 3.73661 6.0493 3.76007C6.06962 3.76443 6.08994 3.7688 6.11087 3.7733C6.23435 3.80766 6.33901 3.87785 6.44816 3.94333C6.47372 3.95851 6.49928 3.97369 6.52561 3.98933C6.80568 4.15675 7.08072 4.3321 7.35606 4.50715C7.64987 4.69337 7.94812 4.87235 8.24627 5.05151C8.27686 5.0699 8.30745 5.08829 8.33896 5.10723C8.36756 5.12437 8.39616 5.14151 8.42562 5.15918C8.45131 5.17458 8.47699 5.18999 8.50346 5.20586C8.54697 5.23136 8.5914 5.25534 8.6365 5.27789C8.6365 5.30066 8.6365 5.32343 8.6365 5.34688C8.65998 5.35547 8.68346 5.36405 8.70765 5.37289C8.82738 5.42368 8.93828 5.48639 9.05045 5.5517C9.07126 5.56369 9.09208 5.57567 9.11352 5.58802C9.17311 5.62241 9.23252 5.65712 9.29193 5.69184C9.32537 5.71039 9.3588 5.72893 9.39326 5.74803C9.41674 5.76364 9.44022 5.77925 9.46441 5.79533C9.46441 5.8181 9.46441 5.84087 9.46441 5.86432C9.48472 5.8687 9.50503 5.87308 9.52595 5.87759C9.64513 5.91069 9.7466 5.97666 9.85249 6.03896C9.8749 6.05197 9.89731 6.06497 9.9204 6.07837C9.97547 6.11036 10.0304 6.14255 10.0853 6.17479C10.0853 6.19756 10.0853 6.22032 10.0853 6.24378C10.105 6.24771 10.1246 6.25164 10.1449 6.25569C10.2319 6.28075 10.297 6.31677 10.3744 6.36371C10.4031 6.38102 10.4318 6.39834 10.4614 6.41618C10.4917 6.43471 10.522 6.45323 10.5532 6.47232C10.5845 6.49131 10.6158 6.5103 10.6481 6.52986C10.829 6.63979 11.0086 6.75138 11.1865 6.86606C11.3699 6.98288 11.5552 7.09654 11.7402 7.21081C11.9235 7.32407 12.1063 7.4379 12.2888 7.55247C12.5828 7.7369 12.8797 7.9167 13.1764 8.09686C13.325 8.18717 13.4732 8.27814 13.6212 8.3696C13.7634 8.45737 13.9065 8.54256 14.0524 8.62401C14.0524 8.64677 14.0524 8.66954 14.0524 8.693C14.0819 8.70162 14.1115 8.71025 14.142 8.71914C14.2676 8.76501 14.3687 8.82393 14.4814 8.89566C14.6355 8.99278 14.7902 9.08716 14.9493 9.17594C14.9493 9.19871 14.9493 9.22148 14.9493 9.24493C14.9696 9.24931 14.9899 9.25369 15.0108 9.2582C15.13 9.2913 15.2315 9.35727 15.3374 9.41957C15.3598 9.43258 15.3822 9.44558 15.4053 9.45898C15.4603 9.49097 15.5153 9.52316 15.5702 9.5554C15.5702 9.57817 15.5702 9.60093 15.5702 9.62439C15.6054 9.63726 15.6054 9.63726 15.6413 9.6504C15.7611 9.70119 15.872 9.76389 15.9842 9.82921C16.005 9.84119 16.0258 9.85318 16.0472 9.86553C16.1068 9.89992 16.1662 9.93463 16.2256 9.96935C16.2591 9.98789 16.2925 10.0064 16.327 10.0255C16.3504 10.0411 16.3739 10.0568 16.3981 10.0728C16.3981 10.0956 16.3981 10.1184 16.3981 10.1418C16.4182 10.146 16.4382 10.1503 16.4589 10.1546C16.5379 10.1768 16.5965 10.2062 16.6669 10.2479C16.6913 10.2623 16.7158 10.2766 16.7409 10.2915C16.7665 10.3068 16.7921 10.3222 16.8185 10.338C16.8451 10.3538 16.8717 10.3696 16.899 10.3859C17.0512 10.4768 17.2 10.5709 17.3463 10.671C17.5478 10.8041 17.756 10.9269 17.9624 11.0522C18.1288 11.1532 18.2951 11.2544 18.4614 11.3557C18.4953 11.3763 18.5293 11.397 18.5643 11.4183C19.2062 11.809 19.2062 11.809 19.4855 11.9874C19.7966 12.186 20.1089 12.3817 20.4341 12.5566C20.4341 12.5793 20.4341 12.6021 20.4341 12.6255C20.4616 12.6304 20.4616 12.6304 20.4897 12.6354C20.5992 12.6681 20.689 12.7213 20.7877 12.7786C20.8249 12.7999 20.8621 12.8212 20.9004 12.8432C20.9287 12.8624 20.9569 12.8817 20.9861 12.9015C20.9861 12.9243 20.9861 12.947 20.9861 12.9705C21.0064 12.9748 21.0267 12.9791 21.0477 12.9836C21.1689 13.0176 21.2701 13.088 21.3763 13.1538C21.4207 13.181 21.4651 13.2081 21.5096 13.2353C21.5313 13.2486 21.5529 13.2618 21.5753 13.2755C21.6768 13.3367 21.7798 13.3951 21.883 13.4534C21.883 13.4762 21.883 13.499 21.883 13.5224C21.903 13.5266 21.923 13.5307 21.9436 13.5349C22.0248 13.558 22.083 13.5891 22.1545 13.6336C22.1798 13.6492 22.2051 13.6648 22.2311 13.6809C22.2578 13.6976 22.2845 13.7143 22.312 13.7316C22.3396 13.7486 22.3671 13.7657 22.3955 13.7833C22.4777 13.8342 22.5598 13.8853 22.6419 13.9364C22.7245 13.9875 22.8071 14.0385 22.8898 14.0895C22.925 14.1111 22.9601 14.1328 22.9963 14.1551C23.1069 14.2225 23.2187 14.2872 23.3318 14.3503C23.3318 14.3731 23.3318 14.3959 23.3318 14.4193C23.3507 14.4226 23.3697 14.4259 23.3892 14.4293C23.4912 14.4604 23.5664 14.5113 23.6552 14.5703C23.8475 14.7004 23.8475 14.7004 24.0562 14.7988C24.493 14.66 24.9338 14.3269 25.3056 14.0652C25.4016 14.0054 25.4016 14.0054 25.5051 14.0054C25.5051 13.9826 25.5051 13.9598 25.5051 13.9364C25.5272 13.9247 25.5494 13.9129 25.5723 13.9008C25.9283 13.7098 26.2687 13.4951 26.6091 13.2777C26.9364 13.0695 27.2659 12.865 27.5992 12.6664C27.7551 12.5732 27.9084 12.4765 28.0611 12.3781C28.2064 12.2866 28.354 12.199 28.5019 12.1118C28.5903 12.0593 28.6754 12.0072 28.7564 11.9437C28.8167 11.9011 28.8167 11.9011 28.9202 11.9011C28.9202 11.8784 28.9202 11.8556 28.9202 11.8321C28.9474 11.817 28.9747 11.8019 29.0028 11.7863C29.4028 11.5614 29.7989 11.3243 30.175 11.0608C30.2655 11.0042 30.2655 11.0042 30.369 11.0042C30.369 10.9815 30.369 10.9587 30.369 10.9352C30.4465 10.8898 30.5241 10.8445 30.6018 10.7994C30.6237 10.7865 30.6456 10.7737 30.6681 10.7604C30.7748 10.6988 30.8697 10.6507 30.9899 10.6248C30.9899 10.602 30.9899 10.5792 30.9899 10.5558C31.0586 10.5096 31.0586 10.5096 31.1581 10.4545C31.3477 10.3469 31.5348 10.2362 31.7208 10.1224C31.7611 10.0978 31.7611 10.0978 31.8023 10.0726C31.9592 9.97633 32.1144 9.87838 32.2656 9.77329C32.3441 9.72212 32.4251 9.67613 32.5066 9.62999C32.6433 9.55181 32.7781 9.47041 32.9131 9.38939C32.9591 9.36179 32.9591 9.36179 33.006 9.33363C33.1913 9.22211 33.3751 9.10873 33.5569 8.99147C33.6998 8.90015 33.8448 8.81217 33.9896 8.72386C34.0627 8.67836 34.1344 8.63064 34.2049 8.58129C34.3015 8.52052 34.3015 8.52052 34.405 8.52052C34.405 8.49775 34.405 8.47498 34.405 8.45152C34.4363 8.434 34.4675 8.41648 34.4998 8.39843C34.7079 8.28111 34.9125 8.16252 35.11 8.02787C35.2346 7.94434 35.3607 7.86351 35.4873 7.78316C35.5237 7.75969 35.5237 7.75969 35.5608 7.73575C35.7385 7.62362 35.7385 7.62362 35.8539 7.62362C35.8539 7.60085 35.8539 7.57809 35.8539 7.55463C35.8811 7.53951 35.9084 7.52439 35.9365 7.50881C36.3365 7.28386 36.7326 7.04682 37.1087 6.78332C37.1992 6.72672 37.1992 6.72672 37.3027 6.72672C37.3027 6.70396 37.3027 6.68119 37.3027 6.65773C37.3496 6.63145 37.3496 6.63145 37.3974 6.60464C37.6163 6.48117 37.8307 6.35728 38.0351 6.21036C38.0961 6.17479 38.0961 6.17479 38.1996 6.17479C38.1996 6.15202 38.1996 6.12925 38.1996 6.1058C38.2341 6.08751 38.2341 6.08751 38.2694 6.06886C38.5045 5.94278 38.7302 5.80648 38.9542 5.66166C39.0204 5.61924 39.0867 5.57684 39.1529 5.53446C39.1846 5.51418 39.2162 5.4939 39.2488 5.47301C39.3667 5.39748 39.4846 5.3221 39.6031 5.24771C39.6367 5.22645 39.6703 5.2052 39.7049 5.1833C39.7864 5.13991 39.7864 5.13991 39.8899 5.13991C39.8899 5.11714 39.8899 5.09437 39.8899 5.07092C39.9671 5.01984 39.9671 5.01984 40.0732 4.96096C40.2126 4.8819 40.3501 4.80179 40.485 4.71517C40.5154 4.6957 40.5458 4.67622 40.5771 4.65615C40.6354 4.61872 40.6937 4.58126 40.752 4.54374C40.8267 4.49573 40.9016 4.44805 40.9765 4.4004C41.0005 4.38489 41.0245 4.36938 41.0492 4.3534C41.2235 4.24301 41.2235 4.24301 41.3387 4.24301C41.3387 4.22024 41.3387 4.19748 41.3387 4.17402C41.4099 4.12659 41.4099 4.12659 41.5112 4.07053C41.6871 3.97088 41.8596 3.86757 42.0308 3.76007C42.0542 3.74544 42.0776 3.73082 42.1016 3.71575C42.2085 3.64869 42.315 3.58111 42.4205 3.51186C42.4541 3.48989 42.4877 3.46792 42.5224 3.44529C42.5514 3.42599 42.5804 3.40669 42.6104 3.38681C42.6841 3.34611 42.6841 3.34611 42.7876 3.34611C42.7876 3.32335 42.7876 3.30058 42.7876 3.27712C42.8188 3.2596 42.8501 3.24208 42.8823 3.22403C43.1012 3.10056 43.3156 2.97667 43.5199 2.82975C43.581 2.79418 43.581 2.79418 43.6845 2.79418C43.6845 2.77141 43.6845 2.74864 43.6845 2.72519C43.7592 2.67533 43.7592 2.67533 43.8634 2.61739C43.9013 2.59586 43.9393 2.57434 43.9783 2.55217C44.0082 2.53526 44.0082 2.53526 44.0387 2.51801C44.2563 2.39306 44.4693 2.25921 44.6789 2.12124C44.7008 2.10691 44.7226 2.09259 44.7452 2.07783C44.7875 2.04998 44.8297 2.02193 44.8718 1.99364C45.0184 1.89728 45.0184 1.89728 45.1333 1.89728C45.1333 1.87451 45.1333 1.85175 45.1333 1.82829C45.1587 1.81495 45.1841 1.80161 45.2102 1.78786C45.4123 1.68201 45.4123 1.68201 45.599 1.55232C45.6828 1.48524 45.7632 1.43899 45.8577 1.38846C46.228 1.19051 46.579 0.959 46.9336 0.734472C47.0981 0.630447 47.2632 0.52797 47.4308 0.42891C47.5737 0.343503 47.7146 0.254848 47.8558 0.166686C47.9581 0.105791 48.0618 0.0518117 48.1689 0C48.1463 0.172027 48.0982 0.325038 48.0396 0.487256C48.0272 0.522608 48.0272 0.522608 48.0145 0.558674C47.8864 0.918012 47.7311 1.26631 47.5717 1.61269C47.5552 1.64871 47.5386 1.68473 47.5215 1.72184C47.2939 2.21468 47.045 2.69497 46.7891 3.17363C46.7663 3.17363 46.7436 3.17363 46.7201 3.17363C46.7168 3.19827 46.7134 3.2229 46.71 3.24829C46.6818 3.36127 46.636 3.43493 46.5713 3.53153C46.4692 3.68646 46.4692 3.68646 46.3751 3.84631C46.2964 3.98776 46.2074 4.12267 46.1194 4.25851C46.0734 4.3325 46.0329 4.40582 45.9957 4.48448C45.9729 4.48448 45.9502 4.48448 45.9267 4.48448C45.9188 4.51374 45.911 4.543 45.9028 4.57315C45.8508 4.70957 45.7756 4.81422 45.6874 4.92862C45.6527 4.9746 45.6181 5.02064 45.5836 5.06674C45.5572 5.10203 45.5572 5.10203 45.5302 5.13804C45.4486 5.24933 45.372 5.36389 45.295 5.4784C45.1334 5.71721 44.9595 5.94493 44.7804 6.17085C44.6946 6.27933 44.6111 6.38641 44.537 6.50331C44.5175 6.5315 44.498 6.55969 44.4779 6.58874C44.4551 6.58874 44.4323 6.58874 44.4089 6.58874C44.3957 6.61789 44.3957 6.61789 44.3823 6.64763C44.3342 6.73729 44.2772 6.80973 44.2127 6.88842C44.0956 7.03191 43.9828 7.1778 43.8723 7.32636C43.8558 7.34477 43.8394 7.36318 43.8224 7.38215C43.7997 7.38215 43.7769 7.38215 43.7534 7.38215C43.7406 7.4107 43.7406 7.4107 43.7276 7.43982C43.6761 7.5357 43.6142 7.61608 43.5465 7.70124C43.5223 7.73201 43.4981 7.76278 43.4732 7.79448C43.4518 7.81778 43.4305 7.84109 43.4085 7.86509C43.3857 7.86509 43.363 7.86509 43.3395 7.86509C43.3395 7.88786 43.3395 7.91063 43.3395 7.93408C43.3167 7.93408 43.294 7.93408 43.2705 7.93408C43.2611 7.9546 43.2517 7.97512 43.242 7.99625C43.2026 8.07 43.1628 8.12092 43.1054 8.18122C43.0871 8.20069 43.0688 8.22017 43.05 8.24024C43.031 8.26016 43.012 8.28008 42.9924 8.3006C42.8577 8.43404 42.8577 8.43404 42.7531 8.58951C42.7303 8.58951 42.7075 8.58951 42.6841 8.58951C42.6702 8.62046 42.6702 8.62046 42.656 8.65203C42.6151 8.72744 42.5773 8.77625 42.5116 8.83098C42.4888 8.83098 42.4661 8.83098 42.4426 8.83098C42.4337 8.85073 42.4248 8.87047 42.4156 8.89081C42.3697 8.97625 42.3167 9.04258 42.2529 9.11557C42.2214 9.15213 42.2214 9.15213 42.1893 9.18942C42.1321 9.24493 42.1321 9.24493 42.0631 9.24493C42.0631 9.2677 42.0631 9.29047 42.0631 9.31393C42.0157 9.36998 42.0157 9.36998 41.9597 9.41741C41.9369 9.41741 41.9141 9.41741 41.8907 9.41741C41.8907 9.44018 41.8907 9.46295 41.8907 9.48641C41.8679 9.48641 41.8451 9.48641 41.8217 9.48641C41.8217 9.50917 41.8217 9.53194 41.8217 9.5554C41.7742 9.61145 41.7742 9.61145 41.7182 9.65889C41.6954 9.65889 41.6726 9.65889 41.6492 9.65889C41.6492 9.68165 41.6492 9.70442 41.6492 9.72788C41.6264 9.72788 41.6037 9.72788 41.5802 9.72788C41.5802 9.75065 41.5802 9.77341 41.5802 9.79687C41.5328 9.85293 41.5328 9.85293 41.4767 9.90036C41.4539 9.90036 41.4312 9.90036 41.4077 9.90036C41.4077 9.92313 41.4077 9.94589 41.4077 9.96935C41.3522 10.0265 41.3522 10.0265 41.2784 10.0901C41.2543 10.1111 41.2303 10.1321 41.2056 10.1537C41.1317 10.2108 41.1317 10.2108 41.0579 10.2442C40.9893 10.2744 40.9893 10.2744 40.9636 10.3407C40.9057 10.4556 40.8121 10.5314 40.7178 10.6161C40.6989 10.6336 40.6801 10.6511 40.6607 10.6691C40.5197 10.7973 40.5197 10.7973 40.4418 10.7973C40.4418 10.82 40.4418 10.8428 40.4418 10.8662C40.4191 10.8662 40.3963 10.8662 40.3728 10.8662C40.3728 10.889 40.3728 10.9118 40.3728 10.9352C40.3323 10.948 40.3323 10.948 40.2909 10.9611C40.1836 11.0122 40.1816 11.0397 40.1314 11.1422C40.0808 11.1953 40.0808 11.1953 40.0226 11.245C40.0015 11.2631 39.9804 11.2812 39.9587 11.2998C39.9367 11.3182 39.9147 11.3367 39.892 11.3557C39.8593 11.3839 39.8593 11.3839 39.8258 11.4127C39.6622 11.5516 39.6622 11.5516 39.5449 11.5907C39.5449 11.6134 39.5449 11.6362 39.5449 11.6597C39.4742 11.7183 39.4033 11.7735 39.3293 11.8278C39.1964 11.9263 39.0743 12.0239 38.9585 12.1426C38.9061 12.1866 38.8529 12.2298 38.799 12.272C38.7722 12.2931 38.7454 12.3143 38.7178 12.3361C38.648 12.3841 38.648 12.3841 38.579 12.3841C38.579 12.4068 38.579 12.4296 38.579 12.4531C38.5121 12.5113 38.4448 12.5654 38.3742 12.6191C38.353 12.6354 38.3318 12.6518 38.3099 12.6686C38.2637 12.7042 38.2174 12.7397 38.171 12.7751C38.0923 12.8354 38.0141 12.8963 37.9359 12.9573C37.8829 12.9984 37.83 13.0394 37.777 13.0805C37.7515 13.1004 37.7261 13.1202 37.6998 13.1407C37.676 13.159 37.6522 13.1773 37.6277 13.1962C37.6066 13.2126 37.5854 13.229 37.5637 13.2458C37.5097 13.281 37.5097 13.281 37.4407 13.281C37.4407 13.3037 37.4407 13.3265 37.4407 13.35C37.389 13.3941 37.389 13.3941 37.3172 13.4436C37.2914 13.4616 37.2656 13.4796 37.239 13.4981C37.1979 13.5262 37.1979 13.5262 37.1561 13.5548C37.1027 13.5917 37.0494 13.6287 36.996 13.6657C36.9722 13.682 36.9483 13.6984 36.9237 13.7153C36.875 13.7494 36.8274 13.785 36.7807 13.8218C36.7163 13.8674 36.7163 13.8674 36.6473 13.8674C36.6473 13.8902 36.6473 13.9129 36.6473 13.9364C36.5893 13.9837 36.5893 13.9837 36.5087 14.0376C36.4798 14.0571 36.4508 14.0767 36.421 14.0968C36.3904 14.1172 36.3597 14.1375 36.3282 14.1585C36.2683 14.1986 36.2085 14.2388 36.1487 14.2791C36.122 14.2969 36.0952 14.3147 36.0677 14.333C35.991 14.384 35.991 14.384 35.9195 14.4432C35.8539 14.4883 35.8539 14.4883 35.7504 14.4883C35.7504 14.5111 35.7504 14.5339 35.7504 14.5573C35.6883 14.6024 35.6237 14.6441 35.5585 14.6845C35.514 14.7124 35.4695 14.7404 35.4251 14.7683C35.4002 14.784 35.3752 14.7996 35.3495 14.8157C35.1924 14.9154 35.0371 15.018 34.8815 15.12C33.4723 16.0406 33.4723 16.0406 33.3357 16.0406C33.3357 16.0634 33.3357 16.0862 33.3357 16.1096C33.2926 16.1321 33.2495 16.1543 33.2063 16.1765C33.1703 16.1951 33.1703 16.1951 33.1335 16.2141C33.0631 16.2461 32.9972 16.266 32.9217 16.2821C32.9217 16.3049 32.9217 16.3277 32.9217 16.3511C32.8628 16.3797 32.8628 16.3797 32.8027 16.4088C32.6168 16.5017 32.4406 16.6097 32.2634 16.7182C32.2385 16.7331 32.2136 16.7481 32.188 16.7634C32.1546 16.7838 32.1546 16.7838 32.1205 16.8046C32.0593 16.8341 32.0593 16.8341 31.9558 16.8341C31.9558 16.8568 31.9558 16.8796 31.9558 16.903C31.9315 16.9148 31.9073 16.9265 31.8822 16.9386C31.5634 17.0951 31.2564 17.269 30.9508 17.45C30.7477 17.5702 30.5425 17.6799 30.3305 17.7836C30.2052 17.8476 30.0863 17.9198 29.9666 17.9934C29.8508 18.0624 29.7314 18.121 29.6101 18.1794C29.6101 18.2022 29.6101 18.2249 29.6101 18.2484C29.6414 18.2662 29.6727 18.284 29.7049 18.3023C29.7265 18.3147 29.7481 18.3271 29.7703 18.3399C29.8333 18.3759 29.8965 18.4115 29.9598 18.4469C30.0161 18.4788 30.0161 18.4788 30.0736 18.5114C30.1099 18.5318 30.1461 18.5522 30.1834 18.5731C30.2105 18.5912 30.2376 18.6093 30.2655 18.6279C30.2655 18.6506 30.2655 18.6734 30.2655 18.6968C30.2943 18.702 30.2943 18.702 30.3236 18.7072C30.4219 18.7369 30.4927 18.7843 30.5781 18.8413C30.7086 18.9264 30.8395 19.0053 30.977 19.0785C31.1247 19.1574 31.263 19.2442 31.401 19.3388C31.5025 19.4066 31.6076 19.4657 31.7143 19.5247C31.7143 19.5475 31.7143 19.5703 31.7143 19.5937C31.7342 19.5977 31.754 19.6017 31.7744 19.6059C31.8592 19.6302 31.9197 19.6637 31.9946 19.7102C32.0247 19.7287 32.0548 19.7472 32.0858 19.7662C32.1226 19.789 32.1594 19.8118 32.1973 19.8352C32.2455 19.8647 32.2938 19.8942 32.3421 19.9236C32.501 20.0204 32.6596 20.1175 32.8182 20.2147C32.8399 20.228 32.8616 20.2412 32.884 20.2549C33.0722 20.3701 33.2599 20.4859 33.4456 20.6049C33.7167 20.7781 33.9922 20.9444 34.267 21.1116C34.3684 21.1732 34.4697 21.2349 34.571 21.2965C34.6397 21.3383 34.7084 21.3801 34.7771 21.4219C34.9582 21.532 35.1389 21.6426 35.3192 21.7541C35.4614 21.8418 35.6044 21.927 35.7504 22.0085C35.7504 22.0312 35.7504 22.054 35.7504 22.0775C35.7686 22.0807 35.7869 22.0839 35.8058 22.0872C35.9164 22.1204 36.0063 22.1746 36.1061 22.2327C36.1272 22.2449 36.1484 22.2571 36.1701 22.2698C36.3447 22.3712 36.5175 22.4755 36.6902 22.58C36.8719 22.6894 37.0561 22.7938 37.2413 22.897C37.3808 22.9749 37.5189 23.0546 37.6563 23.136C37.8211 23.2329 37.9895 23.3184 38.161 23.4025C38.2769 23.4616 38.389 23.5256 38.5014 23.591C38.6941 23.703 38.8903 23.8049 39.0904 23.9031C39.2627 23.988 39.432 24.0776 39.601 24.1688C39.8184 24.2855 40.0376 24.3867 40.2657 24.4813C40.3569 24.5199 40.4444 24.5612 40.5324 24.6064C40.7928 24.7399 41.0621 24.8552 41.3293 24.9745C41.4253 25.0175 41.5211 25.0609 41.6169 25.1045C41.6454 25.1174 41.6739 25.1304 41.7032 25.1437C41.7625 25.1708 41.8217 25.1983 41.8808 25.2259C42.0686 25.3131 42.2568 25.3885 42.452 25.4573C42.5449 25.4921 42.6333 25.532 42.7229 25.5745C42.8824 25.6488 43.044 25.709 43.2101 25.7664C43.4626 25.8536 43.7104 25.9492 43.9577 26.0502C44.0371 26.0821 44.117 26.1129 44.1969 26.1437C44.9661 26.4413 45.6236 26.8327 46.2327 27.3939C46.3081 27.4635 46.3081 27.4635 46.4096 27.5278C46.4096 27.5506 46.4096 27.5734 46.4096 27.5968C46.4324 27.5968 46.4552 27.5968 46.4786 27.5968C46.5252 27.6497 46.5694 27.7047 46.6123 27.7607C46.6795 27.8481 46.7442 27.9316 46.8231 28.0089C47.7736 28.9778 48.191 30.5771 48.2081 31.8908C48.1975 32.8701 47.9781 33.9267 47.4569 34.7654C47.4033 34.8518 47.3556 34.9405 47.3087 35.0307C47.2077 35.2175 47.0987 35.4025 46.9616 35.5654C46.9388 35.5654 46.916 35.5654 46.8926 35.5654C46.8798 35.603 46.8798 35.603 46.8667 35.6413C46.8193 35.7475 46.7633 35.8177 46.6856 35.9039C46.6614 35.9311 46.6372 35.9584 46.6123 35.9865C46.5476 36.0483 46.5476 36.0483 46.4786 36.0483C46.4786 36.0711 46.4786 36.0939 46.4786 36.1173C46.4559 36.1173 46.4331 36.1173 46.4096 36.1173C46.3958 36.1504 46.3958 36.1504 46.3816 36.1842C46.3406 36.2553 46.3406 36.2553 46.2372 36.2898C46.2372 36.3126 46.2372 36.3354 46.2372 36.3588C46.2144 36.3588 46.1916 36.3588 46.1682 36.3588C46.1682 36.3816 46.1682 36.4043 46.1682 36.4278C46.0883 36.4941 46.0082 36.5563 45.9245 36.6175C45.8995 36.636 45.8744 36.6545 45.8486 36.6735C45.7714 36.73 45.6939 36.7859 45.6162 36.8418C45.5943 36.8576 45.5724 36.8735 45.5499 36.8899C45.2025 37.14 44.8354 37.3267 44.4434 37.4972C44.4043 37.5142 44.3653 37.5312 44.3251 37.5488C43.2134 38.0028 41.919 38.0681 40.7523 37.8076C40.729 37.8025 40.7058 37.7974 40.6818 37.7921C39.8709 37.6107 38.9714 37.2203 38.3376 36.6693C38.3376 36.6465 38.3376 36.6237 38.3376 36.6003C38.3176 36.5913 38.2977 36.5824 38.2772 36.5732C38.1936 36.5281 38.1318 36.4765 38.0616 36.4127C37.9914 36.3492 37.9233 36.2896 37.846 36.2347C37.8261 36.2187 37.8062 36.2028 37.7856 36.1863C37.7856 36.1636 37.7856 36.1408 37.7856 36.1173C37.7629 36.1173 37.7401 36.1173 37.7166 36.1173C37.6607 36.0618 37.6607 36.0618 37.5981 35.988C37.5775 35.964 37.5569 35.9399 37.5357 35.9152C37.3717 35.7151 37.3717 35.7151 37.3717 35.6344C37.3489 35.6344 37.3261 35.6344 37.3027 35.6344C37.2404 35.5537 37.1827 35.4731 37.1259 35.3886C37.1004 35.3508 37.1004 35.3508 37.0743 35.3122C36.4954 34.4454 36.1828 33.5257 36.0608 32.4953C36.0575 32.4689 36.0542 32.4426 36.0508 32.4155C35.9019 31.1885 36.1984 29.8999 36.8197 28.8387C36.8317 28.8182 36.8437 28.7978 36.856 28.7767C36.9894 28.5513 36.9894 28.5513 37.0612 28.4592C37.084 28.4592 37.1068 28.4592 37.1302 28.4592C37.1462 28.4187 37.1462 28.4187 37.1626 28.3773C37.1992 28.2867 37.1992 28.2867 37.2337 28.2177C37.2565 28.2177 37.2792 28.2177 37.3027 28.2177C37.3119 28.1921 37.3212 28.1665 37.3307 28.1401C37.3701 28.049 37.4094 27.9813 37.4752 27.9073C37.4979 27.9073 37.5207 27.9073 37.5442 27.9073C37.5442 27.8731 37.5442 27.839 37.5442 27.8038C37.5249 27.7997 37.5056 27.7956 37.4857 27.7913C37.3972 27.7668 37.3203 27.7322 37.2373 27.6926C37.2046 27.677 37.1719 27.6614 37.1382 27.6454C37.1036 27.6286 37.0689 27.6119 37.0332 27.5947C36.9797 27.569 36.9797 27.569 36.9252 27.5428C36.7041 27.436 36.4861 27.3248 36.2705 27.2073C36.1045 27.1173 35.9349 27.0382 35.7629 26.9605C35.6337 26.9008 35.5066 26.8374 35.3795 26.7732C35.1877 26.6763 34.9945 26.5833 34.7996 26.4929C34.5928 26.3969 34.3914 26.294 34.1913 26.1849C34.0182 26.0914 33.8416 26.0069 33.6634 25.9238C33.4417 25.8203 33.2248 25.7114 33.0101 25.5943C32.8269 25.4952 32.6393 25.4074 32.4503 25.3201C32.2664 25.2344 32.0879 25.1411 31.9097 25.0441C31.7495 24.9576 31.5864 24.879 31.4211 24.8026C31.2353 24.7168 31.0532 24.6268 30.8735 24.5288C30.6797 24.4232 30.4828 24.3268 30.2828 24.2335C30.061 24.13 29.844 24.0209 29.6292 23.9038C29.473 23.8194 29.3142 23.7429 29.153 23.6686C28.9104 23.5565 28.6738 23.435 28.4379 23.3094C28.2428 23.2056 28.046 23.1057 27.8479 23.0078C27.6811 22.925 27.5168 22.8381 27.3527 22.7501C27.1338 22.6328 26.9118 22.525 26.6864 22.4208C26.4996 22.3339 26.3178 22.2397 26.1367 22.1416C26.0078 22.0717 25.878 22.0044 25.7465 21.9395C25.5926 21.8633 25.4407 21.7837 25.2895 21.7023C25.0832 21.5914 24.8753 21.484 24.6649 21.3811C24.5642 21.3318 24.4664 21.2818 24.3696 21.2248C24.221 21.1364 24.221 21.1364 24.0535 21.1145C23.9672 21.1391 23.8945 21.1737 23.8147 21.2151C23.7764 21.2346 23.738 21.2542 23.6985 21.2743C23.5636 21.3445 23.4305 21.4177 23.2973 21.491C23.2127 21.5373 23.1279 21.5833 23.0429 21.629C23.0218 21.6404 23.0007 21.6517 22.9789 21.6635C22.7924 21.7627 22.6014 21.8511 22.4096 21.9395C22.252 22.0129 22.1019 22.093 21.952 22.1809C21.7808 22.2813 21.6083 22.3698 21.4281 22.4526C21.222 22.5474 21.0202 22.6476 20.8201 22.7544C20.5415 22.9031 20.2598 23.0451 19.9771 23.1856C19.726 23.3104 19.4751 23.4351 19.2289 23.5694C19.0027 23.692 18.7712 23.8014 18.5383 23.9108C18.3045 24.0213 18.076 24.1396 17.8481 24.2616C17.6307 24.3772 17.4094 24.4829 17.1863 24.5868C16.9953 24.6763 16.8093 24.7726 16.6241 24.8736C16.468 24.958 16.3092 25.0344 16.148 25.1088C15.936 25.2067 15.7288 25.3113 15.5228 25.4214C15.2763 25.553 15.0271 25.6758 14.7741 25.7942C14.5307 25.9081 14.2904 26.0276 14.0506 26.1487C13.9828 26.1828 13.915 26.2165 13.847 26.2501C13.638 26.3537 13.43 26.4586 13.2244 26.569C12.7822 26.8066 12.3281 27.0191 11.8735 27.2318C11.572 27.3731 11.2748 27.5193 10.9824 27.6786C10.9482 27.6972 10.914 27.7157 10.8787 27.7348C10.8534 27.7487 10.8281 27.7626 10.8021 27.777C10.7408 27.8038 10.7408 27.8038 10.6373 27.8038C10.6543 27.8308 10.6714 27.8579 10.689 27.8857C10.7408 27.9763 10.7408 27.9763 10.7408 28.0453C10.7635 28.0453 10.7863 28.0453 10.8098 28.0453C10.8098 28.0794 10.8098 28.1136 10.8098 28.1488C10.8325 28.1488 10.8553 28.1488 10.8787 28.1488C10.9239 28.2023 10.9239 28.2023 10.9751 28.2776C10.9939 28.305 11.0127 28.3325 11.032 28.3607C11.0519 28.3904 11.0717 28.42 11.0922 28.4506C11.1125 28.4807 11.1328 28.5109 11.1537 28.5419C11.5149 29.0818 11.7756 29.6258 11.9481 30.253C11.9576 30.2869 11.9672 30.3208 11.977 30.3557C12.1014 30.8228 12.1327 31.2777 12.1315 31.7584C12.1314 31.8501 12.1322 31.9418 12.1331 32.0335C12.1345 32.417 12.0984 32.7761 12.0171 33.1507C12.012 33.1745 12.0068 33.1982 12.0015 33.2227C11.8364 33.9762 11.5345 34.782 11.0512 35.3929C11.0285 35.3929 11.0057 35.3929 10.9822 35.3929C10.9822 35.4271 10.9822 35.4612 10.9822 35.4964C10.9595 35.4964 10.9367 35.4964 10.9132 35.4964C10.9015 35.5231 10.9015 35.5231 10.8895 35.5503C10.7863 35.742 10.6566 35.8982 10.4993 36.0483C10.446 36.1014 10.3928 36.1546 10.3397 36.2079C10.2894 36.2582 10.2391 36.3085 10.1888 36.3588C10.1701 36.379 10.1513 36.3992 10.132 36.42C10.0853 36.4623 10.0853 36.4623 10.0163 36.4623C10.0163 36.4851 10.0163 36.5078 10.0163 36.5313C9.96595 36.5758 9.96595 36.5758 9.89992 36.6218C9.87831 36.6372 9.8567 36.6526 9.83443 36.6685C9.77487 36.7038 9.77487 36.7038 9.70588 36.7038C9.70588 36.7265 9.70588 36.7493 9.70588 36.7728C9.67173 36.7728 9.63758 36.7728 9.60239 36.7728C9.60239 36.7955 9.60239 36.8183 9.60239 36.8418C9.52518 36.8981 9.44859 36.9491 9.36739 36.9991C9.34283 37.0144 9.31827 37.0296 9.29296 37.0452C7.89758 37.8902 6.20887 38.1741 4.6193 37.787C3.89035 37.6031 3.13406 37.3 2.53071 36.8418C2.53071 36.819 2.53071 36.7962 2.53071 36.7728C2.49656 36.7728 2.4624 36.7728 2.42722 36.7728C2.42722 36.75 2.42722 36.7272 2.42722 36.7038C2.3984 36.6899 2.3984 36.6899 2.36901 36.6757C2.28191 36.631 2.19826 36.5856 2.11675 36.5313C2.11675 36.5085 2.11675 36.4858 2.11675 36.4623C2.09399 36.4623 2.07122 36.4623 2.04776 36.4623C2.04776 36.4395 2.04776 36.4168 2.04776 36.3933C2.0286 36.3854 2.00943 36.3776 1.98968 36.3694C1.88727 36.3116 1.81712 36.2382 1.73514 36.154C1.69079 36.1087 1.69079 36.1087 1.64553 36.0625C1.6189 36.0351 1.59226 36.0076 1.56482 35.9794C1.53394 35.9505 1.53394 35.9505 1.50243 35.921C1.46133 35.8759 1.46133 35.8759 1.46133 35.8069C1.43856 35.8069 1.4158 35.8069 1.39234 35.8069C1.34787 35.7565 1.34787 35.7565 1.30179 35.6904C1.27871 35.658 1.27871 35.658 1.25516 35.625C1.21986 35.5654 1.21986 35.5654 1.21986 35.4964C1.19709 35.4964 1.17432 35.4964 1.15087 35.4964C1.15087 35.4623 1.15087 35.4281 1.15087 35.3929C1.1281 35.3929 1.10533 35.3929 1.08187 35.3929C1.03987 35.3378 1.03987 35.3378 0.993073 35.2602C0.975845 35.2317 0.958617 35.2032 0.940866 35.1739C0.913548 35.1276 0.913548 35.1276 0.885678 35.0803C0.867043 35.0489 0.848408 35.0175 0.829209 34.9852C0.676938 34.7251 0.543854 34.4631 0.426449 34.1856C0.411019 34.1498 0.395589 34.114 0.379691 34.0771C0.290446 33.8588 0.222397 33.6369 0.161261 33.4094C0.154274 33.3836 0.147287 33.3579 0.140089 33.3313C0.0254277 32.887 0.000540742 32.4545 0.00160771 31.9979C0.00171647 31.9008 0.000905612 31.8039 3.28232e-05 31.7068C-0.00424951 30.4804 0.410536 29.0981 1.21986 28.1488C1.24263 28.1488 1.26539 28.1488 1.28885 28.1488C1.29596 28.1253 1.30308 28.1018 1.31041 28.0776C1.37264 27.9447 1.45792 27.8356 1.56482 27.7348C1.58759 27.7348 1.61035 27.7348 1.63381 27.7348C1.63381 27.712 1.63381 27.6893 1.63381 27.6658C1.65658 27.6658 1.67934 27.6658 1.7028 27.6658C1.71419 27.6317 1.72557 27.5975 1.7373 27.5623C1.76007 27.5623 1.78283 27.5623 1.80629 27.5623C1.80629 27.5396 1.80629 27.5168 1.80629 27.4933C1.82906 27.4933 1.85182 27.4933 1.87528 27.4933C1.87528 27.4706 1.87528 27.4478 1.87528 27.4243C1.89805 27.4243 1.92082 27.4243 1.94427 27.4243C1.95566 27.3902 1.96704 27.356 1.97877 27.3208C2.04763 27.2579 2.04763 27.2579 2.13185 27.1936C2.15955 27.1722 2.18725 27.1507 2.2158 27.1286C2.28923 27.0794 2.28923 27.0794 2.35823 27.0794C2.35823 27.0566 2.35823 27.0338 2.35823 27.0104C2.43056 26.9583 2.50247 26.9106 2.57814 26.8638C2.60023 26.8499 2.62233 26.836 2.64509 26.8217C2.7103 26.7808 2.77571 26.7404 2.84117 26.6999C2.88786 26.6706 2.88786 26.6706 2.9355 26.6408C3.34357 26.3894 3.77383 26.2119 4.22101 26.0445C4.24524 26.0354 4.26947 26.0263 4.29443 26.017C4.38676 25.9824 4.4791 25.9479 4.57149 25.9135C4.75136 25.8464 4.92956 25.7754 5.10752 25.7034C5.23369 25.6525 5.36048 25.6047 5.48874 25.5594C5.6455 25.5034 5.79499 25.4367 5.94581 25.3664C6.06231 25.3143 6.18055 25.2674 6.2994 25.2209C6.49577 25.1436 6.68748 25.0593 6.87813 24.9687C7.00124 24.9102 7.12482 24.8532 7.24952 24.7982C7.55443 24.6636 7.85292 24.5235 8.14601 24.3646C8.31135 24.2754 8.47883 24.1935 8.64944 24.1149C9.08257 23.9146 9.50295 23.6912 9.91285 23.4469C10.0335 23.3786 10.1569 23.3176 10.2815 23.2568C10.5233 23.1381 10.7544 23.0061 10.9855 22.8679C11.2313 22.721 11.4804 22.5797 11.7291 22.4376C11.9418 22.3155 12.1494 22.1888 12.3533 22.0524C12.4311 22.0085 12.4311 22.0085 12.5346 22.0085C12.5346 21.9857 12.5346 21.9629 12.5346 21.9395C12.6135 21.8933 12.6926 21.8473 12.7717 21.8015C12.8054 21.7817 12.8054 21.7817 12.8398 21.7616C13.0097 21.6635 13.0097 21.6635 13.0865 21.6635C13.0865 21.6407 13.0865 21.618 13.0865 21.5945C13.121 21.5763 13.121 21.5763 13.1562 21.5577C13.3585 21.4494 13.5537 21.3343 13.7464 21.2097C13.8511 21.1424 13.9569 21.0773 14.0632 21.0124C14.2653 20.8885 14.4646 20.7607 14.6633 20.6313C14.7591 20.5708 14.856 20.5142 14.9547 20.4586C15.024 20.4183 15.0914 20.3759 15.1589 20.3327C15.1826 20.3176 15.2063 20.3025 15.2306 20.2869C15.2794 20.2556 15.3281 20.2241 15.3767 20.1926C15.4119 20.1702 15.4119 20.1702 15.4478 20.1473C15.4689 20.1337 15.4899 20.1201 15.5116 20.1062C15.5702 20.0767 15.5702 20.0767 15.6737 20.0767C15.6737 20.0539 15.6737 20.0311 15.6737 20.0077C15.7509 19.9566 15.7509 19.9566 15.8569 19.8977C15.9964 19.8187 16.1339 19.7386 16.2687 19.652C16.2992 19.6325 16.3296 19.613 16.3609 19.5929C16.4192 19.5555 16.4775 19.518 16.5358 19.4805C16.6105 19.4325 16.6854 19.3848 16.7603 19.3372C16.7963 19.3139 16.7963 19.3139 16.833 19.2902C17.0073 19.1798 17.0073 19.1798 17.1225 19.1798C17.1225 19.157 17.1225 19.1343 17.1225 19.1108C17.1431 19.1003 17.1637 19.0897 17.1849 19.0789C17.5203 18.902 17.834 18.6925 18.1501 18.4836C18.2027 18.4489 18.2555 18.4144 18.3083 18.3799C18.337 18.3609 18.3658 18.3419 18.3954 18.3224C18.4679 18.2829 18.4679 18.2829 18.5714 18.2829C18.5714 18.2601 18.5714 18.2374 18.5714 18.2139C18.5935 18.2022 18.6157 18.1904 18.6386 18.1783C18.8677 18.0554 19.0884 17.9233 19.3078 17.784C19.3993 17.731 19.3993 17.731 19.4683 17.731C19.4683 17.7082 19.4683 17.6854 19.4683 17.662C19.5218 17.6237 19.5218 17.6237 19.5971 17.5819C19.6245 17.5664 19.652 17.5509 19.6803 17.535C19.7247 17.5103 19.7247 17.5103 19.7701 17.4852C20.0019 17.3541 20.2248 17.218 20.4445 17.0676C20.5678 16.9868 20.6964 16.9186 20.8265 16.8496C20.9656 16.7728 21.1009 16.6886 21.2275 16.5926C21.2275 16.5812 21.2275 16.5698 21.2275 16.5581C21.0658 16.5832 20.9041 16.6084 20.7424 16.6336C20.7177 16.6374 20.693 16.6413 20.6675 16.6452C20.349 16.6949 20.0307 16.7455 19.7126 16.7974C19.2938 16.8657 18.8746 16.9299 18.4543 16.9883C18.235 17.0191 18.0162 17.0521 17.7976 17.0879C17.7733 17.0919 17.7489 17.0959 17.7238 17.1C17.6053 17.1195 17.4868 17.1392 17.3683 17.1592C17.3257 17.1663 17.2831 17.1734 17.2392 17.1806C17.1829 17.1902 17.1829 17.1902 17.1254 17.1999C16.9104 17.2274 16.7879 17.2144 16.5986 17.1057C16.5598 17.0838 16.5211 17.062 16.4811 17.0394C16.4423 17.0172 16.4036 16.9949 16.3636 16.972C16.2926 16.9331 16.2214 16.8942 16.1502 16.8556C16.1198 16.839 16.0894 16.8224 16.0581 16.8052C16.0109 16.7796 15.9632 16.7546 15.9152 16.7306C15.9152 16.7078 15.9152 16.685 15.9152 16.6616C15.8779 16.6564 15.8779 16.6564 15.84 16.6512C15.7296 16.6238 15.6599 16.5807 15.5659 16.5171C15.4437 16.4369 15.3221 16.3613 15.1929 16.2929C14.7548 16.0584 14.3314 15.793 13.9144 15.5232C13.8512 15.4829 13.7879 15.4427 13.7247 15.4025C13.3452 15.161 13.3452 15.161 13.2518 15.1013C13.184 15.0583 13.1157 15.0159 13.0473 14.9738C13.0125 14.9524 12.9778 14.9309 12.942 14.9087C12.9102 14.8893 12.8784 14.8699 12.8457 14.8499C12.8227 14.833 12.7997 14.8162 12.776 14.7988C12.776 14.776 12.776 14.7533 12.776 14.7298C12.7568 14.7264 12.7375 14.723 12.7177 14.7196C12.6194 14.6896 12.552 14.6425 12.468 14.5833C12.4351 14.5603 12.4022 14.5372 12.3683 14.5135C12.3335 14.4888 12.2987 14.4642 12.2629 14.4387C12.2096 14.4013 12.2096 14.4013 12.1552 14.363C11.9224 14.1993 11.6905 14.0344 11.4597 13.8679C11.3896 13.8182 11.3179 13.7706 11.2454 13.7246C11.2005 13.6928 11.2005 13.6928 11.1547 13.6604C11.1547 13.6377 11.1547 13.6149 11.1547 13.5914C11.1305 13.5833 11.1063 13.5751 11.0814 13.5666C10.964 13.5143 10.8761 13.4469 10.7753 13.3672C10.7359 13.3363 10.6965 13.3055 10.6571 13.2746C10.6369 13.2587 10.6167 13.2428 10.596 13.2264C10.4931 13.1455 10.3895 13.0655 10.2858 12.9856C10.2573 12.9634 10.2573 12.9634 10.2281 12.9407C10.1268 12.8623 10.1268 12.8623 10.0163 12.798C10.0163 12.7753 10.0163 12.7525 10.0163 12.729C9.98753 12.7152 9.98753 12.7152 9.95813 12.701C9.87104 12.6563 9.78739 12.6109 9.70588 12.5566C9.70588 12.5338 9.70588 12.511 9.70588 12.4876C9.68613 12.4783 9.66639 12.4691 9.64605 12.4595C9.56517 12.4171 9.49462 12.3694 9.42129 12.3151C9.38473 12.2884 9.38473 12.2884 9.34744 12.2612C9.32912 12.2448 9.3108 12.2285 9.29193 12.2116C9.29193 12.1888 9.29193 12.1661 9.29193 12.1426C9.26747 12.1348 9.24301 12.127 9.21781 12.119C9.09976 12.0645 9.01752 11.9883 8.92541 11.899C8.70368 11.6897 8.47221 11.4942 8.22888 11.3102C8.20403 11.2889 8.17917 11.2676 8.15356 11.2457C8.15356 11.2229 8.15356 11.2002 8.15356 11.1767C8.13515 11.1693 8.11674 11.1619 8.09777 11.1542C7.98533 11.0906 7.89732 11.0042 7.80428 10.9158C7.67875 10.7908 7.67875 10.7908 7.53263 10.6938C7.53263 10.671 7.53263 10.6482 7.53263 10.6248C7.49848 10.6134 7.46433 10.602 7.42914 10.5903C7.42914 10.5675 7.42914 10.5447 7.42914 10.5213C7.40637 10.5213 7.38361 10.5213 7.36015 10.5213C7.36015 10.4985 7.36015 10.4758 7.36015 10.4523C7.33738 10.4523 7.31461 10.4523 7.29116 10.4523C7.29116 10.4295 7.29116 10.4068 7.29116 10.3833C7.26341 10.3716 7.26341 10.3716 7.2351 10.3596C7.06282 10.2644 6.94302 10.1409 6.82115 9.98889C6.77025 9.93091 6.71629 9.88323 6.65729 9.83352C6.34698 9.56872 6.0529 9.27121 5.79044 8.95899C5.71273 8.87012 5.62745 8.7894 5.5417 8.70836C5.49736 8.6585 5.49736 8.6585 5.49736 8.58951C5.4746 8.58951 5.45183 8.58951 5.42837 8.58951C5.42837 8.56674 5.42837 8.54397 5.42837 8.52052C5.39422 8.50913 5.36007 8.49775 5.32488 8.48602C5.32488 8.46325 5.32488 8.44049 5.32488 8.41703C5.30212 8.41703 5.27935 8.41703 5.25589 8.41703C5.20482 8.36636 5.20482 8.36636 5.14594 8.29629C5.03859 8.16956 4.92882 8.04555 4.81728 7.9225C4.77295 7.86509 4.77295 7.86509 4.77295 7.7961C4.75018 7.7961 4.72741 7.7961 4.70396 7.7961C4.65225 7.73902 4.60306 7.67965 4.55519 7.61931C4.52762 7.58476 4.50005 7.55021 4.47165 7.51461C4.44586 7.48228 4.42006 7.44995 4.39349 7.41664C4.35843 7.37555 4.32325 7.33455 4.28785 7.29375C4.22101 7.20967 4.22101 7.20967 4.22101 7.14068C4.18686 7.12929 4.15271 7.11791 4.11752 7.10618C4.05459 7.03732 4.05459 7.03732 3.99032 6.9531C3.96884 6.9254 3.94736 6.8977 3.92524 6.86915C3.87605 6.79572 3.87605 6.79572 3.87605 6.72672C3.85328 6.72672 3.83052 6.72672 3.80706 6.72672C3.75078 6.66029 3.69884 6.59415 3.64752 6.52406C3.63302 6.50489 3.61852 6.48573 3.60359 6.46598C3.49659 6.32182 3.49659 6.32182 3.49659 6.24378C3.47383 6.24378 3.45106 6.24378 3.4276 6.24378C3.36557 6.16588 3.30774 6.08811 3.25081 6.00662C3.2266 5.97294 3.2266 5.97294 3.2019 5.93857C3.08264 5.76995 3.08264 5.76995 3.08264 5.69184C3.05988 5.69184 3.03711 5.69184 3.01365 5.69184C2.96794 5.6366 2.96794 5.6366 2.91609 5.55938C2.88748 5.51713 2.88748 5.51713 2.85828 5.47402C2.83841 5.44416 2.81853 5.4143 2.79805 5.38354C2.77871 5.35488 2.75936 5.32622 2.73943 5.29669C2.66254 5.18259 2.58624 5.06809 2.51011 4.95348C2.40815 4.80007 2.30454 4.64817 2.19868 4.49742C1.90325 4.07282 1.90325 4.07282 1.87528 3.89805C1.85251 3.89805 1.82975 3.89805 1.80629 3.89805C1.78988 3.86717 1.78988 3.86717 1.77314 3.83566C1.66369 3.63217 1.54916 3.43261 1.43115 3.234C1.17452 2.80026 0.946721 2.35741 0.735583 1.89989C0.703591 1.83082 0.671218 1.76195 0.638681 1.69313C0.456746 1.30796 0.284014 0.920606 0.139701 0.519596C0.130916 0.495523 0.122131 0.471449 0.11308 0.446646C0.0606249 0.297485 0.0299203 0.157218 0.0124972 0ZM3.65075 29.7096C3.03654 30.3947 2.79697 31.2628 2.83521 32.166C2.84856 32.3625 2.88946 32.5476 2.94466 32.7367C2.95346 32.7703 2.96227 32.804 2.97134 32.8386C3.09687 33.2693 3.35041 33.7297 3.66908 34.0476C3.69184 34.0476 3.71461 34.0476 3.73807 34.0476C3.73807 34.0703 3.73807 34.0931 3.73807 34.1166C3.76083 34.1166 3.7836 34.1166 3.80706 34.1166C3.80706 34.1393 3.80706 34.1621 3.80706 34.1856C3.82983 34.1856 3.85259 34.1856 3.87605 34.1856C3.88743 34.2197 3.89882 34.2539 3.91055 34.289C3.93331 34.289 3.95608 34.289 3.97954 34.289C3.97954 34.3118 3.97954 34.3346 3.97954 34.358C4.05621 34.4121 4.13259 34.4621 4.21239 34.5111C4.25608 34.5383 4.29974 34.5656 4.34336 34.5929C4.37481 34.6124 4.37481 34.6124 4.40689 34.6324C4.46248 34.6685 4.46248 34.6685 4.52999 34.7236C4.71917 34.8535 4.96973 34.9086 5.1869 34.979C5.22212 34.991 5.25734 35.003 5.29362 35.0153C5.55521 35.0908 5.81512 35.093 6.08595 35.0954C6.1235 35.0959 6.16105 35.0964 6.19974 35.0969C6.46221 35.0953 6.69517 35.0543 6.9462 34.979C6.97339 34.9709 7.00057 34.9628 7.02859 34.9544C7.32702 34.8612 7.59454 34.7585 7.84309 34.565C7.87956 34.5387 7.91602 34.5125 7.95359 34.4854C8.10822 34.3737 8.10822 34.3737 8.25704 34.2545C8.25704 34.2318 8.25704 34.209 8.25704 34.1856C8.27981 34.1856 8.30258 34.1856 8.32604 34.1856C8.32604 34.1628 8.32604 34.14 8.32604 34.1166C8.3488 34.1166 8.37157 34.1166 8.39503 34.1166C8.39503 34.0938 8.39503 34.071 8.39503 34.0476C8.42918 34.0362 8.46333 34.0248 8.49852 34.0131C8.72023 33.7643 8.87949 33.4881 9.01596 33.1852C9.0265 33.1625 9.03703 33.1398 9.04789 33.1164C9.34234 32.4611 9.38836 31.7013 9.18844 31.0119C9.17883 30.9771 9.16923 30.9422 9.15933 30.9063C9.07737 30.6349 8.95055 30.3942 8.80898 30.1495C8.79088 30.1167 8.77279 30.084 8.75414 30.0502C8.73808 30.0261 8.72203 30.0019 8.70549 29.977C8.68273 29.977 8.65996 29.977 8.6365 29.977C8.62885 29.9526 8.6212 29.9282 8.61332 29.9031C8.55739 29.7828 8.47991 29.6999 8.3864 29.6084C8.36807 29.5904 8.34973 29.5724 8.33084 29.5539C7.83476 29.0796 7.24713 28.7728 6.56674 28.6662C6.53388 28.6599 6.50102 28.6536 6.46716 28.6471C5.39198 28.4933 4.39077 28.9451 3.65075 29.7096ZM40.2693 29.1836C40.2693 29.2064 40.2693 29.2292 40.2693 29.2526C40.2501 29.2619 40.2309 29.2711 40.2111 29.2807C40.124 29.3254 40.0404 29.3708 39.9589 29.4251C39.9589 29.4479 39.9589 29.4706 39.9589 29.4941C39.9361 29.4941 39.9133 29.4941 39.8899 29.4941C39.8324 29.5401 39.8324 29.5401 39.7864 29.5976C39.7864 29.6204 39.7864 29.6431 39.7864 29.6666C39.7636 29.6666 39.7409 29.6666 39.7174 29.6666C39.7174 29.6893 39.7174 29.7121 39.7174 29.7356C39.6946 29.7356 39.6719 29.7356 39.6484 29.7356C39.5909 29.8106 39.5384 29.8852 39.4867 29.9641C39.4714 29.9875 39.456 30.011 39.4401 30.0351C38.963 30.7754 38.7587 31.6269 38.9349 32.5017C39.0849 33.1187 39.3549 33.6327 39.7799 34.1036C39.7965 34.122 39.8131 34.1405 39.8302 34.1594C39.8716 34.2041 39.9151 34.2468 39.9589 34.289C39.9817 34.289 40.0044 34.289 40.0279 34.289C40.0279 34.3118 40.0279 34.3346 40.0279 34.358C40.7572 34.9619 41.619 35.1423 42.5461 35.0825C42.7376 35.0583 42.9154 35.0073 43.098 34.9445C43.1367 34.932 43.1754 34.9195 43.2153 34.9066C43.761 34.7154 44.3022 34.3426 44.6503 33.8751C44.6503 33.8523 44.6503 33.8296 44.6503 33.8061C44.6731 33.8061 44.6959 33.8061 44.7193 33.8061C44.7522 33.7486 44.7851 33.6911 44.818 33.6335C44.8427 33.5903 44.8675 33.5471 44.8924 33.504C45.3397 32.7249 45.4237 31.9172 45.2368 31.0464C45.2301 31.0152 45.2234 30.9841 45.2166 30.952C45.0979 30.4934 44.8247 29.9881 44.4779 29.6666C44.4151 29.6018 44.3524 29.5369 44.2899 29.4719C44.2396 29.4175 44.2396 29.4175 44.1674 29.4251C44.1674 29.4023 44.1674 29.3796 44.1674 29.3561C43.7043 28.9922 43.1953 28.7617 42.6151 28.6662C42.582 28.6599 42.5489 28.6536 42.5148 28.6471C41.713 28.5317 40.9542 28.7817 40.2693 29.1836Z" fill="white"/>
<path d="M20.9529 0.198046C20.9806 0.197914 21.0083 0.197782 21.0369 0.197647C21.1297 0.197291 21.2225 0.197428 21.3153 0.197565C21.3819 0.197415 21.4485 0.197236 21.5151 0.197031C21.6959 0.196568 21.8767 0.196549 22.0576 0.196636C22.2085 0.196673 22.3595 0.196504 22.5105 0.196339C22.8666 0.195956 23.2228 0.195941 23.579 0.19615C23.9464 0.196358 24.3137 0.195934 24.6811 0.195199C24.9966 0.194591 25.312 0.194384 25.6275 0.194496C25.8159 0.194559 26.0043 0.194468 26.1927 0.193989C26.3699 0.193555 26.5471 0.193622 26.7243 0.194072C26.7892 0.194154 26.8542 0.194059 26.9192 0.193775C27.008 0.193414 27.0968 0.193693 27.1856 0.19413C27.2112 0.193876 27.2369 0.193621 27.2633 0.193359C27.5224 0.196039 27.7116 0.287189 27.9005 0.460909C28.089 0.65883 28.1393 0.901916 28.2076 1.15939C28.2345 1.2569 28.2636 1.35365 28.2928 1.45051C28.3151 1.52615 28.3374 1.60179 28.3598 1.67743C28.3707 1.71318 28.3817 1.74892 28.393 1.78575C28.4888 2.11583 28.5387 2.44551 28.375 2.76096C28.2461 2.97348 28.1096 3.07361 27.8854 3.1737C27.8293 3.20227 27.7732 3.23103 27.7173 3.25994C27.606 3.31566 27.4948 3.36584 27.3788 3.41086C27.2344 3.467 27.0941 3.53014 26.954 3.59627C26.7632 3.68636 26.5714 3.77394 26.3784 3.85931C26.146 3.96215 25.9138 4.06557 25.682 4.16977C25.6527 4.18293 25.6233 4.19608 25.5931 4.20964C25.5656 4.22201 25.5381 4.23437 25.5098 4.24712C25.4856 4.258 25.4613 4.26889 25.4364 4.28011C25.3666 4.31237 25.2978 4.34631 25.2292 4.38106C25.2711 4.38192 25.313 4.38279 25.3561 4.38368C25.5143 4.38697 25.6726 4.39042 25.8308 4.3939C25.8987 4.39538 25.9667 4.39682 26.0346 4.39821C26.4568 4.40693 26.8777 4.42139 27.299 4.45005C27.3884 4.6248 27.4716 4.79949 27.5426 4.98258C27.5526 5.00817 27.5625 5.03375 27.5728 5.06011C27.7337 5.48351 27.8707 5.91599 28.0121 6.3462C28.0778 6.54585 28.1444 6.74519 28.211 6.94454C28.2417 7.03658 28.2724 7.12863 28.303 7.22068C28.3252 7.28716 28.3474 7.35361 28.3697 7.42004C28.4294 7.59792 28.4877 7.77577 28.5409 7.95571C28.5894 8.11476 28.6448 8.26761 28.7084 8.42113C28.7616 8.55516 28.8098 8.69077 28.8578 8.82673C28.8668 8.8522 28.8759 8.87767 28.8852 8.90391C28.9249 9.01681 28.9616 9.12861 28.9893 9.245C28.9324 9.26776 28.8755 9.29053 28.8168 9.31399C28.8168 9.33675 28.8168 9.35952 28.8168 9.38298C28.7632 9.42126 28.7632 9.42126 28.688 9.46302C28.6606 9.47851 28.6331 9.494 28.6048 9.50996C28.5752 9.52639 28.5455 9.54283 28.515 9.55977C28.2831 9.6908 28.0603 9.8269 27.8406 9.97736C27.7167 10.0586 27.5874 10.127 27.4567 10.1965C27.3482 10.2563 27.2467 10.3236 27.1444 10.3935C27.0346 10.4679 26.9233 10.54 26.8118 10.6119C26.7919 10.6247 26.7721 10.6376 26.7517 10.6508C26.6353 10.7258 26.5171 10.7959 26.3964 10.864C26.3272 10.9042 26.2598 10.9466 26.1924 10.9897C26.157 11.0124 26.157 11.0124 26.1208 11.0356C26.072 11.0669 26.0233 11.0983 25.9747 11.1299C25.9512 11.1448 25.9277 11.1598 25.9035 11.1752C25.872 11.1955 25.872 11.1955 25.8398 11.2163C25.7812 11.2458 25.7812 11.2458 25.6777 11.2458C25.6777 11.2685 25.6777 11.2913 25.6777 11.3148C25.6005 11.3658 25.6005 11.3658 25.4944 11.4247C25.355 11.5038 25.2175 11.5839 25.0826 11.6705C25.0522 11.69 25.0218 11.7094 24.9905 11.7295C24.9322 11.767 24.8739 11.8044 24.8156 11.8419C24.7409 11.8899 24.666 11.9376 24.5911 11.9853C24.5551 12.0085 24.5551 12.0085 24.5184 12.0323C24.3441 12.1427 24.3441 12.1427 24.2289 12.1427C24.2289 12.1654 24.2289 12.1882 24.2289 12.2117C24.0861 12.3188 24.0861 12.3188 23.9935 12.3075C23.7244 12.2113 23.479 12.024 23.2398 11.8698C23.056 11.7544 22.8692 11.6441 22.6823 11.5338C22.5529 11.4569 22.4261 11.3794 22.3042 11.2908C22.2107 11.2236 22.1211 11.1688 22.019 11.1164C21.8487 11.0256 21.6871 10.9244 21.526 10.8185C21.3315 10.6917 21.1311 10.5756 20.9287 10.4618C20.8663 10.426 20.8054 10.3877 20.7448 10.3489C20.7448 10.3261 20.7448 10.3033 20.7448 10.2799C20.726 10.2767 20.7071 10.2735 20.6878 10.2702C20.5834 10.2382 20.5057 10.1849 20.4149 10.1246C20.3161 10.0592 20.2364 10.0069 20.1238 9.96941C20.1238 9.94664 20.1238 9.92388 20.1238 9.90042C20.0947 9.89471 20.0947 9.89471 20.0649 9.88889C19.9743 9.86255 19.9057 9.82343 19.8251 9.77443C19.7798 9.74705 19.7798 9.74705 19.7335 9.71911C19.6866 9.6904 19.6866 9.6904 19.6387 9.6611C19.6073 9.64209 19.5759 9.62308 19.5435 9.6035C19.4252 9.53171 19.3076 9.45977 19.1924 9.38298C19.2461 9.13831 19.332 8.91096 19.4231 8.67797C19.4386 8.6382 19.454 8.59843 19.4699 8.55745C19.5653 8.3122 19.6636 8.06826 19.765 7.8254C19.8397 7.64577 19.9089 7.46444 19.9765 7.28204C20.1185 6.89917 20.2665 6.51884 20.4257 6.14278C20.4782 6.01366 20.5263 5.8831 20.5744 5.75227C20.6769 5.47414 20.6769 5.47414 20.7448 5.34695C20.8189 5.20672 20.8703 5.0596 20.9246 4.91076C21.0228 4.64508 21.1319 4.38386 21.2406 4.12234C21.2502 4.09936 21.2597 4.07639 21.2696 4.05272C21.3245 3.92064 21.3795 3.78862 21.4347 3.65664C21.4049 3.65001 21.4049 3.65001 21.3745 3.64325C21.2966 3.62211 21.2287 3.59422 21.1555 3.56043C21.0405 3.50827 20.9251 3.4582 20.8084 3.41005C20.7781 3.39742 20.7478 3.38479 20.7166 3.37178C20.655 3.34613 20.5933 3.3207 20.5315 3.29551C20.2166 3.1633 19.8937 3.00265 19.7413 2.68024C19.5794 2.20085 19.8094 1.67081 19.9517 1.21404C19.991 1.08725 20.0279 0.959839 20.0642 0.832153C20.1524 0.575361 20.333 0.361498 20.5762 0.239453C20.7027 0.19827 20.8213 0.197381 20.9529 0.198046Z" fill="white"/>
<path d="M25.2636 28.2177C25.2636 28.2405 25.2636 28.2633 25.2636 28.2867C25.287 28.2938 25.3105 28.3009 25.3347 28.3083C25.7566 28.5058 26.0025 28.9736 26.1605 29.3906C26.3429 29.9818 26.2513 30.6041 25.975 31.1456C25.74 31.5579 25.3672 31.9067 24.9186 32.0813C24.8939 32.0911 24.8692 32.1008 24.8438 32.1109C24.2995 32.3096 23.6789 32.2572 23.1547 32.0271C23.0088 31.9543 22.8764 31.8675 22.7454 31.7708C22.7069 31.7443 22.7069 31.7443 22.6677 31.7172C22.6478 31.7007 22.6279 31.6843 22.6074 31.6673C22.6074 31.6446 22.6074 31.6218 22.6074 31.5983C22.5846 31.5983 22.5618 31.5983 22.5384 31.5983C22.5384 31.5756 22.5384 31.5528 22.5384 31.5293C22.4871 31.5123 22.4871 31.5123 22.4349 31.4948C21.9789 30.998 21.9183 30.3531 21.9425 29.7121C21.9725 29.3479 22.1417 29.0197 22.3659 28.7352C22.382 28.7139 22.3982 28.6926 22.4148 28.6706C22.4537 28.6212 22.4957 28.5744 22.5384 28.5282C22.5611 28.5282 22.5839 28.5282 22.6074 28.5282C22.6074 28.5054 22.6074 28.4827 22.6074 28.4592C22.6301 28.4592 22.6529 28.4592 22.6764 28.4592C22.6764 28.4364 22.6764 28.4137 22.6764 28.3902C23.4032 27.7817 24.462 27.7476 25.2636 28.2177Z" fill="white"/>
<path d="M56.9699 3.17419C57.8423 3.17338 58.7146 3.17277 59.587 3.1724C59.9921 3.17222 60.3972 3.17198 60.8023 3.17159C61.1558 3.17124 61.5092 3.17102 61.8627 3.17094C62.0495 3.1709 62.2364 3.1708 62.4232 3.17054C64.382 3.16799 64.382 3.16799 65.1692 3.28199C65.2083 3.28752 65.2083 3.28752 65.2483 3.29317C66.0972 3.41445 66.9666 3.60548 67.7327 4.00209C67.7798 4.02558 67.827 4.04899 67.8743 4.0723C67.9212 4.09561 67.9682 4.11892 68.0151 4.14223C68.0387 4.15391 68.0624 4.16558 68.0867 4.17761C68.3524 4.30983 68.3524 4.30983 68.4571 4.38155C68.4571 4.40432 68.4571 4.42708 68.4571 4.45054C68.4759 4.45348 68.4948 4.45641 68.5142 4.45944C68.6215 4.49341 68.6949 4.5513 68.7848 4.61871C68.8172 4.64281 68.8495 4.66691 68.8829 4.69174C68.9131 4.7146 68.9434 4.73746 68.9745 4.76101C69.0012 4.77959 69.0279 4.79818 69.0554 4.81733C69.0837 4.84068 69.0837 4.84068 69.1125 4.86449C69.1125 4.88726 69.1125 4.91003 69.1125 4.93349C69.1353 4.93349 69.158 4.93349 69.1815 4.93349C69.1815 4.95625 69.1815 4.97902 69.1815 5.00248C69.205 5.00817 69.2285 5.01386 69.2526 5.01973C69.4006 5.09527 69.4987 5.21359 69.5955 5.34744C69.5955 5.37021 69.5955 5.39297 69.5955 5.41643C69.6182 5.41643 69.641 5.41643 69.6644 5.41643C69.7318 5.49549 69.7945 5.57462 69.8563 5.6579C69.8748 5.68268 69.8932 5.70746 69.9123 5.73298C71.0286 7.26207 71.2369 9.33125 70.9525 11.1599C70.9298 11.2931 70.9015 11.4249 70.8718 11.5567C70.8627 11.5999 70.8536 11.6431 70.8442 11.6876C70.6399 12.5846 70.1992 13.6573 69.492 14.2819C69.4692 14.2819 69.4464 14.2819 69.423 14.2819C69.423 14.3047 69.423 14.3274 69.423 14.3509C69.4002 14.3509 69.3774 14.3509 69.354 14.3509C69.3447 14.373 69.3355 14.395 69.326 14.4177C69.285 14.4889 69.285 14.4889 69.1815 14.5234C69.1815 14.5461 69.1815 14.5689 69.1815 14.5924C68.7693 14.9877 68.2484 15.2879 67.7327 15.5238C67.6942 15.5417 67.6557 15.5597 67.6161 15.5782C66.8487 15.9225 66.0428 16.1138 65.2145 16.2396C65.1907 16.2432 65.167 16.2469 65.1425 16.2508C64.8595 16.2943 64.578 16.3233 64.2919 16.3364C64.2604 16.3378 64.229 16.3393 64.1966 16.3408C63.8593 16.3552 63.5224 16.3563 63.1849 16.3556C63.1165 16.3556 63.048 16.3556 62.9796 16.3556C62.7964 16.3556 62.6132 16.3554 62.43 16.3552C62.2376 16.3549 62.0453 16.3549 61.8529 16.3549C61.4897 16.3548 61.1265 16.3545 60.7633 16.3542C60.3493 16.3538 59.9354 16.3536 59.5214 16.3534C58.6709 16.353 57.8204 16.3524 56.9699 16.3517C56.9831 16.2853 56.9831 16.2853 57.0044 16.2137C57.0699 16.1722 57.0699 16.1722 57.1553 16.1361C57.6126 15.9224 58.1302 15.5408 58.315 15.0542C58.3765 14.8564 58.423 14.6627 58.4233 14.4549C58.4235 14.4039 58.4235 14.4039 58.4237 14.3519C58.4236 14.3149 58.4236 14.2778 58.4236 14.2396C58.4237 14.2 58.4238 14.1604 58.4239 14.1197C58.4241 14.0099 58.4242 13.9002 58.4243 13.7905C58.4243 13.6721 58.4246 13.5537 58.4248 13.4353C58.4253 13.1764 58.4255 12.9175 58.4256 12.6587C58.4257 12.4969 58.4259 12.3352 58.426 12.1734C58.4265 11.7253 58.4268 11.2772 58.4269 10.8291C58.4269 10.8004 58.427 10.7717 58.427 10.7422C58.427 10.7135 58.427 10.6847 58.427 10.6551C58.427 10.5969 58.427 10.5386 58.427 10.4804C58.427 10.4371 58.427 10.4371 58.4271 10.3929C58.4272 9.92515 58.4278 9.45744 58.4286 8.98974C58.4294 8.50917 58.4298 8.02861 58.4299 7.54804C58.4299 7.27838 58.4301 7.00871 58.4307 6.73905C58.4313 6.50934 58.4314 6.27964 58.4312 6.04994C58.431 5.93286 58.4311 5.81579 58.4315 5.69871C58.432 5.57144 58.4318 5.44419 58.4314 5.31692C58.4317 5.28039 58.432 5.24386 58.4323 5.20623C58.4292 4.7456 58.3079 4.30773 57.9875 3.96544C57.6871 3.68565 57.3357 3.46132 56.9699 3.27768C56.9699 3.24353 56.9699 3.20938 56.9699 3.17419ZM61.9718 3.55365C61.9718 7.65177 61.9718 11.7499 61.9718 15.9722C63.1027 15.9722 64.2485 15.8993 65.18 15.1788C65.18 15.156 65.18 15.1333 65.18 15.1098C65.2001 15.1006 65.2203 15.0913 65.241 15.0818C65.5029 14.9423 65.723 14.684 65.9044 14.4544C65.9044 14.4316 65.9044 14.4089 65.9044 14.3854C65.9271 14.3854 65.9499 14.3854 65.9734 14.3854C65.9734 14.3512 65.9734 14.3171 65.9734 14.2819C65.9961 14.2819 66.0189 14.2819 66.0424 14.2819C66.0537 14.2364 66.0651 14.1908 66.0769 14.1439C66.0996 14.1439 66.1224 14.1439 66.1459 14.1439C66.3904 13.7131 66.6344 13.2513 66.7668 12.7727C66.7775 12.7345 66.7881 12.6962 66.7991 12.6568C66.8076 12.6255 66.8076 12.6255 66.8163 12.5935C66.8305 12.5417 66.8451 12.4901 66.86 12.4385C67.0792 11.6656 67.1505 10.8726 67.1807 10.0734C67.1825 10.0289 67.1825 10.0289 67.1844 9.98343C67.1905 9.80601 67.1879 9.62982 67.1807 9.45246C67.1793 9.41518 67.1779 9.37789 67.1764 9.33948C67.1233 8.07249 66.9735 6.62449 66.2282 5.55543C66.1596 5.45505 66.1012 5.35032 66.0424 5.24395C66.0196 5.24395 65.9968 5.24395 65.9734 5.24395C65.9595 5.20553 65.9595 5.20553 65.9453 5.16633C65.906 5.07524 65.8666 5.00746 65.8009 4.93349C65.7781 4.93349 65.7554 4.93349 65.7319 4.93349C65.7233 4.91361 65.7146 4.89373 65.7058 4.87325C65.6571 4.78495 65.6012 4.72582 65.5292 4.65536C65.5058 4.63219 65.4825 4.60903 65.4584 4.58516C65.3366 4.46148 65.3366 4.46148 65.18 4.41605C65.18 4.39328 65.18 4.37051 65.18 4.34705C65.1458 4.34705 65.1117 4.34705 65.0765 4.34705C65.0765 4.32429 65.0765 4.30152 65.0765 4.27806C64.07 3.67579 63.1583 3.55365 61.9718 3.55365Z" fill="white"/>
<path d="M62.496 17.7962C62.5334 17.7964 62.5334 17.7964 62.5715 17.7965C62.7397 17.7972 62.9078 17.7987 63.0759 17.8006C63.1259 17.8009 63.1259 17.8009 63.1769 17.8013C63.9948 17.8107 64.8423 17.9615 65.6286 18.18C65.652 18.1864 65.6753 18.1928 65.6993 18.1993C66.2784 18.3607 66.8559 18.5783 67.379 18.8752C67.4538 18.9176 67.5294 18.9583 67.606 18.9973C67.6581 19.0239 67.6581 19.0239 67.7113 19.051C67.7415 19.0661 67.7716 19.0813 67.8027 19.0968C67.8709 19.1459 67.8709 19.1459 67.9055 19.2075C67.9053 19.3263 67.8489 19.3972 67.7868 19.4973C67.6583 19.7101 67.5496 19.9279 67.4467 20.1541C67.3876 20.2833 67.3241 20.4043 67.25 20.5257C67.2098 20.6045 67.1703 20.6835 67.1314 20.7629C66.8834 21.2635 66.6211 21.7569 66.3586 22.2499C66.2587 22.4384 66.1633 22.6289 66.0686 22.82C65.9844 22.9896 65.8958 23.156 65.8011 23.3199C65.7784 23.3199 65.7556 23.3199 65.7321 23.3199C65.7312 23.261 65.7305 23.2021 65.73 23.1431C65.7296 23.1103 65.7292 23.0775 65.7288 23.0437C65.7321 22.9405 65.7321 22.9405 65.7492 22.8489C65.7699 22.7121 65.7729 22.5776 65.7736 22.4396C65.7738 22.4114 65.774 22.3832 65.7742 22.3542C65.7746 22.2946 65.7748 22.2349 65.7749 22.1753C65.7752 22.0861 65.7763 21.997 65.7774 21.9078C65.783 21.038 65.596 20.1129 65.0512 19.4139C65.0077 19.3529 65.0077 19.3529 65.0077 19.2839C64.9849 19.2839 64.9622 19.2839 64.9387 19.2839C64.8852 19.2284 64.8852 19.2284 64.8245 19.1545C64.7322 19.0452 64.6373 18.9585 64.5248 18.8699C64.5248 18.8472 64.5248 18.8244 64.5248 18.8009C64.4995 18.7916 64.4743 18.7822 64.4482 18.7725C64.3566 18.7337 64.2804 18.689 64.1971 18.6349C63.8224 18.4084 63.4342 18.3153 63.0069 18.249C62.9686 18.2426 62.9302 18.2362 62.8907 18.2296C62.0615 18.1296 61.0811 18.2387 60.3939 18.7427C60.2488 18.8601 60.1447 18.9925 60.0403 19.1459C60.0225 19.1678 60.0047 19.1897 59.9864 19.2123C59.9308 19.2926 59.9068 19.3625 59.8807 19.4564C59.8725 19.4855 59.8642 19.5147 59.8557 19.5448C59.8483 19.5725 59.8409 19.6003 59.8333 19.6288C59.8243 19.6605 59.8243 19.6605 59.8152 19.6929C59.7042 20.1943 59.7911 20.7397 60.0489 21.1768C60.1873 21.3812 60.3536 21.528 60.5577 21.6641C60.5577 21.6869 60.5577 21.7096 60.5577 21.7331C60.5848 21.7402 60.6118 21.7473 60.6397 21.7547C60.7474 21.7955 60.8311 21.8393 60.9286 21.8991C61.2613 22.1027 61.5997 22.2395 61.9679 22.3637C62.0345 22.3863 62.1008 22.4095 62.1672 22.4327C62.4501 22.5304 62.7358 22.6111 63.0248 22.6885C63.2728 22.755 63.5187 22.8273 63.7643 22.9023C63.93 22.9525 64.096 22.9989 64.2639 23.0418C65.4609 23.3577 66.685 23.8024 67.5949 24.6653C67.6209 24.6896 67.6469 24.714 67.6737 24.7391C67.7329 24.8032 67.7329 24.8032 67.7329 24.8722C67.7557 24.8722 67.7784 24.8722 67.8019 24.8722C68.06 25.1953 68.24 25.5443 68.3538 25.9416C68.3676 25.9885 68.3676 25.9885 68.3817 26.0363C68.4617 26.3381 68.4744 26.6269 68.4727 26.937C68.4724 27.019 68.4734 27.101 68.4745 27.1831C68.4766 27.651 68.4187 28.1174 68.1813 28.5288C68.1504 28.5942 68.1195 28.6596 68.0886 28.725C68.0066 28.8893 67.9141 29.0416 67.8105 29.1929C67.7971 29.2126 67.7837 29.2324 67.7699 29.2528C67.7364 29.3003 67.7004 29.346 67.6639 29.3912C67.6411 29.3912 67.6184 29.3912 67.5949 29.3912C67.5949 29.414 67.5949 29.4367 67.5949 29.4602C67.5721 29.4602 67.5494 29.4602 67.5259 29.4602C67.5153 29.488 67.5153 29.488 67.5044 29.5163C67.4386 29.6299 67.3518 29.7222 67.25 29.8052C67.2272 29.8052 67.2044 29.8052 67.181 29.8052C67.181 29.8279 67.181 29.8507 67.181 29.8742C67.124 29.8969 67.0671 29.9197 67.0085 29.9431C67.0085 29.9659 67.0085 29.9887 67.0085 30.0121C66.9356 30.0682 66.8632 30.1193 66.7864 30.1695C66.7516 30.1924 66.7516 30.1924 66.716 30.2158C65.9635 30.7015 65.146 30.9934 64.2725 31.1742C64.2395 31.1812 64.2064 31.1882 64.1723 31.1954C63.5455 31.3194 62.9173 31.3348 62.2804 31.3316C62.2416 31.3315 62.2027 31.3314 62.1627 31.3313C61.5908 31.3292 61.0227 31.3231 60.4542 31.254C60.4096 31.2486 60.3649 31.2432 60.3189 31.2377C59.0198 31.0773 57.7188 30.7818 56.5655 30.1431C56.4541 30.0794 56.4541 30.0794 56.3367 30.0321C56.2457 29.9776 56.2457 29.9776 56.2081 29.8994C56.2124 29.7706 56.2656 29.6824 56.3298 29.5745C56.4583 29.3475 56.5672 29.1161 56.6699 28.8765C56.6806 28.8517 56.6913 28.8269 56.7024 28.8013C56.7117 28.7795 56.7209 28.7576 56.7305 28.7352C56.7632 28.6668 56.7632 28.6668 56.813 28.5838C56.8669 28.4938 56.9127 28.403 56.9576 28.3082C56.983 28.2549 56.983 28.2549 57.0089 28.2006C57.0267 28.163 57.0445 28.1255 57.0628 28.0868C57.1822 27.8364 57.302 27.5863 57.4272 27.3387C57.5195 27.1561 57.6081 26.9721 57.6946 26.7868C57.8161 26.5263 57.9433 26.269 58.0728 26.0125C58.1368 25.8855 58.2002 25.7583 58.2637 25.6311C58.2871 25.5844 58.3105 25.5377 58.3338 25.491C58.3505 25.4576 58.3673 25.4241 58.3845 25.3897C58.4072 25.3897 58.43 25.3897 58.4535 25.3897C58.4544 25.4579 58.4551 25.5262 58.4556 25.5945C58.456 25.6325 58.4564 25.6705 58.4568 25.7097C58.4544 25.8019 58.4484 25.886 58.4366 25.9768C58.4098 26.2029 58.4106 26.4299 58.4104 26.6574C58.4103 26.681 58.4103 26.7045 58.4102 26.7288C58.4107 27.1401 58.4402 27.5387 58.5225 27.9424C58.5302 27.9805 58.5302 27.9805 58.5381 28.0195C58.6036 28.3298 58.6988 28.6207 58.8329 28.9083C58.8525 28.9522 58.8525 28.9522 58.8725 28.9971C58.9682 29.2015 59.0897 29.3763 59.2271 29.5551C59.2814 29.6327 59.2814 29.6327 59.2814 29.7017C59.3041 29.7017 59.3269 29.7017 59.3504 29.7017C59.3589 29.7287 59.3674 29.7557 59.3762 29.7836C59.4276 29.8915 59.4538 29.8928 59.5573 29.9431C59.6059 29.9828 59.6533 30.0238 59.6996 30.066C59.794 30.1528 59.794 30.1528 59.9023 30.2191C59.9023 30.2419 59.9023 30.2647 59.9023 30.2881C59.9314 30.2938 59.9314 30.2938 59.9611 30.2996C60.0525 30.3262 60.1222 30.3668 60.2041 30.4153C61.3691 31.0571 62.9212 31.0518 64.1787 30.7C64.5922 30.5655 65.1059 30.3133 65.3527 29.9431C65.3754 29.9431 65.3982 29.9431 65.4217 29.9431C65.4302 29.919 65.4387 29.8948 65.4475 29.8698C65.4907 29.7707 65.4907 29.7707 65.5575 29.6741C65.7482 29.3783 65.7794 29.0511 65.7817 28.7078C65.7821 28.6777 65.7824 28.6477 65.7828 28.6167C65.7767 28.1636 65.5684 27.7746 65.2492 27.4594C65.2264 27.4481 65.2037 27.4367 65.1802 27.4249C65.1802 27.4022 65.1802 27.3794 65.1802 27.3559C65.1545 27.3465 65.1288 27.337 65.1023 27.3272C65.0149 27.29 64.9502 27.2501 64.874 27.1942C64.5043 26.9435 64.0818 26.7969 63.6614 26.6552C63.5937 26.6316 63.5268 26.6064 63.4598 26.5807C63.298 26.5196 63.1336 26.4684 62.9681 26.4181C62.9341 26.4077 62.9001 26.3974 62.8651 26.3867C62.5827 26.3018 62.2983 26.2255 62.013 26.1507C61.3094 25.9657 60.6144 25.759 59.9368 25.4932C59.9105 25.4829 59.8842 25.4726 59.8571 25.462C59.5744 25.3507 59.3008 25.2362 59.0399 25.0792C59.007 25.0608 58.9742 25.0424 58.9403 25.0234C58.4856 24.7667 57.8087 24.3332 57.6169 23.827C57.6084 23.7962 57.5999 23.7655 57.5911 23.7339C57.5683 23.7339 57.5455 23.7339 57.5221 23.7339C57.0278 22.8022 56.8751 21.7195 57.1771 20.6982C57.2963 20.3423 57.4755 20.036 57.6946 19.7323C57.7173 19.6982 57.7401 19.664 57.7635 19.6288C57.7863 19.6288 57.8091 19.6288 57.8325 19.6288C57.8553 19.5719 57.8781 19.515 57.9015 19.4564C57.9243 19.4564 57.9471 19.4564 57.9705 19.4564C57.9705 19.4336 57.9705 19.4108 57.9705 19.3874C58.018 19.3313 58.018 19.3313 58.074 19.2839C58.0968 19.2839 58.1195 19.2839 58.143 19.2839C58.143 19.2611 58.143 19.2383 58.143 19.2149C58.1708 19.2056 58.1985 19.1964 58.2271 19.1869C58.2563 19.1733 58.2854 19.1598 58.3155 19.1459C58.3269 19.1117 58.3383 19.0776 58.35 19.0424C58.5353 18.9044 58.5353 18.9044 58.626 18.9044C58.626 18.8817 58.626 18.8589 58.626 18.8354C58.679 18.796 58.679 18.796 58.7536 18.753C58.7808 18.7371 58.8081 18.7213 58.8362 18.7049C58.8657 18.6882 58.8952 18.6715 58.9256 18.6543C58.9556 18.6372 58.9856 18.6201 59.0166 18.6025C60.0896 17.9974 61.2758 17.791 62.496 17.7962Z" fill="white"/>
<path d="M76.9431 21.6641C79.1516 21.6641 81.36 21.6641 83.6353 21.6641C83.6353 21.6982 83.6353 21.7324 83.6353 21.7676C83.6099 21.7768 83.5844 21.786 83.5581 21.7956C83.105 21.9706 82.684 22.2601 82.4495 22.6989C82.4299 22.7445 82.4112 22.7905 82.3935 22.8369C82.3781 22.8731 82.3781 22.8731 82.3625 22.9101C82.0521 23.7544 82.5882 24.6575 82.9319 25.4071C82.9672 25.4834 83.0026 25.5598 83.0381 25.6361C83.0905 25.7501 83.1403 25.8648 83.1891 25.9804C83.2622 26.1539 83.3392 26.3254 83.4174 26.4968C83.4913 26.6597 83.5634 26.8234 83.6353 26.9872C83.6513 27.0235 83.6673 27.0598 83.6837 27.0972C83.7775 27.3106 83.8706 27.5243 83.9631 27.7383C83.9731 27.7616 83.9832 27.7849 83.9936 27.809C84.043 27.9232 84.0923 28.0375 84.1415 28.1518C84.1594 28.1935 84.1774 28.2351 84.1959 28.278C84.2117 28.3148 84.2276 28.3516 84.2439 28.3895C84.2911 28.495 84.3418 28.5982 84.3943 28.7012C84.5405 28.4152 84.6812 28.1304 84.8017 27.8324C84.8419 27.7373 84.8862 27.6461 84.9333 27.5543C85.0603 27.3054 85.1742 27.0508 85.2899 26.7965C85.3705 26.6197 85.4521 26.4442 85.5412 26.2714C86.0421 25.2812 86.5061 23.9581 86.156 22.8561C86.124 22.7642 86.124 22.7642 86.0501 22.6989C86.0501 22.6648 86.0501 22.6306 86.0501 22.5955C86.0273 22.5955 86.0045 22.5955 85.9811 22.5955C85.9388 22.5424 85.9388 22.5424 85.8905 22.4704C85.7785 22.3168 85.6563 22.2162 85.4981 22.1125C85.4714 22.0947 85.4447 22.0769 85.4171 22.0586C85.2124 21.9288 85.004 21.842 84.7737 21.7676C84.7737 21.7334 84.7737 21.6992 84.7737 21.6641C86.0031 21.6641 87.2326 21.6641 88.4993 21.6641C88.4303 21.802 88.4303 21.802 88.3246 21.8883C88.0673 22.1006 87.8844 22.3985 87.7192 22.6851C87.688 22.7391 87.6558 22.7926 87.6225 22.8454C87.4957 23.047 87.3947 23.2563 87.2954 23.4722C87.2199 23.6353 87.1392 23.7941 87.0526 23.9516C86.9285 24.1785 86.8225 24.4118 86.7181 24.6483C86.6354 24.8349 86.5481 25.0181 86.4554 25.1999C86.3591 25.3887 86.274 25.579 86.1945 25.7756C86.1544 25.8707 86.11 25.9618 86.063 26.0537C85.9559 26.2635 85.8586 26.4774 85.7612 26.6919C85.6411 26.9557 85.5182 27.2173 85.3871 27.4757C85.2793 27.6883 85.1788 27.9039 85.079 28.1203C85.0307 28.225 84.982 28.3294 84.9333 28.4339C84.9234 28.4551 84.9135 28.4763 84.9033 28.4982C84.8484 28.6158 84.7931 28.7332 84.7373 28.8504C84.5909 29.1582 84.4471 29.4669 84.3059 29.7771C84.1912 30.0287 84.0737 30.2779 83.9478 30.5241C83.8431 30.7308 83.7481 30.9416 83.6526 31.1526C83.5088 31.4696 83.3556 31.7776 83.1869 32.0819C83.1701 32.1136 83.1534 32.1454 83.1361 32.1781C82.9648 32.5015 82.7689 32.8123 82.566 33.1167C82.5432 33.1167 82.5204 33.1167 82.497 33.1167C82.4877 33.1424 82.4785 33.168 82.4689 33.1944C82.4296 33.2854 82.3903 33.3532 82.3245 33.4272C82.3017 33.4272 82.279 33.4272 82.2555 33.4272C82.2555 33.45 82.2555 33.4727 82.2555 33.4962C82.2327 33.4962 82.21 33.4962 82.1865 33.4962C82.178 33.5159 82.1694 33.5357 82.1606 33.556C82.1109 33.6463 82.0526 33.7083 81.9795 33.7808C81.9432 33.8173 81.9432 33.8173 81.9062 33.8546C81.8415 33.9101 81.8415 33.9101 81.7726 33.9101C81.7726 33.9329 81.7726 33.9557 81.7726 33.9791C81.6932 34.0385 81.614 34.0933 81.5311 34.1473C81.5087 34.1623 81.4864 34.1773 81.4633 34.1927C81.3074 34.2955 81.1478 34.3822 80.9791 34.4621C80.9468 34.4778 80.9144 34.4935 80.8811 34.5097C80.5976 34.636 80.3175 34.6901 80.0133 34.7381C79.9817 34.7445 79.9502 34.7509 79.9177 34.7575C79.4098 34.8262 78.8892 34.7822 78.3919 34.6691C78.3383 34.6591 78.3383 34.6591 78.2835 34.6488C77.8471 34.5589 77.4524 34.3346 77.1156 34.0481C77.0814 34.0254 77.0473 34.0026 77.0121 33.9791C77.0121 33.9564 77.0121 33.9336 77.0121 33.9101C76.9893 33.9101 76.9666 33.9101 76.9431 33.9101C76.9971 33.7606 77.073 33.6278 77.1544 33.4919C77.1691 33.4671 77.1838 33.4423 77.199 33.4168C77.2325 33.3603 77.2661 33.3039 77.2997 33.2475C77.3991 33.0806 77.498 32.9135 77.597 32.7463C77.633 32.6856 77.6689 32.625 77.7049 32.5643C77.9085 32.2208 77.9085 32.2208 78.1117 31.877C78.1254 31.8538 78.1391 31.8306 78.1533 31.8067C78.2135 31.7045 78.272 31.6025 78.323 31.4954C78.3457 31.4954 78.3685 31.4954 78.3919 31.4954C78.3956 31.4762 78.3993 31.457 78.4031 31.4372C78.4481 31.2832 78.5434 31.1513 78.6256 31.0146C78.6753 30.9311 78.7238 30.847 78.7723 30.7629C78.8094 30.6995 78.8464 30.6361 78.8835 30.5727C78.9014 30.5414 78.9193 30.5101 78.9378 30.4779C78.9549 30.4489 78.9721 30.4199 78.9897 30.3899C79.005 30.3637 79.0202 30.3374 79.036 30.3103C79.0511 30.2916 79.0663 30.2729 79.0819 30.2536C79.116 30.2536 79.1502 30.2536 79.1854 30.2536C79.1816 30.2758 79.1778 30.2981 79.1739 30.3211C79.1619 30.3924 79.1502 30.4637 79.1386 30.5351C79.1231 30.6277 79.1065 30.7197 79.0887 30.8118C78.9815 31.3912 78.9241 32.0324 79.1164 32.5993C79.1308 32.6439 79.1308 32.6439 79.1455 32.6893C79.2617 33.0119 79.4268 33.3046 79.7199 33.492C79.737 33.5048 79.7541 33.5175 79.7718 33.5307C79.7718 33.5535 79.7718 33.5762 79.7718 33.5997C79.7974 33.604 79.823 33.6082 79.8494 33.6126C79.9443 33.6342 79.9443 33.6342 80.0111 33.6687C80.3327 33.8246 80.8616 33.7663 81.1954 33.671C81.3295 33.6186 81.4473 33.5484 81.5669 33.4688C81.6346 33.4272 81.6346 33.4272 81.7036 33.4272C81.7036 33.4044 81.7036 33.3817 81.7036 33.3582C81.772 33.3 81.841 33.2425 81.9105 33.1857C81.9219 33.163 81.9333 33.1402 81.945 33.1167C81.9678 33.1167 81.9906 33.1167 82.014 33.1167C82.0258 33.0901 82.0258 33.0901 82.0377 33.0628C82.083 32.9788 82.083 32.9788 82.1333 32.9352C82.2017 32.8692 82.2302 32.83 82.2555 32.7373C82.2107 32.5429 82.1316 32.3662 82.0485 32.1853C82.0327 32.1497 82.0169 32.114 82.0006 32.0773C81.9743 32.019 81.9476 31.9609 81.92 31.9032C81.8828 31.8208 81.8489 31.7384 81.8158 31.6543C81.7575 31.5072 81.6958 31.3617 81.6326 31.2166C81.6231 31.195 81.6137 31.1734 81.604 31.1511C81.5649 31.0617 81.5258 30.9724 81.4866 30.8831C81.3688 30.6144 81.256 30.3453 81.1534 30.0703C81.1227 29.9919 81.0895 29.9183 81.0503 29.8439C80.9833 29.7162 80.9305 29.5835 80.8778 29.4494C80.8195 29.301 80.76 29.154 80.6924 29.0096C80.6031 28.8175 80.5241 28.6215 80.4445 28.4253C80.3538 28.2018 80.2616 27.9802 80.1596 27.7616C80.0906 27.6082 80.0282 27.4521 79.9647 27.2963C79.8942 27.1241 79.8193 26.9545 79.7412 26.7856C79.6906 26.6734 79.6454 26.5595 79.6003 26.445C79.5072 26.21 79.4095 25.9772 79.3039 25.7475C79.2372 25.6021 79.1759 25.4555 79.1173 25.3066C79.0277 25.0803 78.9345 24.8557 78.8318 24.635C78.7422 24.4406 78.6622 24.2426 78.5817 24.0443C78.4268 23.6609 78.4268 23.6609 78.254 23.2854C78.2431 23.2634 78.2323 23.2414 78.2211 23.2187C78.0766 22.9281 77.9324 22.6604 77.717 22.4156C77.6675 22.354 77.6675 22.354 77.6675 22.285C77.6448 22.285 77.622 22.285 77.5985 22.285C77.508 22.2031 77.508 22.2031 77.4261 22.1125C77.4261 22.0897 77.4261 22.067 77.4261 22.0435C77.4068 22.0343 77.3876 22.025 77.3678 22.0155C77.2808 21.9708 77.1971 21.9254 77.1156 21.871C77.1156 21.8483 77.1156 21.8255 77.1156 21.802C77.0935 21.7985 77.0715 21.7949 77.0488 21.7913C77.0253 21.7834 77.0018 21.7756 76.9776 21.7676C76.9662 21.7334 76.9548 21.6992 76.9431 21.6641Z" fill="white"/>
<path d="M90.171 7.58067C90.2604 7.66224 90.3475 7.74345 90.4311 7.83106C90.4311 7.85382 90.4311 7.87659 90.4311 7.90005C90.4538 7.90005 90.4766 7.90005 90.5001 7.90005C90.5342 7.98543 90.5342 7.98543 90.5691 8.07253C90.5918 8.07253 90.6146 8.07253 90.638 8.07253C90.7415 8.22378 90.7415 8.22378 90.7415 8.314C90.7643 8.314 90.7871 8.314 90.8105 8.314C90.8598 8.4126 90.9091 8.51122 90.9582 8.60991C90.9957 8.68459 91.0337 8.75901 91.0725 8.83306C91.3606 9.38874 91.4814 9.97426 91.5694 10.5907C89.6228 10.5907 87.6762 10.5907 85.6706 10.5907C85.7738 12.1218 85.7738 12.1218 86.4196 13.4969C86.464 13.5574 86.464 13.5574 86.464 13.6264C86.4868 13.6264 86.5096 13.6264 86.533 13.6264C86.5684 13.6652 86.6019 13.7058 86.6344 13.7471C87.07 14.2567 87.672 14.4332 88.3161 14.4845C89.1771 14.5312 89.9595 14.2597 90.5992 13.6932C90.7003 13.6023 90.7764 13.5224 90.8518 13.4088C90.8723 13.3781 90.8929 13.3475 90.914 13.3159C90.9368 13.3159 90.9596 13.3159 90.983 13.3159C90.9937 13.2889 91.0044 13.2619 91.0153 13.234C91.052 13.1434 91.052 13.1434 91.0865 13.0745C91.1093 13.0745 91.132 13.0745 91.1555 13.0745C91.1606 13.0472 91.1606 13.0472 91.1657 13.0195C91.198 12.9092 91.2493 12.8143 91.3021 12.7122C91.4145 12.4925 91.5128 12.269 91.6039 12.0396C91.6381 12.0396 91.6722 12.0396 91.7074 12.0396C91.6543 12.959 91.4729 13.7874 91.0175 14.5923C91.0005 14.6233 91.0005 14.6233 90.9832 14.6549C90.9117 14.7841 90.8333 14.8989 90.7394 15.0127C90.6405 15.1331 90.6405 15.1331 90.5476 15.2581C90.5319 15.2774 90.5162 15.2968 90.5001 15.3167C90.4773 15.3167 90.4545 15.3167 90.4311 15.3167C90.4197 15.3508 90.4083 15.385 90.3966 15.4202C90.3282 15.4829 90.2605 15.5402 90.1874 15.597C90.166 15.6137 90.1445 15.6304 90.1224 15.6476C89.1801 16.362 88.0477 16.5811 86.8888 16.5758C86.854 16.5757 86.8192 16.5757 86.7834 16.5756C86.0579 16.5731 85.4022 16.4902 84.7392 16.1791C84.7135 16.1674 84.6877 16.1558 84.6612 16.1438C84.5937 16.1118 84.5286 16.0773 84.4633 16.0411C84.4096 16.0116 84.4096 16.0116 84.3548 15.9814C84.1323 15.8558 84.1323 15.8558 84.0493 15.7996C84.0493 15.7769 84.0493 15.7541 84.0493 15.7306C84.0118 15.7178 84.0118 15.7178 83.9734 15.7048C83.8672 15.6574 83.797 15.6014 83.7108 15.5237C83.6836 15.4995 83.6563 15.4753 83.6282 15.4504C83.5664 15.3857 83.5664 15.3857 83.5664 15.3167C83.5436 15.3167 83.5208 15.3167 83.4974 15.3167C83.4378 15.2512 83.4378 15.2512 83.3723 15.1658C83.3396 15.1238 83.3396 15.1238 83.3063 15.0809C83.2559 15.0062 83.2559 15.0062 83.2559 14.9372C83.2331 14.9372 83.2104 14.9372 83.1869 14.9372C83.1281 14.8484 83.0738 14.76 83.0209 14.6677C83.0053 14.6408 82.9898 14.6138 82.9737 14.586C82.6563 14.0303 82.4892 13.4739 82.4042 12.8428C82.3954 12.7783 82.3856 12.7139 82.3754 12.6496C82.2937 12.0179 82.3251 11.3142 82.4625 10.6942C82.4692 10.6631 82.4758 10.6319 82.4827 10.5998C82.6317 9.92157 82.8962 9.31988 83.2559 8.72795C83.2787 8.72795 83.3014 8.72795 83.3249 8.72795C83.3292 8.70732 83.3334 8.68669 83.3378 8.66543C83.3594 8.58997 83.3594 8.58997 83.4284 8.48648C83.4511 8.48648 83.4739 8.48648 83.4974 8.48648C83.5201 8.42956 83.5429 8.37264 83.5664 8.314C83.5891 8.314 83.6119 8.314 83.6354 8.314C83.6428 8.29537 83.6502 8.27674 83.6579 8.25754C83.7208 8.14709 83.8063 8.06389 83.8962 7.97551C83.9148 7.95714 83.9334 7.93876 83.9525 7.91983C84.1024 7.77367 84.2587 7.64277 84.4288 7.52059C84.4548 7.50089 84.4808 7.48119 84.5076 7.4609C86.0827 6.30072 88.6856 6.25102 90.171 7.58067ZM86.3023 7.5939C85.939 8.15235 85.7921 8.78953 85.7149 9.44119C85.7062 9.51263 85.6958 9.58385 85.6852 9.65503C85.6663 9.83955 85.6706 10.0258 85.6706 10.2113C86.5699 10.2113 87.4692 10.2113 88.3958 10.2113C88.4258 9.9414 88.4363 9.68789 88.4303 9.41787C88.4299 9.39247 88.4294 9.36706 88.429 9.34088C88.4151 8.66238 88.3271 8.02634 88.0164 7.41711C87.9936 7.41711 87.9708 7.41711 87.9474 7.41711C87.9367 7.38829 87.9367 7.38829 87.9258 7.35889C87.8139 7.17069 87.6333 7.06978 87.4299 7.00315C86.9693 6.94069 86.5751 7.25026 86.3023 7.5939Z" fill="white"/>
<path d="M102.968 22.3375C102.986 22.3543 103.004 22.3712 103.022 22.3886C103.022 22.4113 103.022 22.4341 103.022 22.4575C103.045 22.4575 103.068 22.4575 103.091 22.4575C103.091 22.4803 103.091 22.5031 103.091 22.5265C103.114 22.5265 103.137 22.5265 103.16 22.5265C103.16 22.5493 103.16 22.5721 103.16 22.5955C103.194 22.6069 103.228 22.6183 103.264 22.63C103.264 22.6528 103.264 22.6756 103.264 22.699C103.286 22.699 103.309 22.699 103.333 22.699C103.377 22.7494 103.377 22.7494 103.423 22.8154C103.439 22.837 103.454 22.8587 103.47 22.8809C103.505 22.9405 103.505 22.9405 103.505 23.0095C103.528 23.0095 103.551 23.0095 103.574 23.0095C103.771 23.3463 103.95 23.6799 104.092 24.0444C104.102 24.0718 104.113 24.0992 104.125 24.1274C104.219 24.3718 104.276 24.6154 104.324 24.8723C104.332 24.9108 104.34 24.9494 104.347 24.9891C104.402 25.2701 104.402 25.2701 104.402 25.3897C102.455 25.3897 100.509 25.3897 98.5032 25.3897C98.5811 26.4042 98.5811 26.4042 98.8072 27.3797C98.8159 27.4074 98.8246 27.4351 98.8336 27.4636C98.8975 27.6589 98.9779 27.8349 99.0861 28.0103C99.1241 28.0804 99.1241 28.0804 99.1241 28.1839C99.1469 28.1839 99.1696 28.1839 99.1931 28.1839C99.2966 28.3351 99.2966 28.3351 99.2966 28.4254C99.3194 28.4254 99.3421 28.4254 99.3656 28.4254C99.4215 28.4833 99.4215 28.4833 99.4842 28.559C99.5582 28.6483 99.6128 28.7052 99.7105 28.7703C99.7105 28.7931 99.7105 28.8158 99.7105 28.8393C99.7347 28.8478 99.7589 28.8564 99.7838 28.8652C99.883 28.9083 99.883 28.9083 99.9714 28.973C100.471 29.3152 101.234 29.3584 101.817 29.2615C102.22 29.1851 102.59 29.0653 102.953 28.8722C103.022 28.8393 103.022 28.8393 103.091 28.8393C103.091 28.8165 103.091 28.7938 103.091 28.7703C103.147 28.7207 103.147 28.7207 103.221 28.6668C103.245 28.649 103.269 28.6313 103.293 28.6129C103.362 28.5668 103.43 28.5294 103.505 28.4943C103.505 28.4716 103.505 28.4488 103.505 28.4254C103.528 28.4254 103.551 28.4254 103.574 28.4254C103.583 28.3997 103.591 28.3741 103.6 28.3477C103.647 28.2433 103.699 28.1944 103.781 28.1149C103.868 28.0038 103.943 27.9047 103.988 27.7699C104.011 27.7699 104.034 27.7699 104.057 27.7699C104.061 27.7507 104.064 27.7315 104.068 27.7117C104.092 27.6319 104.092 27.6319 104.138 27.5584C104.221 27.4138 104.269 27.2591 104.321 27.1014C104.387 26.9165 104.387 26.9165 104.474 26.8654C104.496 26.8566 104.518 26.8477 104.54 26.8385C104.544 27.0564 104.531 27.2616 104.497 27.4767C104.492 27.5067 104.487 27.5367 104.483 27.5676C104.341 28.4398 104.052 29.2074 103.505 29.9087C103.486 29.9354 103.468 29.9621 103.448 29.9897C103.433 30.0085 103.418 30.0273 103.402 30.0467C103.379 30.0467 103.356 30.0467 103.333 30.0467C103.333 30.0694 103.333 30.0922 103.333 30.1157C103.31 30.1157 103.287 30.1157 103.264 30.1157C103.264 30.1384 103.264 30.1612 103.264 30.1847C103.216 30.2407 103.216 30.2407 103.16 30.2881C103.137 30.2881 103.115 30.2881 103.091 30.2881C103.091 30.3109 103.091 30.3337 103.091 30.3571C103.042 30.3991 103.042 30.3991 102.972 30.4459C102.947 30.4632 102.921 30.4804 102.895 30.4981C101.611 31.3409 100.067 31.5665 98.5594 31.3027C98.4471 31.279 98.3376 31.2507 98.2272 31.2195C98.2043 31.2131 98.1814 31.2068 98.1578 31.2002C97.5833 31.0363 97.017 30.7625 96.5714 30.3571C96.5714 30.3344 96.5714 30.3116 96.5714 30.2881C96.5373 30.2768 96.5031 30.2654 96.4679 30.2536C96.4679 30.2309 96.4679 30.2081 96.4679 30.1847C96.4452 30.1847 96.4224 30.1847 96.3989 30.1847C96.3989 30.1619 96.3989 30.1391 96.3989 30.1157C96.3762 30.1157 96.3534 30.1157 96.3299 30.1157C96.2628 30.0426 96.2628 30.0426 96.1876 29.9475C96.1626 29.9163 96.1377 29.8851 96.1119 29.8529C96.054 29.7707 96.054 29.7707 96.054 29.7017C96.0312 29.7017 96.0084 29.7017 95.985 29.7017C95.6508 29.1215 95.3613 28.5435 95.2606 27.8734C95.2542 27.8355 95.2478 27.7976 95.2413 27.7585C95.1349 27.0227 95.15 26.2566 95.2951 25.5277C95.3002 25.5014 95.3054 25.4752 95.3107 25.4482C95.498 24.526 95.9258 23.6322 96.5714 22.9405C96.5942 22.9405 96.6169 22.9405 96.6404 22.9405C96.6496 22.9199 96.6589 22.8992 96.6684 22.878C96.7094 22.8026 96.7472 22.7537 96.8129 22.699C96.8356 22.699 96.8584 22.699 96.8819 22.699C96.8904 22.6786 96.8989 22.6581 96.9077 22.637C96.9574 22.5495 97.0078 22.5079 97.0888 22.4489C97.113 22.431 97.1372 22.413 97.1622 22.3945C97.2268 22.3541 97.2268 22.3541 97.2958 22.3541C97.2958 22.3313 97.2958 22.3085 97.2958 22.2851C98.9105 21.0663 101.393 21.1326 102.968 22.3375ZM99.3311 22.1816C99.3197 22.2157 99.3083 22.2499 99.2966 22.2851C99.2738 22.2851 99.2511 22.2851 99.2276 22.2851C99.1477 22.3962 99.1477 22.3962 99.1241 22.5265C99.1013 22.5265 99.0786 22.5265 99.0551 22.5265C98.7513 23.1006 98.604 23.6976 98.5334 24.3397C98.5303 24.3666 98.5273 24.3935 98.5242 24.4212C98.5035 24.6206 98.5032 24.8073 98.5032 25.0102C99.4025 25.0102 100.302 25.0102 101.228 25.0102C101.257 24.8973 101.267 24.8195 101.267 24.7058C101.268 24.6735 101.268 24.6412 101.268 24.6078C101.268 24.5734 101.267 24.539 101.267 24.5036C101.267 24.4681 101.267 24.4325 101.267 24.3959C101.263 23.1516 101.263 23.1516 100.711 22.0781C100.693 22.0584 100.676 22.0387 100.658 22.0184C100.254 21.6135 99.6949 21.8486 99.3311 22.1816Z" fill="white"/>
<path d="M107.248 6.61715C107.273 6.61719 107.298 6.61722 107.324 6.61725C108.358 6.62012 109.376 6.74428 110.37 7.03757C110.413 7.05007 110.457 7.06256 110.502 7.07544C110.687 7.12999 110.854 7.18952 111.025 7.27905C110.95 7.88642 110.852 8.49089 110.737 9.09184C110.71 9.23467 110.688 9.37785 110.667 9.52156C110.637 9.72078 110.604 9.9196 110.572 10.1185C110.566 10.1579 110.56 10.1972 110.553 10.2378C110.538 10.3324 110.523 10.4271 110.508 10.5217C110.462 10.5217 110.417 10.5217 110.37 10.5217C110.366 10.5005 110.363 10.4794 110.36 10.4576C110.185 9.34577 109.841 8.28575 108.932 7.5507C108.248 7.06592 107.437 6.93267 106.614 7.05192C106.214 7.12947 105.845 7.27725 105.609 7.62401C105.568 7.71416 105.534 7.80491 105.506 7.89997C105.499 7.92114 105.493 7.94231 105.487 7.96411C105.423 8.27429 105.468 8.55228 105.609 8.83137C105.622 8.85729 105.635 8.88321 105.648 8.90993C105.658 8.92954 105.668 8.94915 105.678 8.96935C105.701 8.96935 105.724 8.96935 105.747 8.96935C105.747 8.99212 105.747 9.01488 105.747 9.03834C105.784 9.05115 105.784 9.05115 105.821 9.06421C105.92 9.10733 105.92 9.10733 106.014 9.17282C106.568 9.52993 107.332 9.6424 107.968 9.7639C108.242 9.81737 108.511 9.8824 108.781 9.95464C108.817 9.96433 108.854 9.97402 108.891 9.98401C109.115 10.0453 109.328 10.1216 109.542 10.2112C109.598 10.2329 109.654 10.2545 109.71 10.2759C110.151 10.4542 110.562 10.6906 110.922 11.0046C110.922 11.0274 110.922 11.0501 110.922 11.0736C110.944 11.0736 110.967 11.0736 110.991 11.0736C110.991 11.0964 110.991 11.1191 110.991 11.1426C111.013 11.1426 111.036 11.1426 111.06 11.1426C111.604 11.7566 111.798 12.5099 111.793 13.3158C111.793 13.3566 111.793 13.3973 111.794 13.4393C111.792 14.1668 111.575 14.8868 111.06 15.4201C111.014 15.4431 110.968 15.4661 110.922 15.4891C110.91 15.5232 110.899 15.5574 110.887 15.5926C110.864 15.5926 110.842 15.5926 110.818 15.5926C110.818 15.6154 110.818 15.6381 110.818 15.6616C110.746 15.7146 110.674 15.7629 110.598 15.8103C110.576 15.8243 110.554 15.8382 110.531 15.8526C110.038 16.1597 109.521 16.3378 108.955 16.455C108.921 16.4623 108.921 16.4623 108.887 16.4697C108.381 16.5746 107.874 16.5745 107.36 16.572C107.241 16.5714 107.121 16.5717 107.001 16.5723C105.589 16.5783 104.177 16.3978 102.85 15.903C102.876 15.6549 102.909 15.4083 102.944 15.1614C102.954 15.0983 102.954 15.0983 102.963 15.0339C103.012 14.6951 103.063 14.3567 103.115 14.0184C103.162 13.7117 103.207 13.4048 103.25 13.0976C103.255 13.0645 103.26 13.0314 103.265 12.9972C103.288 12.8335 103.311 12.6697 103.334 12.5059C103.342 12.4461 103.351 12.3863 103.359 12.3265C103.363 12.299 103.367 12.2714 103.37 12.2431C103.386 12.1366 103.402 12.0383 103.436 11.936C103.47 11.936 103.504 11.936 103.54 11.936C103.541 11.9565 103.543 11.9769 103.544 11.998C103.615 12.9097 103.804 13.7327 104.296 14.5124C104.367 14.6267 104.367 14.6267 104.367 14.6957C104.39 14.6957 104.413 14.6957 104.436 14.6957C104.495 14.76 104.495 14.76 104.559 14.8445C104.591 14.8859 104.591 14.8859 104.624 14.9281C104.678 15.0062 104.678 15.0062 104.712 15.1096C104.758 15.1343 104.804 15.1572 104.85 15.1786C104.887 15.2083 104.923 15.2393 104.958 15.2713C105.271 15.5437 105.615 15.7282 105.989 15.903C106.019 15.9177 106.05 15.9324 106.081 15.9475C106.337 16.0608 106.611 16.1006 106.886 16.1445C106.924 16.151 106.963 16.1575 107.003 16.1642C107.58 16.233 108.172 16.1889 108.713 15.9762C108.806 15.9418 108.892 15.9192 108.99 15.903C108.99 15.8803 108.99 15.8575 108.99 15.8341C109.141 15.7306 109.141 15.7306 109.231 15.7306C109.231 15.7078 109.231 15.685 109.231 15.6616C109.254 15.6616 109.277 15.6616 109.3 15.6616C109.31 15.6367 109.319 15.6118 109.328 15.5861C109.369 15.4891 109.369 15.4891 109.419 15.4136C109.574 15.134 109.628 14.8188 109.557 14.5053C109.511 14.3606 109.451 14.2375 109.369 14.1093C109.369 14.0865 109.369 14.0637 109.369 14.0403C109.347 14.0403 109.324 14.0403 109.3 14.0403C109.21 13.9583 109.21 13.9583 109.128 13.8678C109.128 13.845 109.128 13.8222 109.128 13.7988C109.098 13.7895 109.068 13.7802 109.037 13.7706C108.924 13.7309 108.822 13.6834 108.716 13.6285C108.434 13.4829 108.171 13.3899 107.862 13.3158C107.792 13.2986 107.721 13.2814 107.651 13.2641C107.616 13.2556 107.58 13.2471 107.544 13.2384C107.437 13.2122 107.329 13.1851 107.222 13.1579C107.084 13.1233 106.946 13.0916 106.807 13.063C106.4 12.9786 106.005 12.8568 105.609 12.7294C105.582 12.7206 105.554 12.7118 105.525 12.7027C105.032 12.5448 104.539 12.3225 104.126 12.005C104.126 11.9822 104.126 11.9595 104.126 11.936C104.106 11.9271 104.086 11.9182 104.065 11.9091C103.982 11.8636 103.925 11.8135 103.859 11.7463C103.837 11.7253 103.816 11.7043 103.794 11.6827C103.747 11.6255 103.747 11.6255 103.747 11.5566C103.712 11.5452 103.678 11.5338 103.643 11.5221C103.588 11.4423 103.539 11.3651 103.492 11.2806C103.478 11.2561 103.465 11.2316 103.451 11.2063C103.356 11.0307 103.285 10.855 103.229 10.664C103.219 10.6296 103.219 10.6296 103.209 10.5946C103.017 9.88491 103.042 8.94856 103.38 8.28994C103.487 8.10766 103.603 7.91725 103.747 7.76199C103.769 7.76199 103.792 7.76199 103.815 7.76199C103.828 7.73191 103.828 7.73191 103.841 7.70122C104.048 7.33659 104.606 7.098 104.988 6.96858C105.012 6.96062 105.035 6.95266 105.059 6.94446C105.475 6.80431 105.886 6.71676 106.322 6.66731C106.373 6.66152 106.424 6.65521 106.474 6.64819C106.731 6.61422 106.989 6.61672 107.248 6.61715Z" fill="white"/>
<path d="M100.883 7.27929C100.836 7.76802 100.751 8.2493 100.665 8.73257C100.634 8.90943 100.604 9.08641 100.573 9.2634C100.545 9.428 100.517 9.59255 100.488 9.75711C100.476 9.82653 100.464 9.89595 100.452 9.96537C100.438 10.0488 100.424 10.1323 100.409 10.2158C100.401 10.26 100.394 10.3042 100.386 10.3497C100.366 10.4529 100.366 10.4529 100.331 10.5564C100.309 10.5564 100.286 10.5564 100.262 10.5564C100.254 10.5155 100.246 10.4746 100.237 10.4324C100.076 9.65246 99.896 8.93079 99.4502 8.25718C99.4001 8.17619 99.4001 8.17619 99.3656 8.0727C99.3428 8.0727 99.32 8.0727 99.2966 8.0727C99.288 8.04567 99.2795 8.01863 99.2707 7.99077C99.2194 7.88304 99.1953 7.87821 99.0896 7.83123C99.0156 7.77755 98.9506 7.72051 98.8826 7.65875C98.8826 7.63598 98.8826 7.61322 98.8826 7.58976C98.8638 7.58078 98.845 7.57179 98.8256 7.56254C98.7317 7.51412 98.6429 7.45934 98.5527 7.40434C98.0888 7.13329 97.5957 7.01818 97.0608 7.02273C97.0184 7.02294 96.9761 7.02315 96.9324 7.02337C96.5058 7.03071 96.1534 7.10443 95.778 7.31379C95.7267 7.33087 95.7267 7.33087 95.6745 7.34829C95.6745 7.37105 95.6745 7.39382 95.6745 7.41728C95.6489 7.44147 95.6233 7.46566 95.5969 7.49058C95.3634 7.73469 95.3184 8.01244 95.3245 8.3422C95.3437 8.63154 95.5014 8.87729 95.7047 9.0774C96.2801 9.53468 97.1905 9.64547 97.8909 9.77594C98.7736 9.94995 99.8777 10.2141 100.573 10.8324C100.573 10.8552 100.573 10.8779 100.573 10.9014C100.607 10.9014 100.641 10.9014 100.676 10.9014C100.676 10.9241 100.676 10.9469 100.676 10.9704C100.699 10.9704 100.722 10.9704 100.745 10.9704C100.836 11.0523 100.836 11.0523 100.918 11.1428C100.918 11.1656 100.918 11.1884 100.918 11.2118C100.941 11.2118 100.963 11.2118 100.987 11.2118C101.021 11.2972 101.021 11.2972 101.056 11.3843C101.079 11.3843 101.101 11.3843 101.125 11.3843C101.495 11.9919 101.664 12.5945 101.657 13.3118C101.657 13.3359 101.657 13.3601 101.657 13.385C101.655 13.7466 101.631 14.0779 101.504 14.42C101.494 14.4516 101.483 14.4832 101.472 14.5158C101.44 14.6012 101.405 14.6826 101.366 14.7649C101.353 14.7945 101.34 14.824 101.326 14.8544C101.185 15.1423 100.978 15.3742 100.745 15.5928C100.723 15.5928 100.7 15.5928 100.676 15.5928C100.676 15.6156 100.676 15.6384 100.676 15.6618C100.604 15.7149 100.532 15.7632 100.456 15.8106C100.434 15.8245 100.412 15.8385 100.389 15.8529C99.8965 16.16 99.3791 16.338 98.8136 16.4552C98.7796 16.4625 98.7796 16.4625 98.745 16.4699C98.239 16.5751 97.7312 16.5747 97.2167 16.5722C97.0966 16.5716 96.9765 16.572 96.8564 16.5726C96.2383 16.5752 95.6321 16.5398 95.0191 16.4552C94.9791 16.4498 94.9391 16.4443 94.8979 16.4386C94.1457 16.3343 93.4144 16.1878 92.7078 15.9033C92.829 15.0477 92.9513 14.1923 93.0787 13.3377C93.0836 13.3047 93.0885 13.2717 93.0935 13.2377C93.1582 12.8035 93.2251 12.3697 93.2943 11.9363C93.3284 11.9363 93.3626 11.9363 93.3977 11.9363C93.3982 11.9607 93.3987 11.9852 93.3992 12.0104C93.4431 12.9903 93.7237 13.922 94.3054 14.714C94.3636 14.7994 94.3636 14.7994 94.3636 14.8684C94.3864 14.8684 94.4092 14.8684 94.4326 14.8684C94.4861 14.9239 94.4861 14.9239 94.5469 14.9978C94.6392 15.107 94.7341 15.1937 94.8466 15.2824C94.8466 15.3051 94.8466 15.3279 94.8466 15.3514C94.9035 15.3741 94.9604 15.3969 95.0191 15.4204C95.0191 15.4431 95.0191 15.4659 95.0191 15.4893C95.0442 15.4987 95.0694 15.5081 95.0953 15.5178C95.1878 15.5568 95.2665 15.6017 95.3511 15.6554C96.2352 16.1903 97.297 16.3094 98.2962 16.0758C98.6398 15.9887 98.9117 15.8495 99.1586 15.5928C99.1813 15.5928 99.2041 15.5928 99.2276 15.5928C99.2276 15.5587 99.2276 15.5245 99.2276 15.4893C99.2503 15.4893 99.2731 15.4893 99.2966 15.4893C99.3011 15.4693 99.3057 15.4492 99.3104 15.4286C99.3311 15.3514 99.3311 15.3514 99.3571 15.2882C99.466 15.0213 99.4906 14.7012 99.4034 14.4248C99.3674 14.3435 99.3674 14.3435 99.3267 14.2728C99.2966 14.213 99.2966 14.213 99.2966 14.1095C99.2738 14.1095 99.251 14.1095 99.2276 14.1095C99.1694 14.0411 99.1119 13.9721 99.0551 13.9025C99.0323 13.8911 99.0096 13.8798 98.9861 13.868C98.9861 13.8453 98.9861 13.8225 98.9861 13.799C98.9626 13.7905 98.9391 13.782 98.915 13.7732C98.8136 13.73 98.8136 13.73 98.7051 13.6655C98.5669 13.586 98.425 13.5302 98.2746 13.4778C98.2455 13.4676 98.2163 13.4574 98.1862 13.4469C97.76 13.3034 97.3198 13.2094 96.8818 13.1091C96.7518 13.0788 96.6219 13.0481 96.4919 13.0174C96.3594 12.9861 96.3594 12.9861 96.2268 12.9555C95.8688 12.8736 95.5327 12.7617 95.1915 12.6262C95.1448 12.6086 95.1448 12.6086 95.0972 12.5907C94.8439 12.4943 94.6047 12.37 94.3636 12.2467C94.3177 12.2237 94.2717 12.2006 94.2256 12.1777C94.2256 12.155 94.2256 12.1322 94.2256 12.1087C94.1915 12.1087 94.1573 12.1087 94.1222 12.1087C94.1222 12.086 94.1222 12.0632 94.1222 12.0397C94.1021 12.0306 94.0821 12.0214 94.0614 12.012C93.558 11.7432 93.257 11.1793 93.0873 10.6599C92.9699 10.2365 92.9737 9.78493 92.9838 9.34906C92.9844 9.31682 92.9849 9.28458 92.9855 9.25136C93.0176 8.64068 93.3094 8.05044 93.7426 7.62574C93.8997 7.48627 93.8997 7.48627 93.9842 7.48627C93.9842 7.4635 93.9842 7.44074 93.9842 7.41728C94.5135 7.01501 95.2623 6.77623 95.916 6.69286C95.9795 6.68339 95.9795 6.68339 96.0444 6.67373C97.5205 6.47295 99.5535 6.55636 100.883 7.27929Z" fill="white"/>
<path d="M88.3268 18.0073C89.8978 18.0073 91.4687 18.0073 93.0873 18.0073C93.0876 18.3662 93.0879 18.7251 93.0883 19.0949C93.0894 20.2432 93.0912 21.3915 93.0934 22.5399C93.0938 22.7182 93.0941 22.8966 93.0945 23.075C93.0945 23.1105 93.0946 23.146 93.0947 23.1826C93.0957 23.7576 93.0963 24.3325 93.0967 24.9075C93.0971 25.4975 93.0981 26.0875 93.0995 26.6774C93.1004 27.0415 93.1009 27.4055 93.1008 27.7696C93.1008 28.0192 93.1013 28.2689 93.1022 28.5185C93.1027 28.6625 93.103 28.8066 93.1027 28.9506C93.1024 29.0826 93.1027 29.2145 93.1036 29.3465C93.1039 29.4166 93.1035 29.4867 93.1031 29.5569C93.1064 29.9114 93.1832 30.1638 93.4263 30.4245C93.6639 30.6476 93.9265 30.8231 94.2195 30.9645C94.2947 31.0123 94.2947 31.0123 94.3636 31.1503C92.3715 31.1503 90.3794 31.1503 88.3268 31.1503C88.402 31.0001 88.4234 30.9871 88.5662 30.9175C88.7514 30.8221 88.9132 30.709 89.0783 30.5825C89.1547 30.5294 89.1547 30.5294 89.2237 30.5294C89.2355 30.5016 89.2355 30.5016 89.2475 30.4733C89.295 30.3873 89.3528 30.3201 89.4198 30.2484C89.5873 30.0123 89.5835 29.7897 89.5821 29.5087C89.5823 29.4649 89.5824 29.4211 89.5826 29.376C89.5831 29.2548 89.583 29.1336 89.5827 29.0125C89.5826 28.8816 89.583 28.7508 89.5834 28.62C89.5839 28.3638 89.584 28.1076 89.5838 27.8514C89.5837 27.6432 89.5837 27.4349 89.5839 27.2267C89.5839 27.1822 89.5839 27.1822 89.584 27.1368C89.584 27.0766 89.5841 27.0163 89.5841 26.9561C89.5846 26.3913 89.5844 25.8264 89.584 25.2616C89.5837 24.7451 89.5841 24.2286 89.5849 23.7121C89.5858 23.1815 89.5861 22.6509 89.5859 22.1203C89.5858 21.8225 89.5858 21.5248 89.5865 21.227C89.587 20.9734 89.587 20.7199 89.5864 20.4664C89.5861 20.3371 89.586 20.2078 89.5865 20.0785C89.5871 19.9383 89.5866 19.798 89.586 19.6577C89.5863 19.617 89.5867 19.5763 89.587 19.5344C89.5838 19.1793 89.4847 18.9311 89.2421 18.6718C89.0386 18.49 88.7986 18.3575 88.564 18.2202C88.5327 18.2019 88.5014 18.1836 88.4691 18.1647C88.4415 18.1491 88.4138 18.1335 88.3853 18.1174C88.366 18.1039 88.3467 18.0903 88.3268 18.0763C88.3268 18.0535 88.3268 18.0308 88.3268 18.0073Z" fill="white"/>
<path d="M79.8516 6.67547C79.8886 6.67525 79.9256 6.67503 79.9637 6.6748C80.6006 6.68494 81.1679 6.93172 81.6691 7.31365C81.6488 7.501 81.5833 7.65137 81.5052 7.82031C81.4926 7.84808 81.48 7.87586 81.4671 7.90448C81.4312 7.98362 81.395 8.06261 81.3586 8.14155C81.231 8.4193 81.1094 8.69919 80.9895 8.98033C80.9237 9.13419 80.8575 9.28758 80.7873 9.43946C80.7097 9.60735 80.6386 9.77767 80.5674 9.94828C80.4749 10.1696 80.3786 10.3881 80.2766 10.6052C80.1888 10.7978 80.1067 10.9929 80.0248 11.1881C79.9369 11.3957 79.8403 11.5976 79.7373 11.7981C79.7145 11.7981 79.6918 11.7981 79.6683 11.7981C79.6732 11.7162 79.6783 11.6343 79.6834 11.5523C79.6848 11.5294 79.6861 11.5065 79.6875 11.4828C79.6963 11.3443 79.7138 11.2104 79.7373 11.0737C79.7731 10.7348 79.7761 10.3939 79.7779 10.0534C79.7782 9.98462 79.7789 9.91589 79.7796 9.84716C79.7801 9.31055 79.7036 8.85925 79.4613 8.38302C79.4613 8.36026 79.4613 8.33749 79.4613 8.31403C79.4393 8.30478 79.4172 8.29553 79.3945 8.286C79.3233 8.24504 79.3233 8.24504 79.2888 8.14155C79.2294 8.1194 79.2294 8.1194 79.1509 8.10705C79.1139 8.09496 79.0769 8.08286 79.0387 8.0704C78.7947 8.00939 78.6218 8.03076 78.3913 8.11891C78.323 8.14155 78.323 8.14155 78.2195 8.14155C78.2195 8.16432 78.2195 8.18709 78.2195 8.21054C78.1803 8.24347 78.1398 8.2748 78.0987 8.30541C77.8214 8.54355 77.6754 8.88869 77.5533 9.22602C77.5414 9.25863 77.5414 9.25863 77.5292 9.2919C77.3908 9.69965 77.3416 10.1064 77.3431 10.5349C77.3429 10.5819 77.3427 10.629 77.3424 10.676C77.3418 10.802 77.3418 10.928 77.342 11.054C77.3421 11.1598 77.3419 11.2656 77.3417 11.3714C77.3412 11.621 77.3413 11.8707 77.3417 12.1204C77.3421 12.3769 77.3416 12.6334 77.3407 12.8899C77.3399 13.1114 77.3397 13.3329 77.3399 13.5543C77.34 13.6861 77.3399 13.8178 77.3393 13.9496C77.3388 14.0734 77.3389 14.1972 77.3396 14.321C77.3398 14.3874 77.3393 14.4539 77.3388 14.5203C77.3417 14.8724 77.4065 15.1952 77.6578 15.4561C78.084 15.8224 78.6291 16.0533 79.1509 16.2481C79.1509 16.2823 79.1509 16.3164 79.1509 16.3516C76.988 16.3516 74.8251 16.3516 72.5966 16.3516C72.6311 16.2136 72.6311 16.2136 72.7292 16.1483C72.7711 16.1258 72.8131 16.1038 72.8553 16.0821C73.2558 15.8651 73.6542 15.5896 73.8058 15.14C73.8406 14.9976 73.8482 14.8657 73.8475 14.7202C73.8476 14.6924 73.8477 14.6645 73.8479 14.6358C73.8482 14.543 73.8481 14.4502 73.8479 14.3573C73.8481 14.2906 73.8483 14.2238 73.8485 14.157C73.8489 13.976 73.849 13.795 73.8489 13.6139C73.8488 13.4626 73.849 13.3113 73.8492 13.16C73.8496 12.8029 73.8496 12.4459 73.8494 12.0888C73.8492 11.7209 73.8496 11.3529 73.8503 10.985C73.8509 10.6687 73.8511 10.3525 73.851 10.0362C73.851 9.84751 73.851 9.65879 73.8515 9.47007C73.852 9.29251 73.8519 9.11495 73.8514 8.93739C73.8514 8.8724 73.8515 8.8074 73.8517 8.74241C73.8543 8.17415 73.8543 8.17415 73.6315 7.65861C73.6315 7.63584 73.6315 7.61307 73.6315 7.58961C73.6087 7.58961 73.586 7.58961 73.5625 7.58961C73.472 7.50769 73.472 7.50769 73.39 7.41713C73.39 7.39437 73.39 7.3716 73.39 7.34814C73.3658 7.33925 73.3416 7.33036 73.3167 7.32119C73.1712 7.25949 73.0402 7.17623 72.9049 7.09481C72.8068 7.03589 72.8068 7.03589 72.7066 7.0021C72.6817 6.99108 72.6568 6.98005 72.6311 6.96869C72.6197 6.93454 72.6083 6.90038 72.5966 6.8652C74.1562 6.8652 75.7157 6.8652 77.3226 6.8652C77.334 7.46853 77.3453 8.07187 77.3571 8.69349C77.4424 8.47151 77.4424 8.47151 77.5295 8.24504C77.5928 8.1236 77.656 8.0066 77.7257 7.8893C77.7425 7.86006 77.7592 7.83082 77.7765 7.8007C77.8685 7.6434 77.8685 7.6434 77.909 7.58961C77.9318 7.58961 77.9545 7.58961 77.978 7.58961C77.9908 7.56 77.9908 7.56 78.0039 7.52979C78.0537 7.43955 78.1119 7.37754 78.185 7.30502C78.2092 7.28065 78.2334 7.25629 78.2583 7.23118C78.323 7.17566 78.323 7.17566 78.3919 7.17566C78.3919 7.15289 78.3919 7.13013 78.3919 7.10667C78.8254 6.7751 79.3188 6.67816 79.8516 6.67547Z" fill="white"/>
<path d="M73.9764 18.2144C73.9992 18.2144 74.022 18.2144 74.0454 18.2144C74.0454 19.3527 74.0454 20.4911 74.0454 21.664C74.8195 21.664 75.5936 21.664 76.3912 21.664C76.3912 21.7892 76.3912 21.9144 76.3912 22.0434C75.6171 22.0434 74.843 22.0434 74.0454 22.0434C74.0476 22.8744 74.0502 23.7053 74.0536 24.5363C74.0551 24.9221 74.0565 25.308 74.0574 25.6939C74.0582 26.0304 74.0593 26.367 74.0609 26.7035C74.0617 26.8815 74.0624 27.0595 74.0626 27.2375C74.0628 27.4055 74.0635 27.5735 74.0646 27.7415C74.0649 27.8027 74.065 27.8639 74.0649 27.9251C74.0646 28.455 74.109 28.9678 74.3214 29.4601C74.33 29.4831 74.3387 29.5061 74.3475 29.5299C74.5189 29.9374 74.9329 30.2744 75.3218 30.4604C75.3218 30.4832 75.3218 30.506 75.3218 30.5294C75.3453 30.5329 75.3688 30.5364 75.3931 30.5399C75.5146 30.5687 75.6212 30.619 75.7336 30.6717C76.0017 30.7946 76.277 30.8827 76.5602 30.9642C76.5915 30.9735 76.6229 30.9828 76.6551 30.9924C76.6832 31.0005 76.7113 31.0085 76.7403 31.0168C76.7724 31.0317 76.7724 31.0317 76.8051 31.0469C76.8165 31.081 76.8279 31.1152 76.8396 31.1504C76.1139 31.2673 75.4045 31.2911 74.6707 31.2927C74.6403 31.2928 74.6099 31.2928 74.5786 31.2929C74.0642 31.2941 73.5567 31.2888 73.0515 31.1805C73.0163 31.173 72.9811 31.1655 72.9448 31.1578C72.1884 30.9882 71.5296 30.6564 71.0831 30.0034C70.6458 29.2631 70.5841 28.3891 70.588 27.5496C70.588 27.489 70.588 27.4284 70.588 27.3678C70.588 27.2055 70.5884 27.0432 70.5888 26.8808C70.5893 26.7104 70.5893 26.54 70.5894 26.3695C70.5896 26.0478 70.5902 25.726 70.5909 25.4042C70.5916 25.0375 70.592 24.6707 70.5924 24.304C70.5931 23.5505 70.5943 22.7969 70.5958 22.0434C70.1519 22.0434 69.7079 22.0434 69.2505 22.0434C69.285 21.9399 69.285 21.9399 69.3461 21.904C69.3719 21.8936 69.3977 21.8831 69.4243 21.8723C69.4525 21.8606 69.4806 21.8488 69.5096 21.8367C69.5521 21.8195 69.5521 21.8195 69.5954 21.8019C69.6432 21.7815 69.6909 21.7609 69.7386 21.7402C69.7622 21.73 69.7858 21.7198 69.8102 21.7093C70.9273 21.2219 71.9166 20.567 72.8036 19.7322C72.8395 19.6985 72.8395 19.6985 72.8761 19.6641C73.003 19.5414 73.1079 19.4118 73.2085 19.2666C73.2229 19.2495 73.2372 19.2324 73.252 19.2147C73.2748 19.2147 73.2976 19.2147 73.321 19.2147C73.3303 19.1891 73.3395 19.1635 73.349 19.1371C73.3884 19.046 73.4277 18.9783 73.4935 18.9043C73.5163 18.9043 73.539 18.9043 73.5625 18.9043C73.5625 18.8701 73.5625 18.836 73.5625 18.8008C73.5853 18.8008 73.608 18.8008 73.6315 18.8008C73.6443 18.7648 73.6443 18.7648 73.6574 18.7282C73.707 18.6131 73.7691 18.5149 73.8385 18.4106C73.8626 18.3737 73.8868 18.3368 73.9118 18.2988C73.9438 18.257 73.9438 18.257 73.9764 18.2144Z" fill="white"/>
</svg>
